STARTFONT 2.1
COMMENT
COMMENT Converted from OpenType font "JF-Dot-Kappa20B.ttf" by "otf2bdf 3.0".
COMMENT
FONT -FreeType-JF Dot Kappa 20-Bold-R-Normal--17-120-100-100-P-201-ISO10646-1
SIZE 12 100 100
FONTBOUNDINGBOX 20 20 0 -3
STARTPROPERTIES 19
FOUNDRY "FreeType"
FAMILY_NAME "JF Dot Kappa 20"
WEIGHT_NAME "Bold"
SLANT "R"
SETWIDTH_NAME "Normal"
ADD_STYLE_NAME ""
PIXEL_SIZE 17
POINT_SIZE 120
RESOLUTION_X 100
RESOLUTION_Y 100
SPACING "P"
AVERAGE_WIDTH 201
CHARSET_REGISTRY "ISO10646"
CHARSET_ENCODING "1"
FONT_ASCENT 17
FONT_DESCENT 2
COPYRIGHT "-FreeType-JF Dot Kappa 20-Bold-R-Normal--17-120-100-100-P-201-ISO10646-1"
_OTF_FONTFILE "JF-Dot-Kappa20B.ttf"
_OTF_PSNAME "JF-Dot-Kappa-20-Bold"
ENDPROPERTIES
CHARS 7116
STARTCHAR 0020
ENCODING 32
SWIDTH 600 0
DWIDTH 10 0
BBX 10 20 0 -3
BITMAP
0000
0000
0000
0000
0000
0000
0000
0000
0000
0000
0000
0000
0000
0000
0000
0000
0000
0000
0000
0000
ENDCHAR
STARTCHAR 0021
ENCODING 33
SWIDTH 600 0
DWIDTH 10 0
BBX 10 20 0 -3
BITMAP
0000
0000
0800
1C00
1C00
1C00
1C00
1C00
1C00
0800
0800
0800
0000
0000
0800
1C00
0800
0000
0000
0000
ENDCHAR
STARTCHAR 0022
ENCODING 34
SWIDTH 600 0
DWIDTH 10 0
BBX 10 20 0 -3
BITMAP
0000
0000
7700
7700
3300
2200
4400
0000
0000
0000
0000
0000
0000
0000
0000
0000
0000
0000
0000
0000
ENDCHAR
STARTCHAR 0023
ENCODING 35
SWIDTH 600 0
DWIDTH 10 0
BBX 10 20 0 -3
BITMAP
0000
0000
1100
1100
1100
1100
7F80
7F80
2200
2200
2200
2200
FF00
FF00
4400
4400
4400
4400
0000
0000
ENDCHAR
STARTCHAR 0024
ENCODING 36
SWIDTH 600 0
DWIDTH 10 0
BBX 10 20 0 -3
BITMAP
0000
0800
0800
3E00
6B00
CB80
C900
E800
7800
3E00
0F00
0B80
4980
E980
6B00
3E00
0800
0800
0000
0000
ENDCHAR
STARTCHAR 0025
ENCODING 37
SWIDTH 600 0
DWIDTH 10 0
BBX 10 20 0 -3
BITMAP
0000
0000
3080
6880
4900
4900
4A00
5A00
3400
0400
0800
0B00
1680
1480
2480
2480
4580
4300
0000
0000
ENDCHAR
STARTCHAR 0026
ENCODING 38
SWIDTH 600 0
DWIDTH 10 0
BBX 10 20 0 -3
BITMAP
0000
0000
0000
3C00
6600
6600
6400
2C00
3800
31C0
7880
D880
CD00
CD00
C600
E740
7980
0000
0000
0000
ENDCHAR
STARTCHAR 0027
ENCODING 39
SWIDTH 600 0
DWIDTH 10 0
BBX 10 20 0 -3
BITMAP
0000
0000
3800
3800
1800
1800
1000
2000
0000
0000
0000
0000
0000
0000
0000
0000
0000
0000
0000
0000
ENDCHAR
STARTCHAR 0028
ENCODING 40
SWIDTH 600 0
DWIDTH 10 0
BBX 10 20 0 -3
BITMAP
0000
0100
0200
0600
0400
0C00
0800
1800
1800
1800
1800
1800
1800
0800
0C00
0400
0600
0200
0100
0000
ENDCHAR
STARTCHAR 0029
ENCODING 41
SWIDTH 600 0
DWIDTH 10 0
BBX 10 20 0 -3
BITMAP
0000
4000
2000
3000
1000
1800
0800
0C00
0C00
0C00
0C00
0C00
0C00
0800
1800
1000
3000
2000
4000
0000
ENDCHAR
STARTCHAR 002A
ENCODING 42
SWIDTH 600 0
DWIDTH 10 0
BBX 10 20 0 -3
BITMAP
0000
0000
0000
0000
0000
0800
4900
6B00
3E00
0800
3E00
6B00
4900
0800
0000
0000
0000
0000
0000
0000
ENDCHAR
STARTCHAR 002B
ENCODING 43
SWIDTH 600 0
DWIDTH 10 0
BBX 10 20 0 -3
BITMAP
0000
0000
0000
0000
0000
0800
0800
0800
0800
FF80
0800
0800
0800
0800
0000
0000
0000
0000
0000
0000
ENDCHAR
STARTCHAR 002C
ENCODING 44
SWIDTH 600 0
DWIDTH 10 0
BBX 10 20 0 -3
BITMAP
0000
0000
0000
0000
0000
0000
0000
0000
0000
0000
0000
0000
0000
0000
3800
3800
1800
1800
1000
2000
ENDCHAR
STARTCHAR 002D
ENCODING 45
SWIDTH 600 0
DWIDTH 10 0
BBX 10 20 0 -3
BITMAP
0000
0000
0000
0000
0000
0000
0000
0000
0000
7F80
0000
0000
0000
0000
0000
0000
0000
0000
0000
0000
ENDCHAR
STARTCHAR 002E
ENCODING 46
SWIDTH 600 0
DWIDTH 10 0
BBX 10 20 0 -3
BITMAP
0000
0000
0000
0000
0000
0000
0000
0000
0000
0000
0000
0000
0000
0000
3800
3800
3800
0000
0000
0000
ENDCHAR
STARTCHAR 002F
ENCODING 47
SWIDTH 600 0
DWIDTH 10 0
BBX 10 20 0 -3
BITMAP
0000
0080
0080
0180
0100
0300
0200
0600
0400
0C00
0800
1800
1000
3000
2000
6000
4000
C000
8000
8000
ENDCHAR
STARTCHAR 0030
ENCODING 48
SWIDTH 600 0
DWIDTH 10 0
BBX 10 20 0 -3
BITMAP
0000
0000
0000
1E00
3300
2100
6180
6180
6180
6180
6180
6180
6180
6180
2100
3300
1E00
0000
0000
0000
ENDCHAR
STARTCHAR 0031
ENCODING 49
SWIDTH 600 0
DWIDTH 10 0
BBX 10 20 0 -3
BITMAP
0000
0000
0000
0400
0C00
3C00
0C00
0C00
0C00
0C00
0C00
0C00
0C00
0C00
0C00
0C00
3F00
0000
0000
0000
ENDCHAR
STARTCHAR 0032
ENCODING 50
SWIDTH 600 0
DWIDTH 10 0
BBX 10 20 0 -3
BITMAP
0000
0000
0000
1E00
3300
7180
2180
0180
0300
0300
0600
0C00
0800
1080
2180
7F00
7F00
0000
0000
0000
ENDCHAR
STARTCHAR 0033
ENCODING 51
SWIDTH 600 0
DWIDTH 10 0
BBX 10 20 0 -3
BITMAP
0000
0000
0000
1E00
3300
6180
2180
0180
0300
0E00
0300
0180
0180
2180
7180
3300
1E00
0000
0000
0000
ENDCHAR
STARTCHAR 0034
ENCODING 52
SWIDTH 600 0
DWIDTH 10 0
BBX 10 20 0 -3
BITMAP
0000
0000
0000
0700
0700
0B00
0B00
1300
1300
2300
2300
4300
7F80
0300
0300
0300
0F80
0000
0000
0000
ENDCHAR
STARTCHAR 0035
ENCODING 53
SWIDTH 600 0
DWIDTH 10 0
BBX 10 20 0 -3
BITMAP
0000
0000
0000
3F80
3F80
2000
2000
2000
3E00
3300
0180
0180
0180
2180
7180
3300
1E00
0000
0000
0000
ENDCHAR
STARTCHAR 0036
ENCODING 54
SWIDTH 600 0
DWIDTH 10 0
BBX 10 20 0 -3
BITMAP
0000
0000
0000
1E00
3300
6380
6100
6000
6E00
7300
6180
6180
6180
6180
6180
3300
1E00
0000
0000
0000
ENDCHAR
STARTCHAR 0037
ENCODING 55
SWIDTH 600 0
DWIDTH 10 0
BBX 10 20 0 -3
BITMAP
0000
0000
0000
3F80
3F80
6100
4200
0200
0400
0400
0400
0C00
0C00
0C00
0C00
0C00
0C00
0000
0000
0000
ENDCHAR
STARTCHAR 0038
ENCODING 56
SWIDTH 600 0
DWIDTH 10 0
BBX 10 20 0 -3
BITMAP
0000
0000
0000
1E00
3300
6180
6180
6180
3100
1E00
2300
6180
6180
6180
6180
3300
1E00
0000
0000
0000
ENDCHAR
STARTCHAR 0039
ENCODING 57
SWIDTH 600 0
DWIDTH 10 0
BBX 10 20 0 -3
BITMAP
0000
0000
0000
1E00
3300
6180
6180
6180
6180
6180
3380
1D80
0180
2180
7180
3300
1E00
0000
0000
0000
ENDCHAR
STARTCHAR 003A
ENCODING 58
SWIDTH 600 0
DWIDTH 10 0
BBX 10 20 0 -3
BITMAP
0000
0000
0000
0000
0000
0000
1C00
1C00
1C00
0000
0000
0000
0000
0000
1C00
1C00
1C00
0000
0000
0000
ENDCHAR
STARTCHAR 003B
ENCODING 59
SWIDTH 600 0
DWIDTH 10 0
BBX 10 20 0 -3
BITMAP
0000
0000
0000
0000
0000
0000
1C00
1C00
1C00
0000
0000
0000
0000
0000
1C00
1C00
0C00
0C00
0800
1000
ENDCHAR
STARTCHAR 003C
ENCODING 60
SWIDTH 600 0
DWIDTH 10 0
BBX 10 20 0 -3
BITMAP
0000
0000
0000
0000
0100
0300
0600
0C00
1800
3000
6000
3000
1800
0C00
0600
0300
0100
0000
0000
0000
ENDCHAR
STARTCHAR 003D
ENCODING 61
SWIDTH 600 0
DWIDTH 10 0
BBX 10 20 0 -3
BITMAP
0000
0000
0000
0000
0000
0000
0000
0000
7F80
0000
0000
0000
7F80
0000
0000
0000
0000
0000
0000
0000
ENDCHAR
STARTCHAR 003E
ENCODING 62
SWIDTH 600 0
DWIDTH 10 0
BBX 10 20 0 -3
BITMAP
0000
0000
0000
0000
4000
6000
3000
1800
0C00
0600
0300
0600
0C00
1800
3000
6000
4000
0000
0000
0000
ENDCHAR
STARTCHAR 003F
ENCODING 63
SWIDTH 600 0
DWIDTH 10 0
BBX 10 20 0 -3
BITMAP
0000
0000
0000
3E00
6300
C180
E180
4180
0300
0600
0C00
0800
0800
0000
0800
1C00
0800
0000
0000
0000
ENDCHAR
STARTCHAR 0040
ENCODING 64
SWIDTH 600 0
DWIDTH 10 0
BBX 10 20 0 -3
BITMAP
0000
0000
1E00
3300
6100
4080
CA80
9680
B680
B680
B680
B680
B680
9B00
C000
4080
6300
3E00
0000
0000
ENDCHAR
STARTCHAR 0041
ENCODING 65
SWIDTH 600 0
DWIDTH 10 0
BBX 10 20 0 -3
BITMAP
0000
0000
0000
0C00
0C00
1E00
1600
1600
1600
2300
2300
2300
3F00
4180
4180
4180
E3C0
0000
0000
0000
ENDCHAR
STARTCHAR 0042
ENCODING 66
SWIDTH 600 0
DWIDTH 10 0
BBX 10 20 0 -3
BITMAP
0000
0000
0000
FE00
6300
6180
6180
6180
6300
7E00
6300
6180
6180
6180
6180
6300
FE00
0000
0000
0000
ENDCHAR
STARTCHAR 0043
ENCODING 67
SWIDTH 600 0
DWIDTH 10 0
BBX 10 20 0 -3
BITMAP
0000
0000
0000
1C80
7380
6180
E080
C080
C000
C000
C000
C000
C000
E000
6080
7100
1E00
0000
0000
0000
ENDCHAR
STARTCHAR 0044
ENCODING 68
SWIDTH 600 0
DWIDTH 10 0
BBX 10 20 0 -3
BITMAP
0000
0000
0000
FC00
6700
6380
6180
6180
6180
6180
6180
6180
6180
6180
6300
6700
FC00
0000
0000
0000
ENDCHAR
STARTCHAR 0045
ENCODING 69
SWIDTH 600 0
DWIDTH 10 0
BBX 10 20 0 -3
BITMAP
0000
0000
0000
FF80
6180
6080
6080
6200
6200
7E00
6200
6200
6000
6080
6080
6180
FF80
0000
0000
0000
ENDCHAR
STARTCHAR 0046
ENCODING 70
SWIDTH 600 0
DWIDTH 10 0
BBX 10 20 0 -3
BITMAP
0000
0000
0000
FF80
6180
6080
6080
6400
6400
7C00
6400
6400
6000
6000
6000
6000
F800
0000
0000
0000
ENDCHAR
STARTCHAR 0047
ENCODING 71
SWIDTH 600 0
DWIDTH 10 0
BBX 10 20 0 -3
BITMAP
0000
0000
0000
1E80
7380
6180
E080
C080
C000
C000
C780
C180
C180
E180
6180
7380
1C80
0000
0000
0000
ENDCHAR
STARTCHAR 0048
ENCODING 72
SWIDTH 600 0
DWIDTH 10 0
BBX 10 20 0 -3
BITMAP
0000
0000
0000
F3C0
6180
6180
6180
6180
6180
7F80
6180
6180
6180
6180
6180
6180
F3C0
0000
0000
0000
ENDCHAR
STARTCHAR 0049
ENCODING 73
SWIDTH 600 0
DWIDTH 10 0
BBX 10 20 0 -3
BITMAP
0000
0000
0000
3F00
0C00
0C00
0C00
0C00
0C00
0C00
0C00
0C00
0C00
0C00
0C00
0C00
3F00
0000
0000
0000
ENDCHAR
STARTCHAR 004A
ENCODING 74
SWIDTH 600 0
DWIDTH 10 0
BBX 10 20 0 -3
BITMAP
0000
0000
0000
0FC0
0300
0300
0300
0300
0300
0300
0300
0300
6300
E300
C300
6600
3C00
0000
0000
0000
ENDCHAR
STARTCHAR 004B
ENCODING 75
SWIDTH 600 0
DWIDTH 10 0
BBX 10 20 0 -3
BITMAP
0000
0000
0000
F3C0
6100
6200
6200
6400
6800
7C00
6C00
6600
6600
6300
6300
6180
F3C0
0000
0000
0000
ENDCHAR
STARTCHAR 004C
ENCODING 76
SWIDTH 600 0
DWIDTH 10 0
BBX 10 20 0 -3
BITMAP
0000
0000
0000
F800
6000
6000
6000
6000
6000
6000
6000
6000
6000
6080
6080
6180
FF80
0000
0000
0000
ENDCHAR
STARTCHAR 004D
ENCODING 77
SWIDTH 600 0
DWIDTH 10 0
BBX 10 20 0 -3
BITMAP
0000
0000
0000
E1C0
6180
7380
7380
7380
7780
5580
5D80
5D80
4980
4980
4980
4180
E3C0
0000
0000
0000
ENDCHAR
STARTCHAR 004E
ENCODING 78
SWIDTH 600 0
DWIDTH 10 0
BBX 10 20 0 -3
BITMAP
0000
0000
0000
E1C0
7080
7080
5880
5880
4C80
4C80
4680
4680
4380
4380
4180
4180
E080
0000
0000
0000
ENDCHAR
STARTCHAR 004F
ENCODING 79
SWIDTH 600 0
DWIDTH 10 0
BBX 10 20 0 -3
BITMAP
0000
0000
0000
3E00
6300
6300
C180
C180
C180
C180
C180
C180
C180
C180
6300
6300
3E00
0000
0000
0000
ENDCHAR
STARTCHAR 0050
ENCODING 80
SWIDTH 600 0
DWIDTH 10 0
BBX 10 20 0 -3
BITMAP
0000
0000
0000
FE00
6300
6180
6180
6180
6180
6300
7E00
6000
6000
6000
6000
6000
F000
0000
0000
0000
ENDCHAR
STARTCHAR 0051
ENCODING 81
SWIDTH 600 0
DWIDTH 10 0
BBX 10 20 0 -3
BITMAP
0000
0000
0000
3E00
6300
6300
C180
C180
C180
C180
C180
C180
C180
DD80
6700
6700
3C40
07C0
0380
0000
ENDCHAR
STARTCHAR 0052
ENCODING 82
SWIDTH 600 0
DWIDTH 10 0
BBX 10 20 0 -3
BITMAP
0000
0000
0000
FE00
6300
6180
6180
6180
6300
7E00
6C00
6600
6600
6300
6300
6180
F3C0
0000
0000
0000
ENDCHAR
STARTCHAR 0053
ENCODING 83
SWIDTH 600 0
DWIDTH 10 0
BBX 10 20 0 -3
BITMAP
0000
0000
0000
1D00
3300
6180
6080
7000
3800
1E00
0700
0380
4180
4180
6180
7300
4E00
0000
0000
0000
ENDCHAR
STARTCHAR 0054
ENCODING 84
SWIDTH 600 0
DWIDTH 10 0
BBX 10 20 0 -3
BITMAP
0000
0000
0000
FFC0
CCC0
8C40
8C40
0C00
0C00
0C00
0C00
0C00
0C00
0C00
0C00
0C00
3F00
0000
0000
0000
ENDCHAR
STARTCHAR 0055
ENCODING 85
SWIDTH 600 0
DWIDTH 10 0
BBX 10 20 0 -3
BITMAP
0000
0000
0000
F1C0
6080
6080
6080
6080
6080
6080
6080
6080
6080
6080
6080
3100
1E00
0000
0000
0000
ENDCHAR
STARTCHAR 0056
ENCODING 86
SWIDTH 600 0
DWIDTH 10 0
BBX 10 20 0 -3
BITMAP
0000
0000
0000
F1C0
6080
6080
3100
3100
3100
3100
1A00
1A00
1A00
0C00
0C00
0C00
0C00
0000
0000
0000
ENDCHAR
STARTCHAR 0057
ENCODING 87
SWIDTH 600 0
DWIDTH 10 0
BBX 10 20 0 -3
BITMAP
0000
0000
0000
F1C0
6080
6480
6480
6480
6480
6E80
6E80
6A80
7B80
7B80
3100
3100
3100
0000
0000
0000
ENDCHAR
STARTCHAR 0058
ENCODING 88
SWIDTH 600 0
DWIDTH 10 0
BBX 10 20 0 -3
BITMAP
0000
0000
0000
F3C0
6180
3100
3200
1A00
1C00
0C00
0E00
1600
1300
2300
2180
6180
F3C0
0000
0000
0000
ENDCHAR
STARTCHAR 0059
ENCODING 89
SWIDTH 600 0
DWIDTH 10 0
BBX 10 20 0 -3
BITMAP
0000
0000
0000
F1C0
6080
6080
3100
3100
1A00
1E00
0C00
0C00
0C00
0C00
0C00
0C00
3F00
0000
0000
0000
ENDCHAR
STARTCHAR 005A
ENCODING 90
SWIDTH 600 0
DWIDTH 10 0
BBX 10 20 0 -3
BITMAP
0000
0000
0000
7F80
6300
4300
4600
0600
0C00
0C00
1800
1800
3000
3080
6080
6180
FF80
0000
0000
0000
ENDCHAR
STARTCHAR 005B
ENCODING 91
SWIDTH 600 0
DWIDTH 10 0
BBX 10 20 0 -3
BITMAP
0000
0000
1F00
1800
1800
1800
1800
1800
1800
1800
1800
1800
1800
1800
1800
1800
1800
1F00
0000
0000
ENDCHAR
STARTCHAR 005C
ENCODING 92
SWIDTH 600 0
DWIDTH 10 0
BBX 10 20 0 -3
BITMAP
0000
0000
0000
F3C0
6080
6180
3100
3300
1A00
7F80
0C00
0C00
7F80
0C00
0C00
0C00
3F00
0000
0000
0000
ENDCHAR
STARTCHAR 005D
ENCODING 93
SWIDTH 600 0
DWIDTH 10 0
BBX 10 20 0 -3
BITMAP
0000
0000
3E00
0600
0600
0600
0600
0600
0600
0600
0600
0600
0600
0600
0600
0600
0600
3E00
0000
0000
ENDCHAR
STARTCHAR 005E
ENCODING 94
SWIDTH 600 0
DWIDTH 10 0
BBX 10 20 0 -3
BITMAP
0000
0000
0800
1C00
3600
4100
0000
0000
0000
0000
0000
0000
0000
0000
0000
0000
0000
0000
0000
0000
ENDCHAR
STARTCHAR 005F
ENCODING 95
SWIDTH 600 0
DWIDTH 10 0
BBX 10 20 0 -3
BITMAP
0000
0000
0000
0000
0000
0000
0000
0000
0000
0000
0000
0000
0000
0000
0000
0000
0000
FF80
0000
0000
ENDCHAR
STARTCHAR 0060
ENCODING 96
SWIDTH 600 0
DWIDTH 10 0
BBX 10 20 0 -3
BITMAP
0000
0000
1800
1C00
0600
0000
0000
0000
0000
0000
0000
0000
0000
0000
0000
0000
0000
0000
0000
0000
ENDCHAR
STARTCHAR 0061
ENCODING 97
SWIDTH 600 0
DWIDTH 10 0
BBX 10 20 0 -3
BITMAP
0000
0000
0000
0000
0000
0000
0000
1F00
3180
6180
0180
1F80
3180
6180
6180
6380
3EC0
0000
0000
0000
ENDCHAR
STARTCHAR 0062
ENCODING 98
SWIDTH 600 0
DWIDTH 10 0
BBX 10 20 0 -3
BITMAP
0000
0000
0000
E000
6000
6000
6000
6E00
7300
6180
6180
6180
6180
6180
6180
7300
5E00
0000
0000
0000
ENDCHAR
STARTCHAR 0063
ENCODING 99
SWIDTH 600 0
DWIDTH 10 0
BBX 10 20 0 -3
BITMAP
0000
0000
0000
0000
0000
0000
0000
1E00
3100
6180
6000
6000
6000
6000
6080
3100
1E00
0000
0000
0000
ENDCHAR
STARTCHAR 0064
ENCODING 100
SWIDTH 600 0
DWIDTH 10 0
BBX 10 20 0 -3
BITMAP
0000
0000
0000
0380
0180
0180
0180
1D80
3380
6180
6180
6180
6180
6180
6180
3380
1DC0
0000
0000
0000
ENDCHAR
STARTCHAR 0065
ENCODING 101
SWIDTH 600 0
DWIDTH 10 0
BBX 10 20 0 -3
BITMAP
0000
0000
0000
0000
0000
0000
0000
1E00
3300
6180
6180
7F80
6000
6000
6080
3100
1E00
0000
0000
0000
ENDCHAR
STARTCHAR 0066
ENCODING 102
SWIDTH 600 0
DWIDTH 10 0
BBX 10 20 0 -3
BITMAP
0000
0000
0000
0F00
1980
1980
1800
7F00
1800
1800
1800
1800
1800
1800
1800
1800
7E00
0000
0000
0000
ENDCHAR
STARTCHAR 0067
ENCODING 103
SWIDTH 600 0
DWIDTH 10 0
BBX 10 20 0 -3
BITMAP
0000
0000
0000
0000
0000
0000
0080
3D80
6200
6300
6300
6300
3E00
4000
2000
5F00
C180
C180
C180
7F00
ENDCHAR
STARTCHAR 0068
ENCODING 104
SWIDTH 600 0
DWIDTH 10 0
BBX 10 20 0 -3
BITMAP
0000
0000
0000
E000
6000
6000
6000
6F00
7180
6180
6180
6180
6180
6180
6180
6180
F3C0
0000
0000
0000
ENDCHAR
STARTCHAR 0069
ENCODING 105
SWIDTH 600 0
DWIDTH 10 0
BBX 10 20 0 -3
BITMAP
0000
0000
0000
0C00
0C00
0000
0000
3C00
0C00
0C00
0C00
0C00
0C00
0C00
0C00
0C00
7F80
0000
0000
0000
ENDCHAR
STARTCHAR 006A
ENCODING 106
SWIDTH 600 0
DWIDTH 10 0
BBX 10 20 0 -3
BITMAP
0000
0000
0000
0180
0180
0000
0000
0F80
0180
0180
0180
0180
0180
0180
0180
0180
0180
6180
6300
3E00
ENDCHAR
STARTCHAR 006B
ENCODING 107
SWIDTH 600 0
DWIDTH 10 0
BBX 10 20 0 -3
BITMAP
0000
0000
0000
E000
6000
6000
6000
6780
6200
6400
6800
7800
6C00
6600
6600
6300
F780
0000
0000
0000
ENDCHAR
STARTCHAR 006C
ENCODING 108
SWIDTH 600 0
DWIDTH 10 0
BBX 10 20 0 -3
BITMAP
0000
0000
0000
3C00
0C00
0C00
0C00
0C00
0C00
0C00
0C00
0C00
0C00
0C00
0C00
0C00
7F80
0000
0000
0000
ENDCHAR
STARTCHAR 006D
ENCODING 109
SWIDTH 600 0
DWIDTH 10 0
BBX 10 20 0 -3
BITMAP
0000
0000
0000
0000
0000
0000
0000
DB00
6D80
6D80
6D80
6D80
6D80
6D80
6D80
6D80
EDC0
0000
0000
0000
ENDCHAR
STARTCHAR 006E
ENCODING 110
SWIDTH 600 0
DWIDTH 10 0
BBX 10 20 0 -3
BITMAP
0000
0000
0000
0000
0000
0000
0000
EF00
7180
6180
6180
6180
6180
6180
6180
6180
F3C0
0000
0000
0000
ENDCHAR
STARTCHAR 006F
ENCODING 111
SWIDTH 600 0
DWIDTH 10 0
BBX 10 20 0 -3
BITMAP
0000
0000
0000
0000
0000
0000
0000
1E00
3300
6180
6180
6180
6180
6180
6180
3300
1E00
0000
0000
0000
ENDCHAR
STARTCHAR 0070
ENCODING 112
SWIDTH 600 0
DWIDTH 10 0
BBX 10 20 0 -3
BITMAP
0000
0000
0000
0000
0000
0000
0000
EE00
7300
6180
6180
6180
6180
6180
7300
6E00
6000
6000
6000
F000
ENDCHAR
STARTCHAR 0071
ENCODING 113
SWIDTH 600 0
DWIDTH 10 0
BBX 10 20 0 -3
BITMAP
0000
0000
0000
0000
0000
0000
0000
3D00
6700
C300
C300
C300
C300
C300
6700
3B00
0300
0300
0300
0780
ENDCHAR
STARTCHAR 0072
ENCODING 114
SWIDTH 600 0
DWIDTH 10 0
BBX 10 20 0 -3
BITMAP
0000
0000
0000
0000
0000
0000
0000
7700
3980
3180
3000
3000
3000
3000
3000
3000
7C00
0000
0000
0000
ENDCHAR
STARTCHAR 0073
ENCODING 115
SWIDTH 600 0
DWIDTH 10 0
BBX 10 20 0 -3
BITMAP
0000
0000
0000
0000
0000
0000
0000
3E80
6380
6180
7000
3C00
0F00
4380
6180
7180
5F00
0000
0000
0000
ENDCHAR
STARTCHAR 0074
ENCODING 116
SWIDTH 600 0
DWIDTH 10 0
BBX 10 20 0 -3
BITMAP
0000
0000
0000
0800
0800
1800
1800
7F00
1800
1800
1800
1800
1800
1800
1880
1C80
0F00
0000
0000
0000
ENDCHAR
STARTCHAR 0075
ENCODING 117
SWIDTH 600 0
DWIDTH 10 0
BBX 10 20 0 -3
BITMAP
0000
0000
0000
0000
0000
0000
0000
E380
6180
6180
6180
6180
6180
6180
6180
6380
3DC0
0000
0000
0000
ENDCHAR
STARTCHAR 0076
ENCODING 118
SWIDTH 600 0
DWIDTH 10 0
BBX 10 20 0 -3
BITMAP
0000
0000
0000
0000
0000
0000
0000
F3C0
6080
6080
3100
3100
3100
1A00
1A00
0C00
0C00
0000
0000
0000
ENDCHAR
STARTCHAR 0077
ENCODING 119
SWIDTH 600 0
DWIDTH 10 0
BBX 10 20 0 -3
BITMAP
0000
0000
0000
0000
0000
0000
0000
F3C0
6080
6480
6480
6480
6E80
6A80
7B80
3100
3100
0000
0000
0000
ENDCHAR
STARTCHAR 0078
ENCODING 120
SWIDTH 600 0
DWIDTH 10 0
BBX 10 20 0 -3
BITMAP
0000
0000
0000
0000
0000
0000
0000
F780
6300
3200
3400
1800
0C00
1600
2600
6300
F780
0000
0000
0000
ENDCHAR
STARTCHAR 0079
ENCODING 121
SWIDTH 600 0
DWIDTH 10 0
BBX 10 20 0 -3
BITMAP
0000
0000
0000
0000
0000
0000
0000
F380
6100
6100
3100
3200
1A00
1A00
0C00
0C00
0400
C800
C800
7000
ENDCHAR
STARTCHAR 007A
ENCODING 122
SWIDTH 600 0
DWIDTH 10 0
BBX 10 20 0 -3
BITMAP
0000
0000
0000
0000
0000
0000
0000
7F80
6300
4600
0600
0C00
0C00
1800
3080
3180
7F80
0000
0000
0000
ENDCHAR
STARTCHAR 007B
ENCODING 123
SWIDTH 600 0
DWIDTH 10 0
BBX 10 20 0 -3
BITMAP
0600
0C00
0C00
0C00
0C00
0C00
0C00
0800
0800
3000
0800
0800
0C00
0C00
0C00
0C00
0C00
0C00
0600
0000
ENDCHAR
STARTCHAR 007C
ENCODING 124
SWIDTH 600 0
DWIDTH 10 0
BBX 10 20 0 -3
BITMAP
0C00
0C00
0C00
0C00
0C00
0C00
0C00
0C00
0C00
0C00
0C00
0C00
0C00
0C00
0C00
0C00
0C00
0C00
0C00
0C00
ENDCHAR
STARTCHAR 007D
ENCODING 125
SWIDTH 600 0
DWIDTH 10 0
BBX 10 20 0 -3
BITMAP
1800
0C00
0C00
0C00
0C00
0C00
0C00
0400
0400
0300
0400
0400
0C00
0C00
0C00
0C00
0C00
0C00
1800
0000
ENDCHAR
STARTCHAR 007E
ENCODING 126
SWIDTH 600 0
DWIDTH 10 0
BBX 10 20 0 -3
BITMAP
FF80
FF80
0000
0000
0000
0000
0000
0000
0000
0000
0000
0000
0000
0000
0000
0000
0000
0000
0000
0000
ENDCHAR
STARTCHAR 00A0
ENCODING 160
SWIDTH 600 0
DWIDTH 10 0
BBX 10 20 0 -3
BITMAP
0000
0000
0000
0C00
0C00
0000
0000
3C00
0C00
0C00
0C00
0C00
0C00
0C00
0C00
0C00
7F80
0000
0000
0000
ENDCHAR
STARTCHAR 00A1
ENCODING 161
SWIDTH 600 0
DWIDTH 10 0
BBX 10 20 0 -3
BITMAP
0000
0000
0000
0000
0000
0000
0000
7F80
0C00
0C00
0C00
0C00
0C00
0C00
0C00
0C00
7F80
0000
0000
0000
ENDCHAR
STARTCHAR 00A2
ENCODING 162
SWIDTH 600 0
DWIDTH 10 0
BBX 10 20 0 -3
BITMAP
0000
0000
0000
0000
0000
0000
0000
1E00
3300
6180
6180
7F80
6000
6000
6080
3100
1E00
0000
0000
0000
ENDCHAR
STARTCHAR 00A3
ENCODING 163
SWIDTH 600 0
DWIDTH 10 0
BBX 10 20 0 -3
BITMAP
0000
0000
0000
0000
0000
0000
0000
1E00
3100
6080
3000
1E00
3000
6000
6080
3100
1E00
0000
0000
0000
ENDCHAR
STARTCHAR 00A4
ENCODING 164
SWIDTH 600 0
DWIDTH 10 0
BBX 10 20 0 -3
BITMAP
0000
0000
0000
0000
0000
0000
0000
7B80
CEC0
CC40
0C40
1FC0
6C00
CC00
CC00
CE40
7380
0000
0000
0000
ENDCHAR
STARTCHAR 00A5
ENCODING 165
SWIDTH 600 0
DWIDTH 10 0
BBX 10 20 0 -3
BITMAP
0000
0000
0000
0000
0000
0000
0000
1F00
7180
6180
0180
0780
3980
6180
6180
6380
3DC0
0000
0000
0000
ENDCHAR
STARTCHAR 00A6
ENCODING 166
SWIDTH 600 0
DWIDTH 10 0
BBX 10 20 0 -3
BITMAP
0000
0000
0000
0C00
0C00
0000
0000
3C00
0C00
0C00
0C00
7F80
0C00
0C00
0C00
0C00
7F80
0000
0000
0000
ENDCHAR
STARTCHAR 00A7
ENCODING 167
SWIDTH 1200 0
DWIDTH 20 0
BBX 10 18 5 -2
BITMAP
1E00
6380
C0C0
C0C0
7000
3C00
2F00
4380
C0C0
C0C0
7080
3D00
0F00
0380
C0C0
C0C0
7180
1E00
ENDCHAR
STARTCHAR 00A8
ENCODING 168
SWIDTH 1200 0
DWIDTH 20 0
BBX 10 3 5 14
BITMAP
4080
E1C0
4080
ENDCHAR
STARTCHAR 00A9
ENCODING 169
SWIDTH 600 0
DWIDTH 10 0
BBX 10 10 0 0
BITMAP
ED80
6D80
6D80
6D80
6D80
6D80
6D80
6D80
6D80
36C0
ENDCHAR
STARTCHAR 00AA
ENCODING 170
SWIDTH 600 0
DWIDTH 10 0
BBX 10 10 0 0
BITMAP
6080
B140
3100
1A00
1A00
0C00
0C00
1200
1200
0C00
ENDCHAR
STARTCHAR 00AB
ENCODING 171
SWIDTH 600 0
DWIDTH 10 0
BBX 10 10 0 0
BITMAP
0C00
0C00
1600
1600
2300
2300
2300
4180
4180
F3C0
ENDCHAR
STARTCHAR 00AC
ENCODING 172
SWIDTH 600 0
DWIDTH 10 0
BBX 9 10 1 0
BITMAP
3B00
6700
6300
C300
C300
C300
C300
C700
6B00
3380
ENDCHAR
STARTCHAR 00AD
ENCODING 173
SWIDTH 600 0
DWIDTH 10 0
BBX 9 13 0 -3
BITMAP
F380
6100
6100
3100
3200
1A00
1A00
0C00
0C00
0400
C800
C800
7000
ENDCHAR
STARTCHAR 00AE
ENCODING 174
SWIDTH 600 0
DWIDTH 10 0
BBX 9 10 0 0
BITMAP
F380
6100
2100
3200
1200
1C00
0C00
0C00
0C00
3F00
ENDCHAR
STARTCHAR 00AF
ENCODING 175
SWIDTH 600 0
DWIDTH 10 0
BBX 8 14 1 -2
BITMAP
06
06
3C
6E
CF
CB
DB
DB
D3
F3
76
3C
60
60
ENDCHAR
STARTCHAR 00B0
ENCODING 176
SWIDTH 1200 0
DWIDTH 20 0
BBX 4 4 2 11
BITMAP
60
90
90
60
ENDCHAR
STARTCHAR 00B1
ENCODING 177
SWIDTH 1200 0
DWIDTH 20 0
BBX 13 14 3 0
BITMAP
0200
0200
0200
0200
0200
FFF8
0200
0200
0200
0200
0200
0000
0000
FFF8
ENDCHAR
STARTCHAR 00B2
ENCODING 178
SWIDTH 600 0
DWIDTH 10 0
BBX 9 10 0 0
BITMAP
E700
6300
6300
6300
FF80
6300
6300
6300
6700
3B80
ENDCHAR
STARTCHAR 00B3
ENCODING 179
SWIDTH 600 0
DWIDTH 10 0
BBX 8 10 1 0
BITMAP
3C
66
C3
C3
FF
C3
C3
C3
66
3C
ENDCHAR
STARTCHAR 00B4
ENCODING 180
SWIDTH 1200 0
DWIDTH 20 0
BBX 6 4 7 13
BITMAP
1C
38
60
80
ENDCHAR
STARTCHAR 00B5
ENCODING 181
SWIDTH 600 0
DWIDTH 10 0
BBX 10 10 0 0
BITMAP
F3C0
1200
1200
2100
6180
C0C0
C0C0
C0C0
6180
1E00
ENDCHAR
STARTCHAR 00B6
ENCODING 182
SWIDTH 1200 0
DWIDTH 20 0
BBX 10 19 4 -3
BITMAP
1FC0
7C40
7C40
FC40
FC40
7C40
7C40
1C40
0440
0440
0440
0440
0440
0440
0440
0440
0440
0440
0440
ENDCHAR
STARTCHAR 00B7
ENCODING 183
SWIDTH 600 0
DWIDTH 10 0
BBX 10 18 0 -3
BITMAP
0000
0000
0000
0000
0000
1E00
2300
4180
0180
0180
0180
0180
6180
2300
1E00
0000
0000
0000
ENDCHAR
STARTCHAR 00B8
ENCODING 184
SWIDTH 600 0
DWIDTH 10 0
BBX 10 18 0 -3
BITMAP
0000
0000
0000
0000
0000
E600
6B00
7180
6180
6180
6180
6180
6300
7300
6E00
0000
0000
0000
ENDCHAR
STARTCHAR 00BA
ENCODING 186
SWIDTH 600 0
DWIDTH 10 0
BBX 10 18 0 -3
BITMAP
0000
0000
0000
0000
0000
3800
4C00
86C0
87C0
0EC0
36C0
C640
C640
6C00
3800
0000
0000
0000
ENDCHAR
STARTCHAR 00BB
ENCODING 187
SWIDTH 600 0
DWIDTH 10 0
BBX 10 18 0 -3
BITMAP
0000
1880
2D00
4600
0000
1E00
3100
6080
3000
1E00
3000
6000
6080
3100
1E00
0000
0000
0000
ENDCHAR
STARTCHAR 00BC
ENCODING 188
SWIDTH 600 0
DWIDTH 10 0
BBX 10 18 0 -3
BITMAP
0000
1880
2D00
4600
0000
1D80
3380
3180
6180
6180
6180
6180
6380
3580
19C0
0000
0000
0000
ENDCHAR
STARTCHAR 00BD
ENCODING 189
SWIDTH 600 0
DWIDTH 10 0
BBX 10 18 0 -3
BITMAP
0000
1880
2D00
4600
0000
7B80
CEC0
CC40
CC40
CFC0
CC00
CC00
CC00
CE40
7B80
0000
0000
0000
ENDCHAR
STARTCHAR 00BE
ENCODING 190
SWIDTH 600 0
DWIDTH 10 0
BBX 10 18 0 -3
BITMAP
0000
1880
2D00
4600
0000
1E00
2300
6180
0180
0180
0180
0180
4180
2300
1E00
0000
0000
0000
ENDCHAR
STARTCHAR 00C0
ENCODING 192
SWIDTH 600 0
DWIDTH 10 0
BBX 10 18 0 -3
BITMAP
0000
0000
0000
0000
0000
EE00
7300
6180
6180
6180
6180
6180
7300
6E00
6000
6000
6000
F000
ENDCHAR
STARTCHAR 00C1
ENCODING 193
SWIDTH 600 0
DWIDTH 10 0
BBX 10 18 0 -3
BITMAP
0000
E000
6000
6000
6000
6E00
7300
6180
6180
6180
6180
6180
6180
7300
5E00
0000
0000
0000
ENDCHAR
STARTCHAR 00C2
ENCODING 194
SWIDTH 600 0
DWIDTH 10 0
BBX 10 18 0 -3
BITMAP
0000
0800
0800
1800
1800
7F00
1800
1800
1800
1800
1800
1800
1880
1C80
0F00
0000
0000
0000
ENDCHAR
STARTCHAR 00C3
ENCODING 195
SWIDTH 600 0
DWIDTH 10 0
BBX 10 18 0 -3
BITMAP
0000
0380
0180
0180
0180
1D80
3380
6180
6180
6180
6180
6180
6180
3380
1DC0
0000
0000
0000
ENDCHAR
STARTCHAR 00C4
ENCODING 196
SWIDTH 600 0
DWIDTH 10 0
BBX 10 18 0 -3
BITMAP
0000
E000
6000
6000
6000
6780
6200
6400
6800
7800
6C00
6600
6600
6300
F780
0000
0000
0000
ENDCHAR
STARTCHAR 00C5
ENCODING 197
SWIDTH 600 0
DWIDTH 10 0
BBX 10 18 0 -3
BITMAP
0000
0000
0000
0000
0000
1EC0
3180
6180
6180
6180
6180
3380
1D80
0180
6180
6180
2300
1E00
ENDCHAR
STARTCHAR 00C6
ENCODING 198
SWIDTH 600 0
DWIDTH 10 0
BBX 10 18 0 -3
BITMAP
0000
0F00
1980
1980
1800
7F00
1800
1800
1800
1800
1800
1800
1800
1800
7E00
0000
0000
0000
ENDCHAR
STARTCHAR 00C7
ENCODING 199
SWIDTH 600 0
DWIDTH 10 0
BBX 10 18 0 -3
BITMAP
0000
0000
0000
0000
0000
F3C0
6080
6080
3100
3100
3100
1A00
1A00
0C00
0C00
0000
0000
0000
ENDCHAR
STARTCHAR 00C8
ENCODING 200
SWIDTH 600 0
DWIDTH 10 0
BBX 10 18 0 -3
BITMAP
0000
1E00
3300
6180
6180
6180
6180
7F80
6180
6180
6180
6180
6180
3300
1E00
0000
0000
0000
ENDCHAR
STARTCHAR 00C9
ENCODING 201
SWIDTH 600 0
DWIDTH 10 0
BBX 10 18 0 -3
BITMAP
4300
3600
1C00
3400
6600
0300
1F00
3380
6180
6180
6180
6180
6180
3300
1E00
0000
0000
0000
ENDCHAR
STARTCHAR 00CA
ENCODING 202
SWIDTH 600 0
DWIDTH 10 0
BBX 10 18 0 -3
BITMAP
0000
0000
0000
0000
0000
3E80
6380
6180
7000
3C00
0F00
4380
6180
7180
5F00
0000
0000
0000
ENDCHAR
STARTCHAR 00CB
ENCODING 203
SWIDTH 600 0
DWIDTH 10 0
BBX 10 18 0 -3
BITMAP
0000
0000
0000
0000
0000
7F80
6300
4600
0600
0C00
0C00
1800
3080
3180
7F80
0000
0000
0000
ENDCHAR
STARTCHAR 00CC
ENCODING 204
SWIDTH 600 0
DWIDTH 10 0
BBX 10 18 0 -3
BITMAP
0380
0580
0400
0C00
0C00
0C00
0C00
0C00
0C00
0C00
0C00
0C00
0C00
0C00
0C00
0800
6800
7000
ENDCHAR
STARTCHAR 00CD
ENCODING 205
SWIDTH 600 0
DWIDTH 10 0
BBX 10 18 0 -3
BITMAP
0000
0000
0000
0000
0000
7F80
6300
4600
0C00
1800
3600
6100
0180
0180
6180
6180
4300
3E00
ENDCHAR
STARTCHAR 00CE
ENCODING 206
SWIDTH 600 0
DWIDTH 10 0
BBX 10 18 0 -3
BITMAP
0000
0000
0000
0000
0000
1E00
3100
6180
6000
6000
6000
6080
3100
1E00
0800
0E00
0300
0C00
ENDCHAR
STARTCHAR 00CF
ENCODING 207
SWIDTH 600 0
DWIDTH 10 0
BBX 10 18 0 -3
BITMAP
0000
0000
0000
0000
0000
F780
6300
3200
3400
1800
0C00
1600
2600
6300
F780
0000
0000
0000
ENDCHAR
STARTCHAR 00D0
ENCODING 208
SWIDTH 600 0
DWIDTH 10 0
BBX 10 18 0 -3
BITMAP
0000
0000
0000
0000
0000
F780
6100
6200
6200
6400
7F00
6180
6180
6180
FF00
0000
0000
0000
ENDCHAR
STARTCHAR 00D1
ENCODING 209
SWIDTH 600 0
DWIDTH 10 0
BBX 10 18 0 -3
BITMAP
0000
E000
6000
6000
6000
6F00
7180
6180
6180
6180
6180
6180
6180
6180
F3C0
0000
0000
0000
ENDCHAR
STARTCHAR 00D2
ENCODING 210
SWIDTH 600 0
DWIDTH 10 0
BBX 10 18 0 -3
BITMAP
0000
0000
0000
0000
0000
DB00
6D80
6D80
6D80
6D80
6D80
6D80
6D80
6D80
EDC0
0000
0000
0000
ENDCHAR
STARTCHAR 00D3
ENCODING 211
SWIDTH 600 0
DWIDTH 10 0
BBX 10 18 0 -3
BITMAP
0000
0000
0000
0000
0000
EF00
7180
6180
6180
6180
6180
6180
6180
6180
F3C0
0000
0000
0000
ENDCHAR
STARTCHAR 00D4
ENCODING 212
SWIDTH 600 0
DWIDTH 10 0
BBX 10 18 0 -3
BITMAP
0000
0000
0000
0000
0000
7700
3980
3180
3180
3180
3180
3180
3180
3180
33C0
3000
F000
E000
ENDCHAR
STARTCHAR 00D5
ENCODING 213
SWIDTH 600 0
DWIDTH 10 0
BBX 10 18 0 -3
BITMAP
0000
0000
0000
0000
0000
EE00
7300
6180
6180
6180
6180
6180
6180
F180
0180
3100
3300
1E00
ENDCHAR
STARTCHAR 00D6
ENCODING 214
SWIDTH 600 0
DWIDTH 10 0
BBX 10 18 0 -3
BITMAP
0000
0000
0000
0000
0000
7700
3980
3180
3000
3000
3000
3000
3000
3000
7C00
0000
0000
0000
ENDCHAR
STARTCHAR 00D7
ENCODING 215
SWIDTH 1200 0
DWIDTH 20 0
BBX 10 10 5 2
BITMAP
8040
4080
2100
1200
0C00
0C00
1200
2100
4080
8040
ENDCHAR
STARTCHAR 00D8
ENCODING 216
SWIDTH 600 0
DWIDTH 10 0
BBX 8 10 1 0
BITMAP
1F
06
06
06
06
06
06
C6
CE
77
ENDCHAR
STARTCHAR 00D9
ENCODING 217
SWIDTH 600 0
DWIDTH 10 0
BBX 8 17 1 -3
BITMAP
03
03
00
00
1F
03
03
03
03
03
03
03
03
03
C3
C6
7C
ENDCHAR
STARTCHAR 00DA
ENCODING 218
SWIDTH 600 0
DWIDTH 10 0
BBX 8 14 1 0
BITMAP
78
18
18
18
18
18
18
18
18
18
18
18
18
FF
ENDCHAR
STARTCHAR 00DB
ENCODING 219
SWIDTH 600 0
DWIDTH 10 0
BBX 9 13 1 0
BITMAP
0700
0980
0980
1000
1800
1800
2C00
2C00
2600
2600
4300
4300
E780
ENDCHAR
STARTCHAR 00DC
ENCODING 220
SWIDTH 600 0
DWIDTH 10 0
BBX 9 10 0 0
BITMAP
F800
6000
6000
6000
6000
6000
6080
6080
6180
FF80
ENDCHAR
STARTCHAR 00DD
ENCODING 221
SWIDTH 600 0
DWIDTH 10 0
BBX 10 13 0 -3
BITMAP
F3C0
6180
6180
6180
6180
6180
6180
6380
3D80
0180
0180
0180
0380
ENDCHAR
STARTCHAR 00DE
ENCODING 222
SWIDTH 600 0
DWIDTH 10 0
BBX 10 10 0 0
BITMAP
F3C0
6080
6480
6480
6480
6E80
6A80
7B80
3100
3100
ENDCHAR
STARTCHAR 00DF
ENCODING 223
SWIDTH 600 0
DWIDTH 10 0
BBX 10 10 0 0
BITMAP
2300
2300
7700
5500
5D80
4980
4980
4980
4180
F3C0
ENDCHAR
STARTCHAR 00F0
ENCODING 240
SWIDTH 600 0
DWIDTH 10 0
BBX 2 4 4 9
BITMAP
C0
C0
C0
C0
ENDCHAR
STARTCHAR 00F1
ENCODING 241
SWIDTH 600 0
DWIDTH 10 0
BBX 2 4 4 -3
BITMAP
C0
C0
C0
C0
ENDCHAR
STARTCHAR 00F2
ENCODING 242
SWIDTH 600 0
DWIDTH 10 0
BBX 5 12 2 -1
BITMAP
F8
70
70
20
00
00
00
00
20
70
70
F8
ENDCHAR
STARTCHAR 00F7
ENCODING 247
SWIDTH 1200 0
DWIDTH 20 0
BBX 20 20 0 -3
BITMAP
000000
000000
000000
000000
006000
006000
000000
000000
000000
1FFF80
000000
000000
000000
006000
006000
000000
000000
000000
000000
000000
ENDCHAR
STARTCHAR 0391
ENCODING 913
SWIDTH 1200 0
DWIDTH 20 0
BBX 20 20 0 -3
BITMAP
000000
000000
004000
006000
00E000
00B000
00B000
013000
011800
011800
020800
03FC00
020C00
040C00
040600
080600
0C0700
3E1FC0
000000
000000
ENDCHAR
STARTCHAR 0392
ENCODING 914
SWIDTH 1200 0
DWIDTH 20 0
BBX 20 20 0 -3
BITMAP
000000
000000
1FF800
060600
060300
060300
060300
060300
060600
07FC00
060C00
060300
060300
060300
060300
060300
060600
1FF800
000000
000000
ENDCHAR
STARTCHAR 0393
ENCODING 915
SWIDTH 1200 0
DWIDTH 20 0
BBX 20 20 0 -3
BITMAP
000000
000000
0FFF80
030180
030080
030080
030000
030000
030000
030000
030000
030000
030000
030000
030000
030000
030000
0FC000
000000
000000
ENDCHAR
STARTCHAR 0394
ENCODING 916
SWIDTH 1200 0
DWIDTH 20 0
BBX 20 20 0 -3
BITMAP
000000
000000
004000
006000
00E000
00B000
013000
011800
011800
020800
020C00
040C00
040600
080600
080300
100300
1FFF80
3FFF80
000000
000000
ENDCHAR
STARTCHAR 0395
ENCODING 917
SWIDTH 1200 0
DWIDTH 20 0
BBX 20 20 0 -3
BITMAP
000000
000000
1FFF00
060300
060100
060100
061000
061000
063000
07F000
063000
061000
061000
060000
060100
060100
060300
1FFF00
000000
000000
ENDCHAR
STARTCHAR 0396
ENCODING 918
SWIDTH 1200 0
DWIDTH 20 0
BBX 20 20 0 -3
BITMAP
000000
000000
0FFF00
0C0600
080C00
081800
001800
003000
006000
004000
00C000
00C000
018000
030000
030100
060100
0C0300
1FFF00
000000
000000
ENDCHAR
STARTCHAR 0397
ENCODING 919
SWIDTH 1200 0
DWIDTH 20 0
BBX 20 20 0 -3
BITMAP
000000
000000
3F1F80
0C0600
0C0600
0C0600
0C0600
0C0600
0C0600
0FFE00
0C0600
0C0600
0C0600
0C0600
0C0600
0C0600
0C0600
3F1F80
000000
000000
ENDCHAR
STARTCHAR 0398
ENCODING 920
SWIDTH 1200 0
DWIDTH 20 0
BBX 20 20 0 -3
BITMAP
000000
000000
01F000
060C00
0C0600
180300
180300
320980
320980
33F980
33F980
320980
320980
180300
180300
0C0600
060C00
01F000
000000
000000
ENDCHAR
STARTCHAR 0399
ENCODING 921
SWIDTH 1200 0
DWIDTH 20 0
BBX 20 20 0 -3
BITMAP
000000
000000
03FC00
006000
006000
006000
006000
006000
006000
006000
006000
006000
006000
006000
006000
006000
006000
03FC00
000000
000000
ENDCHAR
STARTCHAR 039A
ENCODING 922
SWIDTH 1200 0
DWIDTH 20 0
BBX 20 20 0 -3
BITMAP
000000
000000
1F9F80
060400
060800
061000
062000
064000
068000
07C000
066000
063000
061800
061800
060C00
060600
060300
1F8FC0
000000
000000
ENDCHAR
STARTCHAR 039B
ENCODING 923
SWIDTH 1200 0
DWIDTH 20 0
BBX 20 20 0 -3
BITMAP
000000
000000
004000
006000
00E000
00B000
00B000
013000
011800
021800
020C00
020C00
040C00
040600
080600
080700
0C0300
3E1FC0
000000
000000
ENDCHAR
STARTCHAR 039C
ENCODING 924
SWIDTH 1200 0
DWIDTH 20 0
BBX 20 20 0 -3
BITMAP
000000
000000
7803E0
180380
1C0380
1C0580
160580
160980
130980
131180
119180
11A180
10E180
10E180
104180
104180
100180
7C07E0
000000
000000
ENDCHAR
STARTCHAR 039D
ENCODING 925
SWIDTH 1200 0
DWIDTH 20 0
BBX 20 20 0 -3
BITMAP
000000
000000
3E0F80
0F0200
0B0200
098200
09C200
08C200
086200
086200
083200
083A00
081A00
080E00
080E00
080600
080200
3E0200
000000
000000
ENDCHAR
STARTCHAR 039E
ENCODING 926
SWIDTH 1200 0
DWIDTH 20 0
BBX 20 20 0 -3
BITMAP
000000
000000
0FFF80
0FFF80
0C0180
080080
080080
010400
010400
01FC00
01FC00
010400
010400
080080
080080
0C0180
0FFF80
0FFF80
000000
000000
ENDCHAR
STARTCHAR 039F
ENCODING 927
SWIDTH 1200 0
DWIDTH 20 0
BBX 20 20 0 -3
BITMAP
000000
000000
01F000
060C00
0C0600
180300
180300
300180
300180
300180
300180
300180
300180
180300
180300
0C0600
060C00
01F000
000000
000000
ENDCHAR
STARTCHAR 03A0
ENCODING 928
SWIDTH 1200 0
DWIDTH 20 0
BBX 20 20 0 -3
BITMAP
000000
000000
1FFF80
060600
060600
060600
060600
060600
060600
060600
060600
060600
060600
060600
060600
060600
060600
1F9F80
000000
000000
ENDCHAR
STARTCHAR 03A1
ENCODING 929
SWIDTH 1200 0
DWIDTH 20 0
BBX 20 20 0 -3
BITMAP
000000
000000
0FFE00
030300
030180
030180
030180
030180
030300
03FE00
030000
030000
030000
030000
030000
030000
030000
0FC000
000000
000000
ENDCHAR
STARTCHAR 03A3
ENCODING 931
SWIDTH 1200 0
DWIDTH 20 0
BBX 20 20 0 -3
BITMAP
000000
000000
1FFF00
0C0300
060100
030100
018000
00C000
006000
003000
004000
008000
010000
020100
040100
080300
1FFF00
1FFF00
000000
000000
ENDCHAR
STARTCHAR 03A4
ENCODING 932
SWIDTH 1200 0
DWIDTH 20 0
BBX 20 20 0 -3
BITMAP
000000
000000
1FFF80
186180
106080
106080
006000
006000
006000
006000
006000
006000
006000
006000
006000
006000
006000
01F800
000000
000000
ENDCHAR
STARTCHAR 03A5
ENCODING 933
SWIDTH 1200 0
DWIDTH 20 0
BBX 20 20 0 -3
BITMAP
000000
000000
030C00
0F9F00
186180
106080
206040
206040
006000
006000
006000
006000
006000
006000
006000
006000
006000
01F800
000000
000000
ENDCHAR
STARTCHAR 03A6
ENCODING 934
SWIDTH 1200 0
DWIDTH 20 0
BBX 20 20 0 -3
BITMAP
000000
000000
01F800
006000
006000
03FC00
0C6300
186180
3060C0
3060C0
3060C0
3060C0
186180
0C6300
03FC00
006000
006000
01F800
000000
000000
ENDCHAR
STARTCHAR 03A7
ENCODING 935
SWIDTH 1200 0
DWIDTH 20 0
BBX 20 20 0 -3
BITMAP
000000
000000
3F0F80
0E0600
060400
030800
019000
019000
00E000
006000
00B000
00B000
011800
020C00
020C00
040600
0C0700
3F0FC0
000000
000000
ENDCHAR
STARTCHAR 03A8
ENCODING 936
SWIDTH 1200 0
DWIDTH 20 0
BBX 20 20 0 -3
BITMAP
000000
000000
01F800
3861C0
4C6320
046200
066600
066600
066600
066600
026400
036C00
01F800
006000
006000
006000
006000
01F800
000000
000000
ENDCHAR
STARTCHAR 03A9
ENCODING 937
SWIDTH 1200 0
DWIDTH 20 0
BBX 20 20 0 -3
BITMAP
000000
000000
01F800
060600
0C0300
080100
180180
180180
180180
080100
0C0300
040200
020400
110880
109080
189180
1F9F80
1F9F80
000000
000000
ENDCHAR
STARTCHAR 03B1
ENCODING 945
SWIDTH 1200 0
DWIDTH 20 0
BBX 20 20 0 -3
BITMAP
000000
000000
000000
000000
000000
000000
000000
00E300
011300
021600
041400
041C00
0C1800
0C1800
0C2900
064E00
038600
000000
000000
000000
ENDCHAR
STARTCHAR 03B2
ENCODING 946
SWIDTH 1200 0
DWIDTH 20 0
BBX 20 20 0 -3
BITMAP
000000
001C00
002200
004100
00C100
018300
010300
033600
033800
060400
060600
040600
0C0600
0C0600
0D0C00
089800
187000
180000
180000
180000
ENDCHAR
STARTCHAR 03B3
ENCODING 947
SWIDTH 1200 0
DWIDTH 20 0
BBX 20 20 0 -3
BITMAP
000000
000000
000000
000000
000000
000000
000000
000000
078300
0C4600
184C00
005800
007000
006000
00C000
00C000
008000
018000
018000
018000
ENDCHAR
STARTCHAR 03B4
ENCODING 948
SWIDTH 1200 0
DWIDTH 20 0
BBX 20 20 0 -3
BITMAP
000000
00F000
019C00
010600
008700
004300
002000
003000
01D800
030800
060C00
0C0C00
0C0C00
0C1800
0C1800
043000
03C000
000000
000000
000000
ENDCHAR
STARTCHAR 03B5
ENCODING 949
SWIDTH 1200 0
DWIDTH 20 0
BBX 20 20 0 -3
BITMAP
000000
000000
000000
000000
000000
000000
000000
00FC00
018600
030000
018000
00F800
030000
060000
060000
030E00
00F800
000000
000000
000000
ENDCHAR
STARTCHAR 03B6
ENCODING 950
SWIDTH 1200 0
DWIDTH 20 0
BBX 20 20 0 -3
BITMAP
000000
010000
020200
060600
060C00
01F800
003000
006000
00C000
018000
030000
060000
060000
070000
03C000
007000
001800
001800
001800
00F000
ENDCHAR
STARTCHAR 03B7
ENCODING 951
SWIDTH 1200 0
DWIDTH 20 0
BBX 20 20 0 -3
BITMAP
000000
000000
000000
000000
000000
000000
000000
071C00
08A200
00C300
018300
018200
030600
030400
060C00
0C0800
0C1800
001800
003000
003000
ENDCHAR
STARTCHAR 03B8
ENCODING 952
SWIDTH 1200 0
DWIDTH 20 0
BBX 20 20 0 -3
BITMAP
000000
001E00
006100
00C180
018180
018180
030180
030300
07FF00
060300
060600
0C0600
0C0C00
0C0C00
0C1800
063000
03C000
000000
000000
000000
ENDCHAR
STARTCHAR 03B9
ENCODING 953
SWIDTH 1200 0
DWIDTH 20 0
BBX 20 20 0 -3
BITMAP
000000
000000
000000
000000
000000
000000
000000
008000
018000
018000
030000
030000
060200
060400
061800
03F000
01C000
000000
000000
000000
ENDCHAR
STARTCHAR 03BA
ENCODING 954
SWIDTH 1200 0
DWIDTH 20 0
BBX 20 20 0 -3
BITMAP
000000
000000
000000
000000
000000
000000
000000
030C00
031E00
033200
024000
03C000
064000
064000
046200
0C3C00
0C1800
000000
000000
000000
ENDCHAR
STARTCHAR 03BB
ENCODING 955
SWIDTH 1200 0
DWIDTH 20 0
BBX 20 20 0 -3
BITMAP
000000
006000
003000
001000
001000
001000
001000
003000
005800
00D800
009800
010800
030C00
020C00
060600
0C0700
0C0300
000000
000000
000000
ENDCHAR
STARTCHAR 03BC
ENCODING 956
SWIDTH 1200 0
DWIDTH 20 0
BBX 20 20 0 -3
BITMAP
000000
000000
000000
000000
000000
000000
000000
030400
030400
020C00
020800
060800
041800
041000
0E3080
0BEF00
09C600
180000
180000
100000
ENDCHAR
STARTCHAR 03BD
ENCODING 957
SWIDTH 1200 0
DWIDTH 20 0
BBX 20 20 0 -3
BITMAP
000000
000000
000000
000000
000000
000000
000000
060100
020100
030200
030600
020C00
021800
043000
04E000
0F8000
060000
000000
000000
000000
ENDCHAR
STARTCHAR 03BE
ENCODING 958
SWIDTH 1200 0
DWIDTH 20 0
BBX 20 20 0 -3
BITMAP
000000
001E00
003000
006000
003000
00FE00
018000
030000
030000
018000
07FE00
0C0000
0C0000
0E0000
07C000
007800
000C00
000C00
003800
07E000
ENDCHAR
STARTCHAR 03BF
ENCODING 959
SWIDTH 1200 0
DWIDTH 20 0
BBX 20 20 0 -3
BITMAP
000000
000000
000000
000000
000000
000000
000000
007800
018400
030200
020200
060600
060600
040400
040C00
021800
01E000
000000
000000
000000
ENDCHAR
STARTCHAR 03C0
ENCODING 960
SWIDTH 1200 0
DWIDTH 20 0
BBX 20 20 0 -3
BITMAP
000000
000000
000000
000000
000000
000000
000100
07FE00
088800
019800
011000
033000
023000
062000
042100
0C3E00
0C1C00
000000
000000
000000
ENDCHAR
STARTCHAR 03C1
ENCODING 961
SWIDTH 1200 0
DWIDTH 20 0
BBX 20 20 0 -3
BITMAP
000000
000000
000000
000000
000000
000000
000000
003800
00C600
018300
010300
030300
020300
020600
060600
068C00
047000
0C0000
0C0000
0C0000
ENDCHAR
STARTCHAR 03C3
ENCODING 963
SWIDTH 1200 0
DWIDTH 20 0
BBX 20 20 0 -3
BITMAP
000000
000000
000000
000000
000000
000100
000180
007F00
018800
030400
020600
060600
060600
060C00
060C00
021000
01E000
000000
000000
000000
ENDCHAR
STARTCHAR 03C4
ENCODING 964
SWIDTH 1200 0
DWIDTH 20 0
BBX 20 20 0 -3
BITMAP
000000
000000
000000
000000
000000
000000
000100
07FE00
084000
00C000
008000
018000
018000
030400
030800
01F000
00E000
000000
000000
000000
ENDCHAR
STARTCHAR 03C5
ENCODING 965
SWIDTH 1200 0
DWIDTH 20 0
BBX 20 20 0 -3
BITMAP
000000
000000
000000
000000
000000
000000
000000
060400
030200
030200
030200
060600
060400
040C00
043800
03F000
01C000
000000
000000
000000
ENDCHAR
STARTCHAR 03C6
ENCODING 966
SWIDTH 1200 0
DWIDTH 20 0
BBX 20 20 0 -3
BITMAP
000000
000C00
000C00
000800
000800
001800
001000
01FC00
072200
062300
0C6300
0C6300
0C4600
044E00
03F800
008000
008000
018000
018000
018000
ENDCHAR
STARTCHAR 03C7
ENCODING 967
SWIDTH 1200 0
DWIDTH 20 0
BBX 20 20 0 -3
BITMAP
000000
000000
000000
000000
000000
000000
000000
038300
044600
004C00
005800
005000
006000
00E000
00C000
014000
034000
064000
0C2200
181C00
ENDCHAR
STARTCHAR 03C8
ENCODING 968
SWIDTH 1200 0
DWIDTH 20 0
BBX 20 20 0 -3
BITMAP
000000
000600
000400
000C00
000C00
000800
001800
061100
0B1100
033100
032300
022200
066600
044400
025800
01F000
008000
008000
018000
018000
ENDCHAR
STARTCHAR 03C9
ENCODING 969
SWIDTH 1200 0
DWIDTH 20 0
BBX 20 20 0 -3
BITMAP
000000
000000
000000
000000
000000
000000
000000
030100
042080
082080
0860C0
1060C0
104080
104080
10E100
0F3E00
061C00
000000
000000
000000
ENDCHAR
STARTCHAR 0401
ENCODING 1025
SWIDTH 1200 0
DWIDTH 20 0
BBX 20 20 0 -3
BITMAP
030C00
030C00
000000
1FFF00
060300
060180
060080
061000
061000
063000
07F000
063000
061000
061000
060080
060180
060300
1FFF00
000000
000000
ENDCHAR
STARTCHAR 0410
ENCODING 1040
SWIDTH 1200 0
DWIDTH 20 0
BBX 20 20 0 -3
BITMAP
000000
000000
004000
006000
00E000
00B000
00B000
013000
011800
021800
020C00
03FC00
040C00
040600
040600
080600
0C0700
3E1FC0
000000
000000
ENDCHAR
STARTCHAR 0411
ENCODING 1041
SWIDTH 1200 0
DWIDTH 20 0
BBX 20 20 0 -3
BITMAP
000000
000000
1FFE00
060600
060200
060200
060000
060000
060000
07F800
060600
060300
060300
060300
060300
060300
060600
1FF800
000000
000000
ENDCHAR
STARTCHAR 0412
ENCODING 1042
SWIDTH 1200 0
DWIDTH 20 0
BBX 20 20 0 -3
BITMAP
000000
000000
1FF000
060C00
060600
060600
060600
060400
060800
07F800
060600
060300
060300
060300
060300
060300
060600
1FF800
000000
000000
ENDCHAR
STARTCHAR 0413
ENCODING 1043
SWIDTH 1200 0
DWIDTH 20 0
BBX 20 20 0 -3
BITMAP
000000
000000
0FFF00
030300
030180
030080
030000
030000
030000
030000
030000
030000
030000
030000
030000
030000
030000
0FC000
000000
000000
ENDCHAR
STARTCHAR 0414
ENCODING 1044
SWIDTH 1200 0
DWIDTH 20 0
BBX 20 20 0 -3
BITMAP
000000
000000
07FF80
008600
008600
008600
008600
008600
010600
010600
010600
020600
020600
020600
040600
040600
080600
3FFF80
200080
200080
ENDCHAR
STARTCHAR 0415
ENCODING 1045
SWIDTH 1200 0
DWIDTH 20 0
BBX 20 20 0 -3
BITMAP
000000
000000
1FFF00
060300
060180
060080
061000
061000
063000
07F000
063000
061000
061000
060080
060080
060180
060300
1FFF00
000000
000000
ENDCHAR
STARTCHAR 0416
ENCODING 1046
SWIDTH 1200 0
DWIDTH 20 0
BBX 20 20 0 -3
BITMAP
000000
000000
31F8C0
686160
686160
046200
046200
046200
026400
01F800
036C00
036C00
066600
066600
0C6300
1C6300
186180
7DFBE0
000000
000000
ENDCHAR
STARTCHAR 0417
ENCODING 1047
SWIDTH 1200 0
DWIDTH 20 0
BBX 20 20 0 -3
BITMAP
000000
000000
03F800
060E00
080600
080300
000300
000600
000E00
01F800
000E00
000600
000300
000300
080300
080600
060E00
03F800
000000
000000
ENDCHAR
STARTCHAR 0418
ENCODING 1048
SWIDTH 1200 0
DWIDTH 20 0
BBX 20 20 0 -3
BITMAP
000000
000000
3E0FC0
0C0300
0C0700
0C0B00
0C0B00
0C1300
0C2300
0C2300
0C4300
0C4300
0C8300
0D0300
0D0300
0E0300
0C0300
3F0FC0
000000
000000
ENDCHAR
STARTCHAR 0419
ENCODING 1049
SWIDTH 1200 0
DWIDTH 20 0
BBX 20 20 0 -3
BITMAP
019800
019800
00F000
3E0FC0
0C0300
0C0700
0C0B00
0C1300
0C1300
0C2300
0C2300
0C4300
0C8300
0C8300
0D0300
0E0300
0C0300
3F0FC0
000000
000000
ENDCHAR
STARTCHAR 041A
ENCODING 1050
SWIDTH 1200 0
DWIDTH 20 0
BBX 20 20 0 -3
BITMAP
000000
000000
1F8300
060780
060980
061000
061000
062000
064000
07C000
066000
063000
061800
061800
060C00
060600
060300
1F8FC0
000000
000000
ENDCHAR
STARTCHAR 041B
ENCODING 1051
SWIDTH 1200 0
DWIDTH 20 0
BBX 20 20 0 -3
BITMAP
000000
000000
03FF80
008600
008600
008600
008600
008600
008600
008600
010600
010600
010600
010600
020600
320600
340600
181F80
000000
000000
ENDCHAR
STARTCHAR 041C
ENCODING 1052
SWIDTH 1200 0
DWIDTH 20 0
BBX 20 20 0 -3
BITMAP
000000
000000
7803E0
180380
1C0380
1C0580
160580
160980
130980
131180
119180
21A0C0
20E0C0
20E0C0
2040C0
2040C0
3000C0
F803F0
000000
000000
ENDCHAR
STARTCHAR 041D
ENCODING 1053
SWIDTH 1200 0
DWIDTH 20 0
BBX 20 20 0 -3
BITMAP
000000
000000
3F0FC0
0C0300
0C0300
0C0300
0C0300
0C0300
0C0300
0FFF00
0C0300
0C0300
0C0300
0C0300
0C0300
0C0300
0C0300
3F0FC0
000000
000000
ENDCHAR
STARTCHAR 041E
ENCODING 1054
SWIDTH 1200 0
DWIDTH 20 0
BBX 20 20 0 -3
BITMAP
000000
000000
01F800
060600
0C0300
180180
180180
3000C0
3000C0
3000C0
3000C0
3000C0
3000C0
180180
180180
0C0300
060600
01F800
000000
000000
ENDCHAR
STARTCHAR 041F
ENCODING 1055
SWIDTH 1200 0
DWIDTH 20 0
BBX 20 20 0 -3
BITMAP
000000
000000
3FFF80
0C0600
0C0600
0C0600
0C0600
0C0600
0C0600
0C0600
0C0600
0C0600
0C0600
0C0600
0C0600
0C0600
0C0600
3F1F80
000000
000000
ENDCHAR
STARTCHAR 0420
ENCODING 1056
SWIDTH 1200 0
DWIDTH 20 0
BBX 20 20 0 -3
BITMAP
000000
000000
1FF800
060600
060300
060300
060300
060300
060600
07F800
060000
060000
060000
060000
060000
060000
060000
1F8000
000000
000000
ENDCHAR
STARTCHAR 0421
ENCODING 1057
SWIDTH 1200 0
DWIDTH 20 0
BBX 20 20 0 -3
BITMAP
000000
000000
00FC00
030700
060300
0C0180
0C0080
180000
180000
180000
180000
180000
180000
0C0000
0C0080
060100
030600
00F800
000000
000000
ENDCHAR
STARTCHAR 0422
ENCODING 1058
SWIDTH 1200 0
DWIDTH 20 0
BBX 20 20 0 -3
BITMAP
000000
000000
1FFF80
186180
106080
106080
006000
006000
006000
006000
006000
006000
006000
006000
006000
006000
006000
01F800
000000
000000
ENDCHAR
STARTCHAR 0423
ENCODING 1059
SWIDTH 1200 0
DWIDTH 20 0
BBX 20 20 0 -3
BITMAP
000000
000000
1F8FC0
0E0100
060100
030200
030200
018400
00C400
00C800
006800
007000
003000
002000
082000
1C4000
188000
0F0000
000000
000000
ENDCHAR
STARTCHAR 0424
ENCODING 1060
SWIDTH 1200 0
DWIDTH 20 0
BBX 20 20 0 -3
BITMAP
000000
000000
01F800
006000
006000
03FC00
0C6300
186180
3060C0
3060C0
3060C0
3060C0
186180
0C6300
03FC00
006000
006000
01F800
000000
000000
ENDCHAR
STARTCHAR 0425
ENCODING 1061
SWIDTH 1200 0
DWIDTH 20 0
BBX 20 20 0 -3
BITMAP
000000
000000
1F87C0
070300
030200
018400
018400
00C800
005000
007000
003000
005800
009800
008C00
010600
020600
060300
1F8FC0
000000
000000
ENDCHAR
STARTCHAR 0426
ENCODING 1062
SWIDTH 1200 0
DWIDTH 20 0
BBX 20 20 0 -3
BITMAP
000000
000000
3F1F80
0C0600
0C0600
0C0600
0C0600
0C0600
0C0600
0C0600
0C0600
0C0600
0C0600
0C0600
0C0600
0C0600
0C0600
3FFF80
000080
000080
ENDCHAR
STARTCHAR 0427
ENCODING 1063
SWIDTH 1200 0
DWIDTH 20 0
BBX 20 20 0 -3
BITMAP
000000
000000
1F8FC0
060300
060300
060300
060300
060300
060300
060300
060700
030B00
00F300
000300
000300
000300
000300
000FC0
000000
000000
ENDCHAR
STARTCHAR 0428
ENCODING 1064
SWIDTH 1200 0
DWIDTH 20 0
BBX 20 20 0 -3
BITMAP
000000
000000
FDFBF0
3060C0
3060C0
3060C0
3060C0
3060C0
3060C0
3060C0
3060C0
3060C0
3060C0
3060C0
3060C0
3060C0
3060C0
FFFFF0
000000
000000
ENDCHAR
STARTCHAR 0429
ENCODING 1065
SWIDTH 1200 0
DWIDTH 20 0
BBX 20 20 0 -3
BITMAP
000000
000000
FDFBF0
3060C0
3060C0
3060C0
3060C0
3060C0
3060C0
3060C0
3060C0
3060C0
3060C0
3060C0
3060C0
3060C0
3060C0
FFFFF0
000010
000010
ENDCHAR
STARTCHAR 042A
ENCODING 1066
SWIDTH 1200 0
DWIDTH 20 0
BBX 20 20 0 -3
BITMAP
000000
000000
3FC000
330000
230000
230000
030000
030000
030000
03FC00
030300
030180
030180
030180
030180
030180
030300
0FFC00
000000
000000
ENDCHAR
STARTCHAR 042B
ENCODING 1067
SWIDTH 1200 0
DWIDTH 20 0
BBX 20 20 0 -3
BITMAP
000000
000000
7E07E0
180180
180180
180180
180180
180180
180180
1FC180
183180
181980
181980
181980
181980
181180
183180
7FC7E0
000000
000000
ENDCHAR
STARTCHAR 042C
ENCODING 1068
SWIDTH 1200 0
DWIDTH 20 0
BBX 20 20 0 -3
BITMAP
000000
000000
1F8000
060000
060000
060000
060000
060000
060000
07F800
060600
060300
060300
060300
060300
060300
060600
1FF800
000000
000000
ENDCHAR
STARTCHAR 042D
ENCODING 1069
SWIDTH 1200 0
DWIDTH 20 0
BBX 20 20 0 -3
BITMAP
000000
000000
01F800
060E00
080300
000300
000180
000180
01E180
027380
001D80
000180
000180
000180
000300
080300
060E00
01F800
000000
000000
ENDCHAR
STARTCHAR 042E
ENCODING 1070
SWIDTH 1200 0
DWIDTH 20 0
BBX 20 20 0 -3
BITMAP
000000
000000
7E0F00
181980
1830C0
182040
186060
186060
186060
1FE060
186060
186060
186060
186060
182040
1830C0
181980
7E0F00
000000
000000
ENDCHAR
STARTCHAR 042F
ENCODING 1071
SWIDTH 1200 0
DWIDTH 20 0
BBX 20 20 0 -3
BITMAP
000000
000000
00FFC0
030300
060300
060300
060300
060300
030300
00FF00
006300
00C300
00C300
018300
010300
020300
040300
180FC0
000000
000000
ENDCHAR
STARTCHAR 0430
ENCODING 1072
SWIDTH 1200 0
DWIDTH 20 0
BBX 20 20 0 -3
BITMAP
000000
000000
000000
000000
000000
000000
000000
00F000
031800
070C00
020C00
003C00
01CC00
030C00
060C00
060C00
061D00
03E600
000000
000000
ENDCHAR
STARTCHAR 0431
ENCODING 1073
SWIDTH 1200 0
DWIDTH 20 0
BBX 20 20 0 -3
BITMAP
000000
000200
000C00
007000
018000
030000
020000
06F800
078C00
060400
060600
060600
060600
060600
060600
020400
030C00
00F000
000000
000000
ENDCHAR
STARTCHAR 0432
ENCODING 1074
SWIDTH 1200 0
DWIDTH 20 0
BBX 20 20 0 -3
BITMAP
000000
000000
000000
000000
000000
000000
000000
07F800
018400
018600
018600
018400
01F800
018600
018600
018600
018600
07FC00
000000
000000
ENDCHAR
STARTCHAR 0433
ENCODING 1075
SWIDTH 1200 0
DWIDTH 20 0
BBX 20 20 0 -3
BITMAP
000000
000000
000000
000000
000000
000000
000000
07FE00
018600
018200
018200
018000
018000
018000
018000
018000
018000
07E000
000000
000000
ENDCHAR
STARTCHAR 0434
ENCODING 1076
SWIDTH 1200 0
DWIDTH 20 0
BBX 20 20 0 -3
BITMAP
000000
000000
000000
000000
000000
000000
000000
03FF00
008C00
008C00
008C00
008C00
010C00
010C00
010C00
020C00
020C00
0FFF00
080100
080100
ENDCHAR
STARTCHAR 0435
ENCODING 1077
SWIDTH 1200 0
DWIDTH 20 0
BBX 20 20 0 -3
BITMAP
000000
000000
000000
000000
000000
000000
000000
00F800
038C00
030600
060600
07FE00
060000
060000
060000
030200
038400
00F800
000000
000000
ENDCHAR
STARTCHAR 0436
ENCODING 1078
SWIDTH 1200 0
DWIDTH 20 0
BBX 20 20 0 -3
BITMAP
000000
000000
000000
000000
000000
000000
000000
19F980
3C63C0
126480
026400
016800
01F800
036C00
066600
0C6300
186180
7DFBE0
000000
000000
ENDCHAR
STARTCHAR 0437
ENCODING 1079
SWIDTH 1200 0
DWIDTH 20 0
BBX 20 20 0 -3
BITMAP
000000
000000
000000
000000
000000
000000
000000
00F800
010C00
020600
000600
000C00
007800
000C00
000600
020600
010C00
00F800
000000
000000
ENDCHAR
STARTCHAR 0438
ENCODING 1080
SWIDTH 1200 0
DWIDTH 20 0
BBX 20 20 0 -3
BITMAP
000000
000000
000000
000000
000000
000000
000000
0FDF80
030600
030E00
031600
031600
032600
034600
034600
038600
030600
0FDF80
000000
000000
ENDCHAR
STARTCHAR 0439
ENCODING 1081
SWIDTH 1200 0
DWIDTH 20 0
BBX 20 20 0 -3
BITMAP
000000
000000
000000
01DC00
018C00
00F800
000000
0FCF80
030600
030E00
031600
031600
032600
034600
034600
038600
030600
0F9F80
000000
000000
ENDCHAR
STARTCHAR 043A
ENCODING 1082
SWIDTH 1200 0
DWIDTH 20 0
BBX 20 20 0 -3
BITMAP
000000
000000
000000
000000
000000
000000
000000
0FC600
030B00
031200
031000
032000
03C000
036000
033000
031800
030C00
0F9F00
000000
000000
ENDCHAR
STARTCHAR 043B
ENCODING 1083
SWIDTH 1200 0
DWIDTH 20 0
BBX 20 20 0 -3
BITMAP
000000
000000
000000
000000
000000
000000
000000
01FF00
004C00
004C00
004C00
004C00
004C00
008C00
008C00
048C00
0D0C00
063F00
000000
000000
ENDCHAR
STARTCHAR 043C
ENCODING 1084
SWIDTH 1200 0
DWIDTH 20 0
BBX 20 20 0 -3
BITMAP
000000
000000
000000
000000
000000
000000
000000
1F1F80
060600
060E00
070E00
051600
059600
08A300
08E300
084300
084300
3E0FC0
000000
000000
ENDCHAR
STARTCHAR 043D
ENCODING 1085
SWIDTH 1200 0
DWIDTH 20 0
BBX 20 20 0 -3
BITMAP
000000
000000
000000
000000
000000
000000
000000
1FBF00
060C00
060C00
060C00
060C00
07FC00
060C00
060C00
060C00
060C00
1FBF00
000000
000000
ENDCHAR
STARTCHAR 043E
ENCODING 1086
SWIDTH 1200 0
DWIDTH 20 0
BBX 20 20 0 -3
BITMAP
000000
000000
000000
000000
000000
000000
000000
00F000
039C00
030C00
060600
060600
060600
060600
060600
030C00
039C00
00F000
000000
000000
ENDCHAR
STARTCHAR 043F
ENCODING 1087
SWIDTH 1200 0
DWIDTH 20 0
BBX 20 20 0 -3
BITMAP
000000
000000
000000
000000
000000
000000
000000
1FFF00
060C00
060C00
060C00
060C00
060C00
060C00
060C00
060C00
060C00
1FBF00
000000
000000
ENDCHAR
STARTCHAR 0440
ENCODING 1088
SWIDTH 1200 0
DWIDTH 20 0
BBX 20 20 0 -3
BITMAP
000000
000000
000000
000000
000000
000000
000000
0F7800
038E00
030600
030300
030300
030300
030300
030600
038E00
037800
030000
030000
0FC000
ENDCHAR
STARTCHAR 0441
ENCODING 1089
SWIDTH 1200 0
DWIDTH 20 0
BBX 20 20 0 -3
BITMAP
000000
000000
000000
000000
000000
000000
000000
00F800
038C00
030E00
060400
060000
060000
060000
060000
030200
038400
00F800
000000
000000
ENDCHAR
STARTCHAR 0442
ENCODING 1090
SWIDTH 1200 0
DWIDTH 20 0
BBX 20 20 0 -3
BITMAP
000000
000000
000000
000000
000000
000000
000000
07FE00
066600
046200
046200
006000
006000
006000
006000
006000
006000
01F800
000000
000000
ENDCHAR
STARTCHAR 0443
ENCODING 1091
SWIDTH 1200 0
DWIDTH 20 0
BBX 20 20 0 -3
BITMAP
000000
000000
000000
000000
000000
000000
000000
0F8F00
030400
030400
018800
018800
00D000
00D000
006000
006000
004000
0C4000
0E8000
070000
ENDCHAR
STARTCHAR 0444
ENCODING 1092
SWIDTH 1200 0
DWIDTH 20 0
BBX 20 20 0 -3
BITMAP
000000
002000
00E000
006000
006000
006000
006000
076E00
0CF300
186180
186180
186180
186180
186180
0CF300
076E00
006000
006000
006000
01F800
ENDCHAR
STARTCHAR 0445
ENCODING 1093
SWIDTH 1200 0
DWIDTH 20 0
BBX 20 20 0 -3
BITMAP
000000
000000
000000
000000
000000
000000
000000
0F9F00
030400
018800
00D000
00E000
006000
007000
00B800
011800
020C00
0F9F00
000000
000000
ENDCHAR
STARTCHAR 0446
ENCODING 1094
SWIDTH 1200 0
DWIDTH 20 0
BBX 20 20 0 -3
BITMAP
000000
000000
000000
000000
000000
000000
000000
0FDF80
030600
030600
030600
030600
030600
030600
030600
030600
030600
0FFF80
000080
000080
ENDCHAR
STARTCHAR 0447
ENCODING 1095
SWIDTH 1200 0
DWIDTH 20 0
BBX 20 20 0 -3
BITMAP
000000
000000
000000
000000
000000
000000
000000
1FBF00
060C00
060C00
060C00
060C00
060C00
071C00
03EC00
000C00
000C00
003F00
000000
000000
ENDCHAR
STARTCHAR 0448
ENCODING 1096
SWIDTH 1200 0
DWIDTH 20 0
BBX 20 20 0 -3
BITMAP
000000
000000
000000
000000
000000
000000
000000
7EF7E0
186180
186180
186180
186180
186180
186180
186180
186180
186180
7FFFE0
000000
000000
ENDCHAR
STARTCHAR 0449
ENCODING 1097
SWIDTH 1200 0
DWIDTH 20 0
BBX 20 20 0 -3
BITMAP
000000
000000
000000
000000
000000
000000
000000
7EF7E0
186180
186180
186180
186180
186180
186180
186180
186180
186180
7FFFE0
000020
000020
ENDCHAR
STARTCHAR 044A
ENCODING 1098
SWIDTH 1200 0
DWIDTH 20 0
BBX 20 20 0 -3
BITMAP
000000
000000
000000
000000
000000
000000
000000
0FF000
0CC000
08C000
08C000
00C000
00FE00
00C300
00C180
00C180
00C300
01FE00
000000
000000
ENDCHAR
STARTCHAR 044B
ENCODING 1099
SWIDTH 1200 0
DWIDTH 20 0
BBX 20 20 0 -3
BITMAP
000000
000000
000000
000000
000000
000000
000000
3F0FC0
0C0300
0C0300
0C0300
0C0300
0FC300
0C6300
0C3300
0C3300
0C6300
3FCFC0
000000
000000
ENDCHAR
STARTCHAR 044C
ENCODING 1100
SWIDTH 1200 0
DWIDTH 20 0
BBX 20 20 0 -3
BITMAP
000000
000000
000000
000000
000000
000000
000000
0FC000
030000
030000
030000
030000
03F800
030C00
030600
030600
030C00
0FF800
000000
000000
ENDCHAR
STARTCHAR 044D
ENCODING 1101
SWIDTH 1200 0
DWIDTH 20 0
BBX 20 20 0 -3
BITMAP
000000
000000
000000
000000
000000
000000
000000
03F000
041C00
000C00
000600
00CE00
013600
000600
000600
000C00
041C00
03F000
000000
000000
ENDCHAR
STARTCHAR 044E
ENCODING 1102
SWIDTH 1200 0
DWIDTH 20 0
BBX 20 20 0 -3
BITMAP
000000
000000
000000
000000
000000
000000
000000
1F9E00
063300
062100
066180
066180
07E180
066180
066180
062100
063300
1F9E00
000000
000000
ENDCHAR
STARTCHAR 044F
ENCODING 1103
SWIDTH 1200 0
DWIDTH 20 0
BBX 20 20 0 -3
BITMAP
000000
000000
000000
000000
000000
000000
000000
01FF00
030C00
060C00
060C00
030C00
01FC00
00CC00
00CC00
018C00
030C00
0C3F00
000000
000000
ENDCHAR
STARTCHAR 0451
ENCODING 1105
SWIDTH 1200 0
DWIDTH 20 0
BBX 20 20 0 -3
BITMAP
000000
000000
000000
018C00
018C00
000000
000000
00F800
038C00
030600
060600
07FE00
060000
060000
060000
030200
038400
00F800
000000
000000
ENDCHAR
STARTCHAR 2000
ENCODING 8192
SWIDTH 1200 0
DWIDTH 20 0
BBX 20 20 0 -3
BITMAP
000000
000000
000000
000000
000000
000000
000000
000000
000000
000000
000000
000000
000000
000000
000000
000000
000000
000000
000000
000000
ENDCHAR
STARTCHAR 2001
ENCODING 8193
SWIDTH 1200 0
DWIDTH 20 0
BBX 20 20 0 -3
BITMAP
000000
000000
000000
000000
000000
000000
000000
000000
000000
000000
000000
000000
000000
000000
000000
000000
000000
000000
000000
000000
ENDCHAR
STARTCHAR 2002
ENCODING 8194
SWIDTH 1200 0
DWIDTH 20 0
BBX 20 20 0 -3
BITMAP
000000
000000
000000
000000
000000
000000
000000
000000
000000
000000
000000
000000
000000
000000
000000
000000
000000
000000
000000
000000
ENDCHAR
STARTCHAR 2003
ENCODING 8195
SWIDTH 1200 0
DWIDTH 20 0
BBX 20 20 0 -3
BITMAP
000000
000000
000000
000000
000000
000000
000000
000000
000000
000000
000000
000000
000000
000000
000000
000000
000000
000000
000000
000000
ENDCHAR
STARTCHAR 2004
ENCODING 8196
SWIDTH 1200 0
DWIDTH 20 0
BBX 20 20 0 -3
BITMAP
000000
000000
000000
000000
000000
000000
000000
000000
000000
000000
000000
000000
000000
000000
000000
000000
000000
000000
000000
000000
ENDCHAR
STARTCHAR 2005
ENCODING 8197
SWIDTH 1200 0
DWIDTH 20 0
BBX 20 20 0 -3
BITMAP
000000
000000
000000
000000
000000
000000
000000
000000
000000
000000
000000
000000
000000
000000
000000
000000
000000
000000
000000
000000
ENDCHAR
STARTCHAR 2006
ENCODING 8198
SWIDTH 1200 0
DWIDTH 20 0
BBX 20 20 0 -3
BITMAP
000000
000000
000000
000000
000000
000000
000000
000000
000000
000000
000000
000000
000000
000000
000000
000000
000000
000000
000000
000000
ENDCHAR
STARTCHAR 2007
ENCODING 8199
SWIDTH 1200 0
DWIDTH 20 0
BBX 20 20 0 -3
BITMAP
000000
000000
000000
000000
000000
000000
000000
000000
000000
000000
000000
000000
000000
000000
000000
000000
000000
000000
000000
000000
ENDCHAR
STARTCHAR 2008
ENCODING 8200
SWIDTH 1200 0
DWIDTH 20 0
BBX 20 20 0 -3
BITMAP
000000
000000
000000
000000
000000
000000
000000
000000
000000
000000
000000
000000
000000
000000
000000
000000
000000
000000
000000
000000
ENDCHAR
STARTCHAR 2009
ENCODING 8201
SWIDTH 1200 0
DWIDTH 20 0
BBX 20 20 0 -3
BITMAP
000000
000000
000000
000000
000000
000000
000000
000000
000000
000000
000000
000000
000000
000000
000000
000000
000000
000000
000000
000000
ENDCHAR
STARTCHAR 200A
ENCODING 8202
SWIDTH 1200 0
DWIDTH 20 0
BBX 20 20 0 -3
BITMAP
000000
000000
000000
000000
000000
000000
000000
000000
000000
000000
000000
000000
000000
000000
000000
000000
000000
000000
000000
000000
ENDCHAR
STARTCHAR 200B
ENCODING 8203
SWIDTH 600 0
DWIDTH 10 0
BBX 1 1 0 0
BITMAP
00
ENDCHAR
STARTCHAR 200C
ENCODING 8204
SWIDTH 600 0
DWIDTH 10 0
BBX 1 1 0 0
BITMAP
00
ENDCHAR
STARTCHAR 200D
ENCODING 8205
SWIDTH 600 0
DWIDTH 10 0
BBX 1 1 0 0
BITMAP
00
ENDCHAR
STARTCHAR 200E
ENCODING 8206
SWIDTH 600 0
DWIDTH 10 0
BBX 1 1 0 0
BITMAP
00
ENDCHAR
STARTCHAR 200F
ENCODING 8207
SWIDTH 600 0
DWIDTH 10 0
BBX 1 1 0 0
BITMAP
00
ENDCHAR
STARTCHAR 2010
ENCODING 8208
SWIDTH 1200 0
DWIDTH 20 0
BBX 20 20 0 -3
BITMAP
000000
000000
000000
000000
000000
000000
000000
000000
000000
03FC00
000000
000000
000000
000000
000000
000000
000000
000000
000000
000000
ENDCHAR
STARTCHAR 2014
ENCODING 8212
SWIDTH 1200 0
DWIDTH 20 0
BBX 20 20 0 -3
BITMAP
000000
000000
000000
000000
000000
000000
000000
000000
000000
FFFFF0
000000
000000
000000
000000
000000
000000
000000
000000
000000
000000
ENDCHAR
STARTCHAR 2015
ENCODING 8213
SWIDTH 1200 0
DWIDTH 20 0
BBX 20 20 0 -3
BITMAP
000000
000000
000000
000000
000000
000000
000000
000000
000000
FFFFF0
000000
000000
000000
000000
000000
000000
000000
000000
000000
000000
ENDCHAR
STARTCHAR 2016
ENCODING 8214
SWIDTH 1200 0
DWIDTH 20 0
BBX 20 20 0 -3
BITMAP
010400
010400
010400
010400
010400
010400
010400
010400
010400
010400
010400
010400
010400
010400
010400
010400
010400
010400
010400
010400
ENDCHAR
STARTCHAR 2018
ENCODING 8216
SWIDTH 1200 0
DWIDTH 20 0
BBX 20 20 0 -3
BITMAP
000080
000100
000300
000380
000380
000000
000000
000000
000000
000000
000000
000000
000000
000000
000000
000000
000000
000000
000000
000000
ENDCHAR
STARTCHAR 2019
ENCODING 8217
SWIDTH 1200 0
DWIDTH 20 0
BBX 20 20 0 -3
BITMAP
380000
380000
180000
100000
200000
000000
000000
000000
000000
000000
000000
000000
000000
000000
000000
000000
000000
000000
000000
000000
ENDCHAR
STARTCHAR 201C
ENCODING 8220
SWIDTH 1200 0
DWIDTH 20 0
BBX 20 20 0 -3
BITMAP
000440
000880
001980
001DC0
001DC0
000000
000000
000000
000000
000000
000000
000000
000000
000000
000000
000000
000000
000000
000000
000000
ENDCHAR
STARTCHAR 201D
ENCODING 8221
SWIDTH 1200 0
DWIDTH 20 0
BBX 20 20 0 -3
BITMAP
3B8000
3B8000
198000
110000
220000
000000
000000
000000
000000
000000
000000
000000
000000
000000
000000
000000
000000
000000
000000
000000
ENDCHAR
STARTCHAR 2020
ENCODING 8224
SWIDTH 1200 0
DWIDTH 20 0
BBX 20 20 0 -3
BITMAP
004000
00E000
00E000
044400
0FFE00
044400
004000
004000
03F800
01F000
00E000
00E000
00E000
00E000
00E000
004000
004000
004000
004000
004000
ENDCHAR
STARTCHAR 2021
ENCODING 8225
SWIDTH 1200 0
DWIDTH 20 0
BBX 20 20 0 -3
BITMAP
004000
00E000
00E000
044400
0FFE00
044400
00E000
00E000
00E000
004000
004000
00E000
00E000
00E000
044400
0FFE00
044400
00E000
00E000
004000
ENDCHAR
STARTCHAR 2025
ENCODING 8229
SWIDTH 1200 0
DWIDTH 20 0
BBX 20 20 0 -3
BITMAP
000000
000000
000000
000000
000000
000000
000000
000000
1C0700
1C0700
1C0700
000000
000000
000000
000000
000000
000000
000000
000000
000000
ENDCHAR
STARTCHAR 2026
ENCODING 8230
SWIDTH 1200 0
DWIDTH 20 0
BBX 20 20 0 -3
BITMAP
000000
000000
000000
000000
000000
000000
000000
000000
70E1C0
70E1C0
70E1C0
000000
000000
000000
000000
000000
000000
000000
000000
000000
ENDCHAR
STARTCHAR 2030
ENCODING 8240
SWIDTH 1200 0
DWIDTH 20 0
BBX 20 20 0 -3
BITMAP
000000
380800
441000
441000
442000
444000
444000
448000
450000
390000
0271C0
048A20
048A20
088A20
108A20
108A20
208A20
408A20
4071C0
000000
ENDCHAR
STARTCHAR 2032
ENCODING 8242
SWIDTH 1200 0
DWIDTH 20 0
BBX 20 20 0 -3
BITMAP
000000
060000
040000
0C0000
080000
080000
100000
100000
000000
000000
000000
000000
000000
000000
000000
000000
000000
000000
000000
000000
ENDCHAR
STARTCHAR 2033
ENCODING 8243
SWIDTH 1200 0
DWIDTH 20 0
BBX 20 20 0 -3
BITMAP
000000
1B0000
120000
360000
240000
240000
480000
480000
000000
000000
000000
000000
000000
000000
000000
000000
000000
000000
000000
000000
ENDCHAR
STARTCHAR 203B
ENCODING 8251
SWIDTH 1200 0
DWIDTH 20 0
BBX 20 20 0 -3
BITMAP
000000
000000
000000
106080
086100
040200
020400
010800
009000
186180
186180
009000
010800
020400
040200
086100
106080
000000
000000
000000
ENDCHAR
STARTCHAR 203E
ENCODING 8254
SWIDTH 1200 0
DWIDTH 20 0
BBX 20 20 0 -3
BITMAP
FFFFF0
000000
000000
000000
000000
000000
000000
000000
000000
000000
000000
000000
000000
000000
000000
000000
000000
000000
000000
000000
ENDCHAR
STARTCHAR 2103
ENCODING 8451
SWIDTH 1200 0
DWIDTH 20 0
BBX 20 20 0 -3
BITMAP
000000
380000
440000
441E40
4461C0
38C0E0
018060
018020
030000
030000
030000
030000
030000
018000
018020
00C020
0060C0
001F00
000000
000000
ENDCHAR
STARTCHAR 212B
ENCODING 8491
SWIDTH 1200 0
DWIDTH 20 0
BBX 20 20 0 -3
BITMAP
000000
006000
009000
009000
006000
000000
006000
006000
00B000
00B000
011800
011800
020C00
03FC00
040E00
040600
0C0700
3F1FC0
000000
000000
ENDCHAR
STARTCHAR 2190
ENCODING 8592
SWIDTH 1200 0
DWIDTH 20 0
BBX 20 20 0 -3
BITMAP
000000
000000
000000
000000
000000
000000
040000
080000
300000
FFFFE0
300000
080000
040000
000000
000000
000000
000000
000000
000000
000000
ENDCHAR
STARTCHAR 2191
ENCODING 8593
SWIDTH 1200 0
DWIDTH 20 0
BBX 20 20 0 -3
BITMAP
004000
004000
00E000
00E000
015000
024800
004000
004000
004000
004000
004000
004000
004000
004000
004000
004000
004000
004000
004000
000000
ENDCHAR
STARTCHAR 2192
ENCODING 8594
SWIDTH 1200 0
DWIDTH 20 0
BBX 20 20 0 -3
BITMAP
000000
000000
000000
000000
000000
000000
000400
000200
000180
FFFFE0
000180
000200
000400
000000
000000
000000
000000
000000
000000
000000
ENDCHAR
STARTCHAR 2193
ENCODING 8595
SWIDTH 1200 0
DWIDTH 20 0
BBX 20 20 0 -3
BITMAP
004000
004000
004000
004000
004000
004000
004000
004000
004000
004000
004000
004000
004000
024800
015000
00E000
00E000
004000
004000
000000
ENDCHAR
STARTCHAR 21D2
ENCODING 8658
SWIDTH 1200 0
DWIDTH 20 0
BBX 20 20 0 -3
BITMAP
000000
000000
000000
000000
000400
000200
000100
FFFF80
000040
000020
000040
FFFF80
000100
000200
000400
000000
000000
000000
000000
000000
ENDCHAR
STARTCHAR 21D4
ENCODING 8660
SWIDTH 1200 0
DWIDTH 20 0
BBX 20 20 0 -3
BITMAP
000000
000000
000000
000000
040400
080200
100100
3FFF80
400040
800020
400040
3FFF80
100100
080200
040400
000000
000000
000000
000000
000000
ENDCHAR
STARTCHAR 2200
ENCODING 8704
SWIDTH 1200 0
DWIDTH 20 0
BBX 20 20 0 -3
BITMAP
000000
000000
200080
200080
100100
100100
080200
0FFE00
040400
040400
020800
020800
011000
011000
00A000
00A000
004000
004000
000000
000000
ENDCHAR
STARTCHAR 2202
ENCODING 8706
SWIDTH 1200 0
DWIDTH 20 0
BBX 20 20 0 -3
BITMAP
000000
000000
007000
01F800
020C00
000400
000400
000400
00EC00
031C00
060C00
040800
0C1800
081800
083000
083000
046000
03C000
000000
000000
ENDCHAR
STARTCHAR 2203
ENCODING 8707
SWIDTH 1200 0
DWIDTH 20 0
BBX 20 20 0 -3
BITMAP
000000
000000
000000
0FFE00
000200
000200
000200
000200
000200
0FFE00
000200
000200
000200
000200
000200
0FFE00
000000
000000
000000
000000
ENDCHAR
STARTCHAR 2207
ENCODING 8711
SWIDTH 1200 0
DWIDTH 20 0
BBX 20 20 0 -3
BITMAP
000000
000000
7FFFE0
300040
3000C0
180080
180180
0C0100
0C0300
060200
060600
030400
030C00
018800
019800
00D000
00F000
006000
006000
000000
ENDCHAR
STARTCHAR 2208
ENCODING 8712
SWIDTH 1200 0
DWIDTH 20 0
BBX 20 20 0 -3
BITMAP
000000
000000
000000
000000
00FF00
030000
040000
040000
080000
0FFF00
080000
040000
040000
030000
00FF00
000000
000000
000000
000000
000000
ENDCHAR
STARTCHAR 220B
ENCODING 8715
SWIDTH 1200 0
DWIDTH 20 0
BBX 20 20 0 -3
BITMAP
000000
000000
000000
000000
0FF000
000C00
000200
000200
000100
0FFF00
000100
000200
000200
000C00
0FF000
000000
000000
000000
000000
000000
ENDCHAR
STARTCHAR 2212
ENCODING 8722
SWIDTH 1200 0
DWIDTH 20 0
BBX 20 20 0 -3
BITMAP
000000
000000
000000
000000
000000
000000
000000
000000
000000
3FFF80
000000
000000
000000
000000
000000
000000
000000
000000
000000
000000
ENDCHAR
STARTCHAR 221A
ENCODING 8730
SWIDTH 1200 0
DWIDTH 20 0
BBX 20 20 0 -3
BITMAP
003FF0
002000
002000
002000
004000
004000
004000
004000
008000
008000
008000
108000
310000
590000
890000
0D0000
060000
060000
020000
020000
ENDCHAR
STARTCHAR 221D
ENCODING 8733
SWIDTH 1200 0
DWIDTH 20 0
BBX 20 20 0 -3
BITMAP
000000
000000
000000
000000
000000
0E0F00
111080
20A040
404000
404000
404000
404000
20A040
111080
0E0F00
000000
000000
000000
000000
000000
ENDCHAR
STARTCHAR 221E
ENCODING 8734
SWIDTH 1200 0
DWIDTH 20 0
BBX 20 20 0 -3
BITMAP
000000
000000
000000
000000
000000
1E0780
2308C0
419060
40D020
406020
406020
40B020
609820
310C40
1E0780
000000
000000
000000
000000
000000
ENDCHAR
STARTCHAR 2220
ENCODING 8736
SWIDTH 1200 0
DWIDTH 20 0
BBX 20 20 0 -3
BITMAP
000000
000000
000000
000100
000200
000400
000800
001000
002000
004000
008000
010000
020000
040000
080000
1FFFC0
000000
000000
000000
000000
ENDCHAR
STARTCHAR 2225
ENCODING 8741
SWIDTH 1200 0
DWIDTH 20 0
BBX 20 20 0 -3
BITMAP
010400
010400
010400
010400
010400
010400
010400
010400
010400
010400
010400
010400
010400
010400
010400
010400
010400
010400
010400
010400
ENDCHAR
STARTCHAR 2227
ENCODING 8743
SWIDTH 1200 0
DWIDTH 20 0
BBX 20 20 0 -3
BITMAP
000000
000000
000000
004000
004000
00A000
00A000
011000
011000
020800
020800
040400
040400
080200
080200
100100
100100
000000
000000
000000
ENDCHAR
STARTCHAR 2228
ENCODING 8744
SWIDTH 1200 0
DWIDTH 20 0
BBX 20 20 0 -3
BITMAP
000000
000000
000000
100100
100100
080200
080200
040400
040400
020800
020800
011000
011000
00A000
00A000
004000
004000
000000
000000
000000
ENDCHAR
STARTCHAR 2229
ENCODING 8745
SWIDTH 1200 0
DWIDTH 20 0
BBX 20 20 0 -3
BITMAP
000000
000000
000000
00F000
030C00
040200
040200
080100
080100
080100
080100
080100
080100
080100
080100
080100
080100
080100
000000
000000
ENDCHAR
STARTCHAR 222A
ENCODING 8746
SWIDTH 1200 0
DWIDTH 20 0
BBX 20 20 0 -3
BITMAP
000000
000000
000000
080100
080100
080100
080100
080100
080100
080100
080100
080100
080100
040200
040200
030C00
00F000
000000
000000
000000
ENDCHAR
STARTCHAR 222B
ENCODING 8747
SWIDTH 1200 0
DWIDTH 20 0
BBX 20 20 0 -3
BITMAP
007000
009800
011800
010000
018000
018000
00C000
00C000
00E000
006000
006000
007000
003000
003000
001800
001800
000800
018800
019000
00E000
ENDCHAR
STARTCHAR 222C
ENCODING 8748
SWIDTH 1200 0
DWIDTH 20 0
BBX 20 20 0 -3
BITMAP
070E00
099300
11A300
102000
183000
183000
0C1800
0C1800
0E1C00
060C00
060C00
070E00
030600
030600
018300
018300
008100
18B100
193200
0E1C00
ENDCHAR
STARTCHAR 2234
ENCODING 8756
SWIDTH 1200 0
DWIDTH 20 0
BBX 20 20 0 -3
BITMAP
000000
000000
000000
00E000
00E000
00E000
000000
000000
000000
000000
000000
000000
000000
1C0700
1C0700
1C0700
000000
000000
000000
000000
ENDCHAR
STARTCHAR 2235
ENCODING 8757
SWIDTH 1200 0
DWIDTH 20 0
BBX 20 20 0 -3
BITMAP
000000
000000
000000
000000
1C0700
1C0700
1C0700
000000
000000
000000
000000
000000
000000
000000
00E000
00E000
00E000
000000
000000
000000
ENDCHAR
STARTCHAR 223D
ENCODING 8765
SWIDTH 1200 0
DWIDTH 20 0
BBX 20 20 0 -3
BITMAP
000000
000000
000000
000000
000000
0E0700
100880
201040
402020
402020
404020
404020
208040
110080
0E0700
000000
000000
000000
000000
000000
ENDCHAR
STARTCHAR 2252
ENCODING 8786
SWIDTH 1200 0
DWIDTH 20 0
BBX 20 20 0 -3
BITMAP
000000
000000
000000
060000
060000
000000
000000
1FFFC0
000000
000000
000000
1FFFC0
000000
000000
000300
000300
000000
000000
000000
000000
ENDCHAR
STARTCHAR 2260
ENCODING 8800
SWIDTH 1200 0
DWIDTH 20 0
BBX 20 20 0 -3
BITMAP
000000
000000
000000
000800
000800
001000
001000
1FFF80
002000
004000
004000
1FFF80
008000
008000
010000
010000
000000
000000
000000
000000
ENDCHAR
STARTCHAR 2261
ENCODING 8801
SWIDTH 1200 0
DWIDTH 20 0
BBX 20 20 0 -3
BITMAP
000000
000000
000000
000000
1FFFC0
000000
000000
000000
000000
1FFFC0
000000
000000
000000
000000
1FFFC0
000000
000000
000000
000000
000000
ENDCHAR
STARTCHAR 2266
ENCODING 8806
SWIDTH 1200 0
DWIDTH 20 0
BBX 20 20 0 -3
BITMAP
000000
000000
000000
0003C0
003C00
03C000
3C0000
3C0000
03C000
003C00
0003C0
000000
000000
3FFFC0
000000
000000
3FFFC0
000000
000000
000000
ENDCHAR
STARTCHAR 2267
ENCODING 8807
SWIDTH 1200 0
DWIDTH 20 0
BBX 20 20 0 -3
BITMAP
000000
000000
000000
3C0000
03C000
003C00
0003C0
0003C0
003C00
03C000
3C0000
000000
000000
3FFFC0
000000
000000
3FFFC0
000000
000000
000000
ENDCHAR
STARTCHAR 226A
ENCODING 8810
SWIDTH 1200 0
DWIDTH 20 0
BBX 20 20 0 -3
BITMAP
000000
000000
000820
0030C0
004100
018600
020800
0C3000
104000
618000
618000
104000
0C3000
020800
018600
004100
0030C0
000820
000000
000000
ENDCHAR
STARTCHAR 226B
ENCODING 8811
SWIDTH 1200 0
DWIDTH 20 0
BBX 20 20 0 -3
BITMAP
000000
000000
410000
30C000
082000
061800
010400
00C300
002080
001860
001860
002080
00C300
010400
061800
082000
30C000
410000
000000
000000
ENDCHAR
STARTCHAR 2282
ENCODING 8834
SWIDTH 1200 0
DWIDTH 20 0
BBX 20 20 0 -3
BITMAP
000000
000000
000000
000000
01FF80
060000
080000
080000
100000
100000
100000
100000
080000
080000
060000
01FF80
000000
000000
000000
000000
ENDCHAR
STARTCHAR 2283
ENCODING 8835
SWIDTH 1200 0
DWIDTH 20 0
BBX 20 20 0 -3
BITMAP
000000
000000
000000
000000
1FF800
000600
000100
000100
000080
000080
000080
000080
000100
000100
000600
1FF800
000000
000000
000000
000000
ENDCHAR
STARTCHAR 2286
ENCODING 8838
SWIDTH 1200 0
DWIDTH 20 0
BBX 20 20 0 -3
BITMAP
000000
000000
000000
01FF80
060000
080000
080000
100000
100000
080000
080000
060000
01FF80
000000
000000
1FFF80
000000
000000
000000
000000
ENDCHAR
STARTCHAR 2287
ENCODING 8839
SWIDTH 1200 0
DWIDTH 20 0
BBX 20 20 0 -3
BITMAP
000000
000000
000000
1FF800
000600
000100
000100
000080
000080
000100
000100
000600
1FF800
000000
000000
1FFF80
000000
000000
000000
000000
ENDCHAR
STARTCHAR 22A5
ENCODING 8869
SWIDTH 1200 0
DWIDTH 20 0
BBX 20 20 0 -3
BITMAP
000000
000000
000000
004000
004000
004000
004000
004000
004000
004000
004000
004000
004000
004000
004000
3FFF80
000000
000000
000000
000000
ENDCHAR
STARTCHAR 2312
ENCODING 8978
SWIDTH 1200 0
DWIDTH 20 0
BBX 20 20 0 -3
BITMAP
03F800
1C0700
6000C0
800020
000000
000000
000000
000000
000000
000000
000000
000000
000000
000000
000000
000000
000000
000000
000000
000000
ENDCHAR
STARTCHAR 2500
ENCODING 9472
SWIDTH 1200 0
DWIDTH 20 0
BBX 20 20 0 -3
BITMAP
000000
000000
000000
000000
000000
000000
000000
000000
000000
FFFFF0
000000
000000
000000
000000
000000
000000
000000
000000
000000
000000
ENDCHAR
STARTCHAR 2501
ENCODING 9473
SWIDTH 1200 0
DWIDTH 20 0
BBX 20 20 0 -3
BITMAP
000000
000000
000000
000000
000000
000000
000000
000000
000000
FFFFF0
FFFFF0
000000
000000
000000
000000
000000
000000
000000
000000
000000
ENDCHAR
STARTCHAR 2502
ENCODING 9474
SWIDTH 1200 0
DWIDTH 20 0
BBX 20 20 0 -3
BITMAP
004000
004000
004000
004000
004000
004000
004000
004000
004000
004000
004000
004000
004000
004000
004000
004000
004000
004000
004000
004000
ENDCHAR
STARTCHAR 2503
ENCODING 9475
SWIDTH 1200 0
DWIDTH 20 0
BBX 20 20 0 -3
BITMAP
006000
006000
006000
006000
006000
006000
006000
006000
006000
006000
006000
006000
006000
006000
006000
006000
006000
006000
006000
006000
ENDCHAR
STARTCHAR 250C
ENCODING 9484
SWIDTH 1200 0
DWIDTH 20 0
BBX 20 20 0 -3
BITMAP
000000
000000
000000
000000
000000
000000
000000
000000
000000
007FF0
004000
004000
004000
004000
004000
004000
004000
004000
004000
004000
ENDCHAR
STARTCHAR 250F
ENCODING 9487
SWIDTH 1200 0
DWIDTH 20 0
BBX 20 20 0 -3
BITMAP
000000
000000
000000
000000
000000
000000
000000
000000
000000
007FF0
007FF0
006000
006000
006000
006000
006000
006000
006000
006000
006000
ENDCHAR
STARTCHAR 2510
ENCODING 9488
SWIDTH 1200 0
DWIDTH 20 0
BBX 20 20 0 -3
BITMAP
000000
000000
000000
000000
000000
000000
000000
000000
000000
FFC000
004000
004000
004000
004000
004000
004000
004000
004000
004000
004000
ENDCHAR
STARTCHAR 2513
ENCODING 9491
SWIDTH 1200 0
DWIDTH 20 0
BBX 20 20 0 -3
BITMAP
000000
000000
000000
000000
000000
000000
000000
000000
000000
FFE000
FFE000
006000
006000
006000
006000
006000
006000
006000
006000
006000
ENDCHAR
STARTCHAR 2514
ENCODING 9492
SWIDTH 1200 0
DWIDTH 20 0
BBX 20 20 0 -3
BITMAP
004000
004000
004000
004000
004000
004000
004000
004000
004000
007FF0
000000
000000
000000
000000
000000
000000
000000
000000
000000
000000
ENDCHAR
STARTCHAR 2517
ENCODING 9495
SWIDTH 1200 0
DWIDTH 20 0
BBX 20 20 0 -3
BITMAP
006000
006000
006000
006000
006000
006000
006000
006000
006000
007FF0
007FF0
000000
000000
000000
000000
000000
000000
000000
000000
000000
ENDCHAR
STARTCHAR 2518
ENCODING 9496
SWIDTH 1200 0
DWIDTH 20 0
BBX 20 20 0 -3
BITMAP
004000
004000
004000
004000
004000
004000
004000
004000
004000
FFC000
000000
000000
000000
000000
000000
000000
000000
000000
000000
000000
ENDCHAR
STARTCHAR 251B
ENCODING 9499
SWIDTH 1200 0
DWIDTH 20 0
BBX 20 20 0 -3
BITMAP
006000
006000
006000
006000
006000
006000
006000
006000
006000
FFE000
FFE000
000000
000000
000000
000000
000000
000000
000000
000000
000000
ENDCHAR
STARTCHAR 251C
ENCODING 9500
SWIDTH 1200 0
DWIDTH 20 0
BBX 20 20 0 -3
BITMAP
004000
004000
004000
004000
004000
004000
004000
004000
004000
007FF0
004000
004000
004000
004000
004000
004000
004000
004000
004000
004000
ENDCHAR
STARTCHAR 251D
ENCODING 9501
SWIDTH 1200 0
DWIDTH 20 0
BBX 20 20 0 -3
BITMAP
004000
004000
004000
004000
004000
004000
004000
004000
004000
007FF0
007FF0
004000
004000
004000
004000
004000
004000
004000
004000
004000
ENDCHAR
STARTCHAR 2520
ENCODING 9504
SWIDTH 1200 0
DWIDTH 20 0
BBX 20 20 0 -3
BITMAP
006000
006000
006000
006000
006000
006000
006000
006000
006000
007FF0
006000
006000
006000
006000
006000
006000
006000
006000
006000
006000
ENDCHAR
STARTCHAR 2523
ENCODING 9507
SWIDTH 1200 0
DWIDTH 20 0
BBX 20 20 0 -3
BITMAP
006000
006000
006000
006000
006000
006000
006000
006000
006000
007FF0
007FF0
006000
006000
006000
006000
006000
006000
006000
006000
006000
ENDCHAR
STARTCHAR 2524
ENCODING 9508
SWIDTH 1200 0
DWIDTH 20 0
BBX 20 20 0 -3
BITMAP
004000
004000
004000
004000
004000
004000
004000
004000
004000
FFC000
004000
004000
004000
004000
004000
004000
004000
004000
004000
004000
ENDCHAR
STARTCHAR 2525
ENCODING 9509
SWIDTH 1200 0
DWIDTH 20 0
BBX 20 20 0 -3
BITMAP
004000
004000
004000
004000
004000
004000
004000
004000
004000
FFC000
FFC000
004000
004000
004000
004000
004000
004000
004000
004000
004000
ENDCHAR
STARTCHAR 2528
ENCODING 9512
SWIDTH 1200 0
DWIDTH 20 0
BBX 20 20 0 -3
BITMAP
006000
006000
006000
006000
006000
006000
006000
006000
006000
FFE000
006000
006000
006000
006000
006000
006000
006000
006000
006000
006000
ENDCHAR
STARTCHAR 252B
ENCODING 9515
SWIDTH 1200 0
DWIDTH 20 0
BBX 20 20 0 -3
BITMAP
006000
006000
006000
006000
006000
006000
006000
006000
006000
FFE000
FFE000
006000
006000
006000
006000
006000
006000
006000
006000
006000
ENDCHAR
STARTCHAR 252C
ENCODING 9516
SWIDTH 1200 0
DWIDTH 20 0
BBX 20 20 0 -3
BITMAP
000000
000000
000000
000000
000000
000000
000000
000000
000000
FFFFF0
004000
004000
004000
004000
004000
004000
004000
004000
004000
004000
ENDCHAR
STARTCHAR 252F
ENCODING 9519
SWIDTH 1200 0
DWIDTH 20 0
BBX 20 20 0 -3
BITMAP
000000
000000
000000
000000
000000
000000
000000
000000
000000
FFFFF0
FFFFF0
004000
004000
004000
004000
004000
004000
004000
004000
004000
ENDCHAR
STARTCHAR 2530
ENCODING 9520
SWIDTH 1200 0
DWIDTH 20 0
BBX 20 20 0 -3
BITMAP
000000
000000
000000
000000
000000
000000
000000
000000
000000
FFFFF0
006000
006000
006000
006000
006000
006000
006000
006000
006000
006000
ENDCHAR
STARTCHAR 2533
ENCODING 9523
SWIDTH 1200 0
DWIDTH 20 0
BBX 20 20 0 -3
BITMAP
000000
000000
000000
000000
000000
000000
000000
000000
000000
FFFFF0
FFFFF0
006000
006000
006000
006000
006000
006000
006000
006000
006000
ENDCHAR
STARTCHAR 2534
ENCODING 9524
SWIDTH 1200 0
DWIDTH 20 0
BBX 20 20 0 -3
BITMAP
004000
004000
004000
004000
004000
004000
004000
004000
004000
FFFFF0
000000
000000
000000
000000
000000
000000
000000
000000
000000
000000
ENDCHAR
STARTCHAR 2537
ENCODING 9527
SWIDTH 1200 0
DWIDTH 20 0
BBX 20 20 0 -3
BITMAP
004000
004000
004000
004000
004000
004000
004000
004000
004000
FFFFF0
FFFFF0
000000
000000
000000
000000
000000
000000
000000
000000
000000
ENDCHAR
STARTCHAR 2538
ENCODING 9528
SWIDTH 1200 0
DWIDTH 20 0
BBX 20 20 0 -3
BITMAP
006000
006000
006000
006000
006000
006000
006000
006000
006000
FFFFF0
000000
000000
000000
000000
000000
000000
000000
000000
000000
000000
ENDCHAR
STARTCHAR 253B
ENCODING 9531
SWIDTH 1200 0
DWIDTH 20 0
BBX 20 20 0 -3
BITMAP
006000
006000
006000
006000
006000
006000
006000
006000
006000
FFFFF0
FFFFF0
000000
000000
000000
000000
000000
000000
000000
000000
000000
ENDCHAR
STARTCHAR 253C
ENCODING 9532
SWIDTH 1200 0
DWIDTH 20 0
BBX 20 20 0 -3
BITMAP
004000
004000
004000
004000
004000
004000
004000
004000
004000
FFFFF0
004000
004000
004000
004000
004000
004000
004000
004000
004000
004000
ENDCHAR
STARTCHAR 253F
ENCODING 9535
SWIDTH 1200 0
DWIDTH 20 0
BBX 20 20 0 -3
BITMAP
004000
004000
004000
004000
004000
004000
004000
004000
004000
FFFFF0
FFFFF0
004000
004000
004000
004000
004000
004000
004000
004000
004000
ENDCHAR
STARTCHAR 2542
ENCODING 9538
SWIDTH 1200 0
DWIDTH 20 0
BBX 20 20 0 -3
BITMAP
006000
006000
006000
006000
006000
006000
006000
006000
006000
FFFFF0
006000
006000
006000
006000
006000
006000
006000
006000
006000
006000
ENDCHAR
STARTCHAR 254B
ENCODING 9547
SWIDTH 1200 0
DWIDTH 20 0
BBX 20 20 0 -3
BITMAP
006000
006000
006000
006000
006000
006000
006000
006000
006000
FFFFF0
FFFFF0
006000
006000
006000
006000
006000
006000
006000
006000
006000
ENDCHAR
STARTCHAR 25A0
ENCODING 9632
SWIDTH 1200 0
DWIDTH 20 0
BBX 20 20 0 -3
BITMAP
000000
7FFFE0
7FFFE0
7FFFE0
7FFFE0
7FFFE0
7FFFE0
7FFFE0
7FFFE0
7FFFE0
7FFFE0
7FFFE0
7FFFE0
7FFFE0
7FFFE0
7FFFE0
7FFFE0
7FFFE0
7FFFE0
000000
ENDCHAR
STARTCHAR 25A1
ENCODING 9633
SWIDTH 1200 0
DWIDTH 20 0
BBX 20 20 0 -3
BITMAP
000000
7FFFE0
400020
400020
400020
400020
400020
400020
400020
400020
400020
400020
400020
400020
400020
400020
400020
400020
7FFFE0
000000
ENDCHAR
STARTCHAR 25B2
ENCODING 9650
SWIDTH 1200 0
DWIDTH 20 0
BBX 20 20 0 -3
BITMAP
000000
004000
004000
00E000
00E000
01F000
01F000
03F800
03F800
07FC00
07FC00
0FFE00
0FFE00
1FFF00
1FFF00
3FFF80
3FFF80
7FFFC0
000000
000000
ENDCHAR
STARTCHAR 25B3
ENCODING 9651
SWIDTH 1200 0
DWIDTH 20 0
BBX 20 20 0 -3
BITMAP
000000
004000
004000
00A000
00A000
011000
011000
020800
020800
040400
040400
080200
080200
100100
100100
200080
200080
7FFFC0
000000
000000
ENDCHAR
STARTCHAR 25BC
ENCODING 9660
SWIDTH 1200 0
DWIDTH 20 0
BBX 20 20 0 -3
BITMAP
000000
000000
7FFFC0
3FFF80
3FFF80
1FFF00
1FFF00
0FFE00
0FFE00
07FC00
07FC00
03F800
03F800
01F000
01F000
00E000
00E000
004000
004000
000000
ENDCHAR
STARTCHAR 25BD
ENCODING 9661
SWIDTH 1200 0
DWIDTH 20 0
BBX 20 20 0 -3
BITMAP
000000
000000
7FFFC0
200080
200080
100100
100100
080200
080200
040400
040400
020800
020800
011000
011000
00A000
00A000
004000
004000
000000
ENDCHAR
STARTCHAR 25C6
ENCODING 9670
SWIDTH 1200 0
DWIDTH 20 0
BBX 20 20 0 -3
BITMAP
004000
00E000
01F000
03F800
07FC00
0FFE00
1FFF00
3FFF80
7FFFC0
FFFFE0
7FFFC0
3FFF80
1FFF00
0FFE00
07FC00
03F800
01F000
00E000
004000
000000
ENDCHAR
STARTCHAR 25C7
ENCODING 9671
SWIDTH 1200 0
DWIDTH 20 0
BBX 20 20 0 -3
BITMAP
004000
00A000
011000
020800
040400
080200
100100
200080
400040
800020
400040
200080
100100
080200
040400
020800
011000
00A000
004000
000000
ENDCHAR
STARTCHAR 25CB
ENCODING 9675
SWIDTH 1200 0
DWIDTH 20 0
BBX 20 20 0 -3
BITMAP
000000
01F800
060600
080100
100080
200040
200040
400020
400020
400020
400020
400020
400020
200040
200040
100080
080100
060600
01F800
000000
ENDCHAR
STARTCHAR 25CE
ENCODING 9678
SWIDTH 1200 0
DWIDTH 20 0
BBX 20 20 0 -3
BITMAP
000000
01F800
060600
080100
100080
20F040
230C40
420420
440220
440220
440220
440220
420420
230C40
20F040
100080
080100
060600
01F800
000000
ENDCHAR
STARTCHAR 25CF
ENCODING 9679
SWIDTH 1200 0
DWIDTH 20 0
BBX 20 20 0 -3
BITMAP
000000
01F800
07FE00
0FFF00
1FFF80
3FFFC0
3FFFC0
7FFFE0
7FFFE0
7FFFE0
7FFFE0
7FFFE0
7FFFE0
3FFFC0
3FFFC0
1FFF80
0FFF00
07FE00
01F800
000000
ENDCHAR
STARTCHAR 25EF
ENCODING 9711
SWIDTH 1200 0
DWIDTH 20 0
BBX 20 20 0 -3
BITMAP
03FC00
0C0300
100080
200040
400020
400020
800010
800010
800010
800010
800010
800010
800010
800010
400020
400020
200040
100080
0C0300
03FC00
ENDCHAR
STARTCHAR 2605
ENCODING 9733
SWIDTH 1200 0
DWIDTH 20 0
BBX 20 20 0 -3
BITMAP
000000
000000
004000
004000
00E000
00E000
00E000
01F000
7FFFC0
3FFF80
0FFE00
07FC00
03F800
07FC00
07BC00
0F1E00
0C0600
180300
000000
000000
ENDCHAR
STARTCHAR 2606
ENCODING 9734
SWIDTH 1200 0
DWIDTH 20 0
BBX 20 20 0 -3
BITMAP
000000
000000
004000
004000
00A000
00A000
00A000
011000
7F1FC0
300180
080200
040400
020800
044400
04A400
0B1A00
0C0600
180300
000000
000000
ENDCHAR
STARTCHAR 2640
ENCODING 9792
SWIDTH 1200 0
DWIDTH 20 0
BBX 20 20 0 -3
BITMAP
01F000
020800
040400
080200
080200
080200
080200
080200
040400
020800
01F000
004000
004000
3FFF80
004000
004000
004000
004000
004000
000000
ENDCHAR
STARTCHAR 2642
ENCODING 9794
SWIDTH 1200 0
DWIDTH 20 0
BBX 20 20 0 -3
BITMAP
000000
003FE0
000060
0000A0
000120
000220
000420
000820
0F9020
106020
202000
401000
401000
401000
401000
401000
202000
104000
0F8000
000000
ENDCHAR
STARTCHAR 266A
ENCODING 9834
SWIDTH 1200 0
DWIDTH 20 0
BBX 20 20 0 -3
BITMAP
004000
004000
006000
007000
007800
005C00
004E00
004600
004300
004100
004100
004200
004200
004400
03C800
0FC000
1F8000
1F8000
0E0000
000000
ENDCHAR
STARTCHAR 266D
ENCODING 9837
SWIDTH 1200 0
DWIDTH 20 0
BBX 20 20 0 -3
BITMAP
010000
010000
010000
010000
010000
010000
010000
010000
013800
014C00
018600
010600
010600
010C00
011800
013000
016000
018000
010000
000000
ENDCHAR
STARTCHAR 266F
ENCODING 9839
SWIDTH 1200 0
DWIDTH 20 0
BBX 20 20 0 -3
BITMAP
000800
020800
020800
020800
020F00
03FF00
1FF800
1E0800
020800
020800
020800
020F00
03FF00
1FF800
1E0800
020800
020800
020800
020000
000000
ENDCHAR
STARTCHAR 3000
ENCODING 12288
SWIDTH 1200 0
DWIDTH 20 0
BBX 20 20 0 -3
BITMAP
000000
000000
000000
000000
000000
000000
000000
000000
000000
000000
000000
000000
000000
000000
000000
000000
000000
000000
000000
000000
ENDCHAR
STARTCHAR 3001
ENCODING 12289
SWIDTH 1200 0
DWIDTH 20 0
BBX 20 20 0 -3
BITMAP
000000
000000
000000
000000
000000
000000
000000
000000
000000
000000
000000
000000
000000
000000
400000
300000
180000
0C0000
0C0000
000000
ENDCHAR
STARTCHAR 3002
ENCODING 12290
SWIDTH 1200 0
DWIDTH 20 0
BBX 20 20 0 -3
BITMAP
000000
000000
000000
000000
000000
000000
000000
000000
000000
000000
000000
000000
000000
000000
380000
440000
440000
440000
380000
000000
ENDCHAR
STARTCHAR 3003
ENCODING 12291
SWIDTH 1200 0
DWIDTH 20 0
BBX 20 20 0 -3
BITMAP
000000
000000
000000
000000
000000
018C00
018C00
018C00
018C00
018C00
010800
031800
021000
021000
042000
000000
000000
000000
000000
000000
ENDCHAR
STARTCHAR 3005
ENCODING 12293
SWIDTH 1200 0
DWIDTH 20 0
BBX 20 20 0 -3
BITMAP
000000
000000
00C000
006000
00C000
008100
01FF80
030300
020600
040400
080800
119000
206000
003000
001800
001C00
000C00
000000
000000
000000
ENDCHAR
STARTCHAR 3006
ENCODING 12294
SWIDTH 1200 0
DWIDTH 20 0
BBX 20 20 0 -3
BITMAP
000020
000030
000070
0000C0
000180
01C200
026400
043800
043800
086C00
08C600
098600
130000
160000
1C0000
3C0000
380000
700000
600000
000000
ENDCHAR
STARTCHAR 3007
ENCODING 12295
SWIDTH 1200 0
DWIDTH 20 0
BBX 20 20 0 -3
BITMAP
000000
000000
000000
01F800
070E00
1C0380
3000C0
200040
600060
400020
400020
400020
600060
200040
3000C0
1C0380
070E00
01F800
000000
000000
ENDCHAR
STARTCHAR 3008
ENCODING 12296
SWIDTH 1200 0
DWIDTH 20 0
BBX 20 20 0 -3
BITMAP
000100
000300
000200
000600
000C00
000800
001800
003000
002000
006000
006000
002000
003000
001800
000800
000C00
000600
000200
000300
000100
ENDCHAR
STARTCHAR 3009
ENCODING 12297
SWIDTH 1200 0
DWIDTH 20 0
BBX 20 20 0 -3
BITMAP
080000
0C0000
040000
060000
030000
010000
018000
00C000
004000
006000
006000
004000
00C000
018000
010000
030000
060000
040000
0C0000
080000
ENDCHAR
STARTCHAR 300A
ENCODING 12298
SWIDTH 1200 0
DWIDTH 20 0
BBX 20 20 0 -3
BITMAP
000440
000CC0
000880
001980
003300
002200
006600
00CC00
008800
019800
019800
008800
00CC00
006600
002200
003300
001980
000880
000CC0
000440
ENDCHAR
STARTCHAR 300B
ENCODING 12299
SWIDTH 1200 0
DWIDTH 20 0
BBX 20 20 0 -3
BITMAP
220000
330000
110000
198000
0CC000
044000
066000
033000
011000
019800
019800
011000
033000
066000
044000
0CC000
198000
110000
330000
220000
ENDCHAR
STARTCHAR 300C
ENCODING 12300
SWIDTH 1200 0
DWIDTH 20 0
BBX 20 20 0 -3
BITMAP
007F80
006000
006000
006000
006000
006000
006000
006000
006000
006000
006000
006000
006000
006000
006000
006000
006000
006000
000000
000000
ENDCHAR
STARTCHAR 300D
ENCODING 12301
SWIDTH 1200 0
DWIDTH 20 0
BBX 20 20 0 -3
BITMAP
000000
000000
006000
006000
006000
006000
006000
006000
006000
006000
006000
006000
006000
006000
006000
006000
006000
006000
006000
0FE000
ENDCHAR
STARTCHAR 300E
ENCODING 12302
SWIDTH 1200 0
DWIDTH 20 0
BBX 20 20 0 -3
BITMAP
007F80
004080
005F80
005000
005000
005000
005000
005000
005000
005000
005000
005000
005000
005000
005000
005000
005000
007000
000000
000000
ENDCHAR
STARTCHAR 300F
ENCODING 12303
SWIDTH 1200 0
DWIDTH 20 0
BBX 20 20 0 -3
BITMAP
000000
000000
00E000
00A000
00A000
00A000
00A000
00A000
00A000
00A000
00A000
00A000
00A000
00A000
00A000
00A000
00A000
1FA000
102000
1FE000
ENDCHAR
STARTCHAR 3010
ENCODING 12304
SWIDTH 1200 0
DWIDTH 20 0
BBX 20 20 0 -3
BITMAP
003F00
003E00
003C00
003800
003800
003000
003000
003000
003000
003000
003000
003000
003000
003000
003000
003800
003800
003C00
003E00
003F00
ENDCHAR
STARTCHAR 3011
ENCODING 12305
SWIDTH 1200 0
DWIDTH 20 0
BBX 20 20 0 -3
BITMAP
0FC000
07C000
03C000
01C000
01C000
00C000
00C000
00C000
00C000
00C000
00C000
00C000
00C000
00C000
00C000
01C000
01C000
03C000
07C000
0FC000
ENDCHAR
STARTCHAR 3012
ENCODING 12306
SWIDTH 1200 0
DWIDTH 20 0
BBX 20 20 0 -3
BITMAP
000000
000000
7FFFE0
7FFFE0
000000
000000
000000
7FFFE0
7FFFE0
006000
006000
006000
006000
006000
006000
006000
006000
006000
006000
000000
ENDCHAR
STARTCHAR 3013
ENCODING 12307
SWIDTH 1200 0
DWIDTH 20 0
BBX 20 20 0 -3
BITMAP
000000
000000
000000
000000
3FFFC0
3FFFC0
3FFFC0
3FFFC0
000000
000000
000000
000000
3FFFC0
3FFFC0
3FFFC0
3FFFC0
000000
000000
000000
000000
ENDCHAR
STARTCHAR 3014
ENCODING 12308
SWIDTH 1200 0
DWIDTH 20 0
BBX 20 20 0 -3
BITMAP
000300
000C00
003800
003000
003000
003000
003000
003000
003000
003000
003000
003000
003000
003000
003000
003000
003000
003800
000C00
000300
ENDCHAR
STARTCHAR 3015
ENCODING 12309
SWIDTH 1200 0
DWIDTH 20 0
BBX 20 20 0 -3
BITMAP
0C0000
030000
01C000
00C000
00C000
00C000
00C000
00C000
00C000
00C000
00C000
00C000
00C000
00C000
00C000
00C000
00C000
01C000
030000
0C0000
ENDCHAR
STARTCHAR 301C
ENCODING 12316
SWIDTH 1200 0
DWIDTH 20 0
BBX 20 20 0 -3
BITMAP
000000
000000
000000
000000
000000
000000
000000
000000
078000
19E010
207020
403CC0
000F00
000000
000000
000000
000000
000000
000000
000000
ENDCHAR
STARTCHAR 3041
ENCODING 12353
SWIDTH 1200 0
DWIDTH 20 0
BBX 20 20 0 -3
BITMAP
000000
000000
000000
000000
018000
008000
00BC00
1FF000
0D0000
011000
01F800
032600
056300
094300
118300
110300
1A8600
0C0C00
003000
000000
ENDCHAR
STARTCHAR 3042
ENCODING 12354
SWIDTH 1200 0
DWIDTH 20 0
BBX 20 20 0 -3
BITMAP
018000
00C000
00C000
008E00
10BF00
1FC000
0D0800
010C00
017E00
039980
0530C0
092040
114060
108060
218060
2340C0
360080
1C0300
001C00
000000
ENDCHAR
STARTCHAR 3043
ENCODING 12355
SWIDTH 1200 0
DWIDTH 20 0
BBX 20 20 0 -3
BITMAP
000000
000000
000000
000000
000000
000000
180000
0C0800
0C0400
080200
080300
080100
080180
0C4780
0C8100
070000
070000
020000
000000
000000
ENDCHAR
STARTCHAR 3044
ENCODING 12356
SWIDTH 1200 0
DWIDTH 20 0
BBX 20 20 0 -3
BITMAP
000000
000000
000000
400000
200400
300200
300100
200180
2000C0
2000C0
200060
2081E0
310060
120040
1E0000
1C0000
0C0000
000000
000000
000000
ENDCHAR
STARTCHAR 3045
ENCODING 12357
SWIDTH 1200 0
DWIDTH 20 0
BBX 20 20 0 -3
BITMAP
000000
000000
000000
000000
038000
006000
00F000
000000
00E000
1B1800
0C0C00
000C00
000C00
000800
001800
001000
002000
004000
038000
000000
ENDCHAR
STARTCHAR 3046
ENCODING 12358
SWIDTH 1200 0
DWIDTH 20 0
BBX 20 20 0 -3
BITMAP
00C000
003800
001E00
006600
000000
000000
003C00
08C200
0F0100
060180
000180
000180
000180
000100
000300
000200
000400
000800
003000
00C000
ENDCHAR
STARTCHAR 3047
ENCODING 12359
SWIDTH 1200 0
DWIDTH 20 0
BBX 20 20 0 -3
BITMAP
000000
000000
000000
000000
01C000
007000
007000
008800
083C00
0FCC00
061800
002000
004000
01C000
032000
062000
0C2000
183F80
181F00
000000
ENDCHAR
STARTCHAR 3048
ENCODING 12360
SWIDTH 1200 0
DWIDTH 20 0
BBX 20 20 0 -3
BITMAP
010000
00E000
003C00
001C00
006000
000600
083F00
0FC600
060C00
001000
006000
008000
01C000
032000
062000
0C2000
183000
381FE0
300FC0
000000
ENDCHAR
STARTCHAR 3049
ENCODING 12361
SWIDTH 1200 0
DWIDTH 20 0
BBX 20 20 0 -3
BITMAP
000000
000000
000000
000000
060000
030C00
030300
026180
33C200
1F0000
020000
023800
02C600
030300
060300
2A0300
326600
0E1C00
040000
000000
ENDCHAR
STARTCHAR 304A
ENCODING 12362
SWIDTH 1200 0
DWIDTH 20 0
BBX 20 20 0 -3
BITMAP
000000
060000
030000
030300
0230C0
02F060
33C0E0
1E0100
020000
020000
023E00
02C180
0300C0
0600C0
4A00C0
7200C0
2A6380
061E00
040000
000000
ENDCHAR
STARTCHAR 304B
ENCODING 12363
SWIDTH 1200 0
DWIDTH 20 0
BBX 20 20 0 -3
BITMAP
000000
030000
018000
018000
010400
010300
43E080
3F30C0
321040
041060
041060
0411E0
081040
081000
102000
322000
61E000
60C000
008000
000000
ENDCHAR
STARTCHAR 304C
ENCODING 12364
SWIDTH 1200 0
DWIDTH 20 0
BBX 20 20 0 -3
BITMAP
000040
030230
018190
018080
010400
010300
43E080
3F30C0
321040
041060
041060
0411E0
081040
081000
102000
322000
61E000
60C000
008000
000000
ENDCHAR
STARTCHAR 304D
ENCODING 12365
SWIDTH 1200 0
DWIDTH 20 0
BBX 20 20 0 -3
BITMAP
00C000
006000
006000
002700
1FFE00
0F9000
0019C0
000F80
1FFC00
0F8400
000600
000200
01FB00
060780
080180
080000
060000
03FE00
00FC00
000000
ENDCHAR
STARTCHAR 304E
ENCODING 12366
SWIDTH 1200 0
DWIDTH 20 0
BBX 20 20 0 -3
BITMAP
00C040
006030
006110
0026C0
1FFC40
0F9000
0019C0
000F80
1FFC00
0F8400
000600
000200
01FB00
060780
080180
080000
060000
03FE00
00FC00
000000
ENDCHAR
STARTCHAR 304F
ENCODING 12367
SWIDTH 1200 0
DWIDTH 20 0
BBX 20 20 0 -3
BITMAP
000800
000C00
001C00
001800
003000
004000
018000
060000
080000
080000
060000
030000
00C000
006000
003000
001800
001800
000C00
000C00
000000
ENDCHAR
STARTCHAR 3050
ENCODING 12368
SWIDTH 1200 0
DWIDTH 20 0
BBX 20 20 0 -3
BITMAP
001000
001840
003A30
003190
006080
008000
030000
0C0000
100000
100000
0C0000
060000
018000
00C000
006000
003000
003000
001800
001800
000000
ENDCHAR
STARTCHAR 3051
ENCODING 12369
SWIDTH 1200 0
DWIDTH 20 0
BBX 20 20 0 -3
BITMAP
000800
100600
180300
180300
100200
1003C0
313EE0
20E200
200200
200300
240300
240300
280200
380600
380600
180400
100C00
100800
001000
002000
ENDCHAR
STARTCHAR 3052
ENCODING 12370
SWIDTH 1200 0
DWIDTH 20 0
BBX 20 20 0 -3
BITMAP
001040
200C30
300510
3004C0
200440
200780
627DC0
41C400
400400
400600
480600
480600
500400
700C00
700C00
300800
201800
201000
002000
004000
ENDCHAR
STARTCHAR 3053
ENCODING 12371
SWIDTH 1200 0
DWIDTH 20 0
BBX 20 20 0 -3
BITMAP
000000
000000
000000
060000
01FE00
000F00
003800
004000
000000
000000
000000
000000
100000
200000
200000
300000
180000
1FFFC0
07FF80
000000
ENDCHAR
STARTCHAR 3054
ENCODING 12372
SWIDTH 1200 0
DWIDTH 20 0
BBX 20 20 0 -3
BITMAP
000040
000130
0000D0
060040
01FE00
000F00
003800
004000
000000
000000
000000
000000
100000
200000
200000
300000
180000
1FFFC0
07FF80
000000
ENDCHAR
STARTCHAR 3055
ENCODING 12373
SWIDTH 1200 0
DWIDTH 20 0
BBX 20 20 0 -3
BITMAP
002000
006000
003200
003180
001380
1FFE00
0F9800
000800
000400
000400
00FA00
030700
040380
080180
080000
040000
070000
01FC00
007E00
000000
ENDCHAR
STARTCHAR 3056
ENCODING 12374
SWIDTH 1200 0
DWIDTH 20 0
BBX 20 20 0 -3
BITMAP
002040
006130
0030D0
003040
001300
1FFE00
0F9800
000800
000400
000400
00FA00
030700
040380
080180
080000
040000
070000
01FC00
007E00
000000
ENDCHAR
STARTCHAR 3057
ENCODING 12375
SWIDTH 1200 0
DWIDTH 20 0
BBX 20 20 0 -3
BITMAP
000000
180000
0C0000
0C0000
0C0000
0C0000
0C0000
0C0000
0C0000
080000
080000
080000
080000
080080
080100
080200
040C00
063800
03E000
000000
ENDCHAR
STARTCHAR 3058
ENCODING 12376
SWIDTH 1200 0
DWIDTH 20 0
BBX 20 20 0 -3
BITMAP
000000
180200
0C0180
0C0880
0C0600
0C0200
0C0000
0C0000
0C0000
080000
080000
080000
080000
080080
080100
080200
040C00
063800
03E000
000000
ENDCHAR
STARTCHAR 3059
ENCODING 12377
SWIDTH 1200 0
DWIDTH 20 0
BBX 20 20 0 -3
BITMAP
006000
003800
001800
001800
0011C0
407FE0
7F9000
381000
00F000
011000
011800
011800
01B800
00D800
001000
003000
002000
004000
008000
010000
ENDCHAR
STARTCHAR 305A
ENCODING 12378
SWIDTH 1200 0
DWIDTH 20 0
BBX 20 20 0 -3
BITMAP
006040
003A30
001990
001880
0010C0
407FE0
7F9000
381000
00F000
011000
011800
011800
01B800
00D800
001000
003000
002000
004000
008000
010000
ENDCHAR
STARTCHAR 305B
ENCODING 12379
SWIDTH 1200 0
DWIDTH 20 0
BBX 20 20 0 -3
BITMAP
000000
000C00
000600
000600
060400
030400
0304E0
021FF0
43E400
7F0400
3A0400
022400
021C00
021800
020000
030000
018000
01FF80
007F00
000000
ENDCHAR
STARTCHAR 305C
ENCODING 12380
SWIDTH 1200 0
DWIDTH 20 0
BBX 20 20 0 -3
BITMAP
000040
001930
000CD0
000C40
0C0800
060800
0609C0
043FE0
87C800
FE0800
740800
044800
043800
043000
040000
060000
030000
03FF00
00FE00
000000
ENDCHAR
STARTCHAR 305D
ENCODING 12381
SWIDTH 1200 0
DWIDTH 20 0
BBX 20 20 0 -3
BITMAP
000000
000C00
047600
07CC00
031800
002000
004000
0087C0
017FE0
47B000
7C4000
308000
008000
010000
010000
008000
00C000
007C00
001E00
000000
ENDCHAR
STARTCHAR 305E
ENCODING 12382
SWIDTH 1200 0
DWIDTH 20 0
BBX 20 20 0 -3
BITMAP
000040
000C30
047610
07CC80
031860
002020
004000
0087C0
017FE0
47B000
7C4000
308000
008000
010000
010000
008000
00C000
007C00
001E00
000000
ENDCHAR
STARTCHAR 305F
ENCODING 12383
SWIDTH 1200 0
DWIDTH 20 0
BBX 20 20 0 -3
BITMAP
000000
060000
030000
030000
036000
43C000
7E1F00
3601C0
0403C0
040400
0C0000
080000
080000
180000
108000
308000
30C000
607FC0
601FC0
000000
ENDCHAR
STARTCHAR 3060
ENCODING 12384
SWIDTH 1200 0
DWIDTH 20 0
BBX 20 20 0 -3
BITMAP
000080
060060
030220
030180
036080
43C000
7E1F00
3601C0
0403C0
040400
0C0000
080000
080000
180000
108000
308000
30C000
607FC0
601FC0
000000
ENDCHAR
STARTCHAR 3061
ENCODING 12385
SWIDTH 1200 0
DWIDTH 20 0
BBX 20 20 0 -3
BITMAP
030000
018000
018000
018000
011C00
337800
1FC000
020000
020000
060000
043E00
04C180
0F00C0
0E00C0
0C00C0
000180
000300
000E00
007000
000000
ENDCHAR
STARTCHAR 3062
ENCODING 12386
SWIDTH 1200 0
DWIDTH 20 0
BBX 20 20 0 -3
BITMAP
030040
018030
018110
0180C0
011C40
337800
1FC000
020000
020000
060000
043E00
04C180
0F00C0
0E00C0
0C00C0
000180
000300
000E00
007000
000000
ENDCHAR
STARTCHAR 3063
ENCODING 12387
SWIDTH 1200 0
DWIDTH 20 0
BBX 20 20 0 -3
BITMAP
000000
000000
000000
000000
000000
000000
000000
000000
000000
003C00
11C300
1F0180
0C0180
000180
000180
000300
000600
001800
00E000
000000
ENDCHAR
STARTCHAR 3064
ENCODING 12388
SWIDTH 1200 0
DWIDTH 20 0
BBX 20 20 0 -3
BITMAP
000000
000000
000000
000000
001E00
00E180
4700C0
7C0060
300060
000060
000060
0000C0
000080
000300
000E00
00F000
000000
000000
000000
000000
ENDCHAR
STARTCHAR 3065
ENCODING 12389
SWIDTH 1200 0
DWIDTH 20 0
BBX 20 20 0 -3
BITMAP
000040
000230
000190
000080
000000
001E00
00E180
4700C0
7C0060
300060
000060
000060
0000C0
000080
000300
000E00
00F000
000000
000000
000000
ENDCHAR
STARTCHAR 3066
ENCODING 12390
SWIDTH 1200 0
DWIDTH 20 0
BBX 20 20 0 -3
BITMAP
000000
000000
0003C0
001FE0
41EC00
7E1000
382000
004000
004000
008000
008000
008000
008000
004000
004000
003000
001E00
000700
000000
000000
ENDCHAR
STARTCHAR 3067
ENCODING 12391
SWIDTH 1200 0
DWIDTH 20 0
BBX 20 20 0 -3
BITMAP
000000
000000
0003C0
001FE0
41EC00
7E1080
382060
004220
004180
008080
008000
008000
008000
004000
004000
003000
001E00
000700
000000
000000
ENDCHAR
STARTCHAR 3068
ENCODING 12392
SWIDTH 1200 0
DWIDTH 20 0
BBX 20 20 0 -3
BITMAP
000000
030000
018000
018000
018000
018000
010200
010700
010E00
013800
00E000
018000
020000
040000
080000
080000
0C0000
07FF00
01FE00
000000
ENDCHAR
STARTCHAR 3069
ENCODING 12393
SWIDTH 1200 0
DWIDTH 20 0
BBX 20 20 0 -3
BITMAP
000000
030080
018460
018320
018100
018000
010200
010700
010E00
013800
00E000
018000
020000
040000
080000
080000
0C0000
07FF00
01FE00
000000
ENDCHAR
STARTCHAR 306A
ENCODING 12394
SWIDTH 1200 0
DWIDTH 20 0
BBX 20 20 0 -3
BITMAP
000000
018000
00C000
00C000
00B000
1FC300
0D00C0
0101E0
020260
060400
040400
0C0400
180400
380400
300400
00FF00
0105C0
018CC0
007800
000000
ENDCHAR
STARTCHAR 306B
ENCODING 12395
SWIDTH 1200 0
DWIDTH 20 0
BBX 20 20 0 -3
BITMAP
000000
000000
200000
100000
181F00
1861C0
100380
100400
200000
200000
200000
240000
340000
388000
388000
384000
307FC0
101FC0
100000
000000
ENDCHAR
STARTCHAR 306C
ENCODING 12396
SWIDTH 1200 0
DWIDTH 20 0
BBX 20 20 0 -3
BITMAP
000000
003000
001800
001800
101000
187E00
09A380
0E60C0
044040
0CC060
148060
270060
230060
420040
471F80
6D31E0
382370
001C20
000000
000000
ENDCHAR
STARTCHAR 306D
ENCODING 12397
SWIDTH 1200 0
DWIDTH 20 0
BBX 20 20 0 -3
BITMAP
060000
030000
030000
020000
020000
038F00
6F31C0
3B40C0
028060
070060
060060
0E0060
1A0060
1A0040
320FC0
7210E0
6A18B0
060F10
060000
040000
ENDCHAR
STARTCHAR 306E
ENCODING 12398
SWIDTH 1200 0
DWIDTH 20 0
BBX 20 20 0 -3
BITMAP
000000
000000
000000
00FC00
034300
042180
0860C0
104040
20C060
208060
418060
410060
430060
2200C0
3C0080
180180
000600
003800
000000
000000
ENDCHAR
STARTCHAR 306F
ENCODING 12399
SWIDTH 1200 0
DWIDTH 20 0
BBX 20 20 0 -3
BITMAP
000000
200600
100300
180300
180200
1082E0
10FF80
306200
200200
200200
200200
240200
240200
280200
287F00
3883C0
38C6E0
107C40
100000
000000
ENDCHAR
STARTCHAR 3070
ENCODING 12400
SWIDTH 1200 0
DWIDTH 20 0
BBX 20 20 0 -3
BITMAP
000040
400D30
2006D0
300640
300400
2105C0
21FF00
60C400
400400
400400
400400
480400
480400
500400
70FE00
710780
718DC0
20F880
200000
000000
ENDCHAR
STARTCHAR 3071
ENCODING 12401
SWIDTH 1200 0
DWIDTH 20 0
BBX 20 20 0 -3
BITMAP
000060
400C90
200690
300660
300400
2105C0
21FF00
60C400
400400
400400
400400
480400
480400
500400
70FE00
710780
718DC0
20F880
200000
000000
ENDCHAR
STARTCHAR 3072
ENCODING 12402
SWIDTH 1200 0
DWIDTH 20 0
BBX 20 20 0 -3
BITMAP
000000
000000
018400
078400
7D0600
320200
060300
040380
0802C0
0802E0
100260
100400
100400
100400
100800
181800
0C3000
0FE000
038000
000000
ENDCHAR
STARTCHAR 3073
ENCODING 12403
SWIDTH 1200 0
DWIDTH 20 0
BBX 20 20 0 -3
BITMAP
000040
000030
018410
078480
7D0660
320220
060300
040380
0802C0
0802E0
100260
100400
100400
100400
100800
181800
0C3000
0FE000
038000
000000
ENDCHAR
STARTCHAR 3074
ENCODING 12404
SWIDTH 1200 0
DWIDTH 20 0
BBX 20 20 0 -3
BITMAP
000000
000060
018490
078490
7D0660
320200
060300
040380
0802C0
0802E0
100260
100400
100400
100400
100800
181800
0C3000
0FE000
038000
000000
ENDCHAR
STARTCHAR 3075
ENCODING 12405
SWIDTH 1200 0
DWIDTH 20 0
BBX 20 20 0 -3
BITMAP
000000
008000
004000
002000
003000
007000
00C000
010000
010000
008000
004000
007C00
01E380
4630C0
583060
7833E0
31F060
306000
000000
000000
ENDCHAR
STARTCHAR 3076
ENCODING 12406
SWIDTH 1200 0
DWIDTH 20 0
BBX 20 20 0 -3
BITMAP
000000
008080
004060
002220
003180
007080
00C000
010000
010000
008000
004000
007C00
01E380
4630C0
583060
7833E0
31F060
306000
000000
000000
ENDCHAR
STARTCHAR 3077
ENCODING 12407
SWIDTH 1200 0
DWIDTH 20 0
BBX 20 20 0 -3
BITMAP
000000
008000
004180
002240
003240
007180
00C000
010000
010000
008000
004000
007C00
01E380
4630C0
583060
7833E0
31F060
306000
000000
000000
ENDCHAR
STARTCHAR 3078
ENCODING 12408
SWIDTH 1200 0
DWIDTH 20 0
BBX 20 20 0 -3
BITMAP
000000
000000
000000
000000
000000
038000
044000
0C2000
083000
181000
701800
200C00
000600
000300
0001C0
0000E0
000000
000000
000000
000000
ENDCHAR
STARTCHAR 3079
ENCODING 12409
SWIDTH 1200 0
DWIDTH 20 0
BBX 20 20 0 -3
BITMAP
000000
000080
000060
000220
000180
038080
044000
0C2000
083000
181000
701800
200C00
000600
000300
0001C0
0000E0
000000
000000
000000
000000
ENDCHAR
STARTCHAR 307A
ENCODING 12410
SWIDTH 1200 0
DWIDTH 20 0
BBX 20 20 0 -3
BITMAP
000000
000000
000300
000480
000480
038300
044000
0C2000
083000
181000
701800
200C00
000600
000300
0001C0
0000E0
000000
000000
000000
000000
ENDCHAR
STARTCHAR 307B
ENCODING 12411
SWIDTH 1200 0
DWIDTH 20 0
BBX 20 20 0 -3
BITMAP
000000
300000
1867C0
183C80
100600
100600
102200
30C2C0
207F80
200200
200200
240200
240200
280200
387F00
3883C0
38C660
107C20
100000
000000
ENDCHAR
STARTCHAR 307C
ENCODING 12412
SWIDTH 1200 0
DWIDTH 20 0
BBX 20 20 0 -3
BITMAP
000000
600000
30CF40
307830
200C90
200C60
204420
618580
40FF00
400400
400400
480400
480400
500400
70FE00
710780
718CC0
20F840
200000
000000
ENDCHAR
STARTCHAR 307D
ENCODING 12413
SWIDTH 1200 0
DWIDTH 20 0
BBX 20 20 0 -3
BITMAP
000000
600000
30CF60
307890
200C90
200C60
204400
618580
40FF00
400400
400400
480400
480400
500400
70FE00
710780
718CC0
20F840
200000
000000
ENDCHAR
STARTCHAR 307E
ENCODING 12414
SWIDTH 1200 0
DWIDTH 20 0
BBX 20 20 0 -3
BITMAP
006000
003000
002000
007F80
3FA1C0
1C2200
002000
022000
0C2700
07FE00
002000
002000
002000
002000
003000
0FFE00
183780
186180
07C000
000000
ENDCHAR
STARTCHAR 307F
ENCODING 12415
SWIDTH 1200 0
DWIDTH 20 0
BBX 20 20 0 -3
BITMAP
000000
000000
086000
0FF000
062000
006000
004300
004180
008180
008180
07F900
190700
220380
4602C0
4C0460
380460
000800
001000
006000
000000
ENDCHAR
STARTCHAR 3080
ENCODING 12416
SWIDTH 1200 0
DWIDTH 20 0
BBX 20 20 0 -3
BITMAP
000000
0C0000
070000
030000
028000
73C180
3E0240
020260
0202E0
1E0260
260220
220200
260100
3C0100
1C0100
080180
0C0380
07FF00
03FC00
000000
ENDCHAR
STARTCHAR 3081
ENCODING 12417
SWIDTH 1200 0
DWIDTH 20 0
BBX 20 20 0 -3
BITMAP
000000
003000
001800
001800
101000
18FC00
0B3300
0C2080
0C60C0
144040
228060
238060
410060
438040
4680C0
2C0180
180600
003800
000000
000000
ENDCHAR
STARTCHAR 3082
ENCODING 12418
SWIDTH 1200 0
DWIDTH 20 0
BBX 20 20 0 -3
BITMAP
018000
00C000
00C000
00C000
188000
0E8000
03E000
050000
090000
090200
070100
03F100
026080
020080
020080
020080
020100
010300
01FE00
007800
ENDCHAR
STARTCHAR 3083
ENCODING 12419
SWIDTH 1200 0
DWIDTH 20 0
BBX 20 20 0 -3
BITMAP
000000
000000
000000
000000
008000
007000
082000
045C00
026300
038180
070180
391300
118C00
008000
00C000
004000
006000
006000
006000
000000
ENDCHAR
STARTCHAR 3084
ENCODING 12420
SWIDTH 1200 0
DWIDTH 20 0
BBX 20 20 0 -3
BITMAP
000000
00C000
003000
001800
183000
0C0F00
0630C0
02C060
030060
4D0060
7990C0
308F00
00C000
004000
006000
006000
003000
003000
003000
000000
ENDCHAR
STARTCHAR 3085
ENCODING 12421
SWIDTH 1200 0
DWIDTH 20 0
BBX 20 20 0 -3
BITMAP
000000
000000
000000
000000
00C000
012000
012000
42F000
232C00
262600
2A2600
2A2600
322600
322600
312400
10F800
004000
00C000
008000
010000
ENDCHAR
STARTCHAR 3086
ENCODING 12422
SWIDTH 1200 0
DWIDTH 20 0
BBX 20 20 0 -3
BITMAP
000000
003800
004C00
008C00
40BE00
21CD80
330CC0
350C40
250C60
290C60
290C60
288840
3098C0
305980
103E00
101000
003000
002000
004000
008000
ENDCHAR
STARTCHAR 3087
ENCODING 12423
SWIDTH 1200 0
DWIDTH 20 0
BBX 20 20 0 -3
BITMAP
000000
000000
000000
000000
000000
008000
006000
006000
004000
005E00
007000
004000
004000
004000
004000
0FF000
105C00
18CE00
0F0400
000000
ENDCHAR
STARTCHAR 3088
ENCODING 12424
SWIDTH 1200 0
DWIDTH 20 0
BBX 20 20 0 -3
BITMAP
004000
002000
003000
003000
002000
002300
002F80
003800
002000
002000
002000
002000
002000
002000
0FF000
182E00
102380
186180
0F8000
000000
ENDCHAR
STARTCHAR 3089
ENCODING 12425
SWIDTH 1200 0
DWIDTH 20 0
BBX 20 20 0 -3
BITMAP
008000
006000
001800
000C00
00FC00
030000
040000
040000
040000
0C0000
0C3E00
0CC180
0D0080
0E00C0
0C00C0
000080
000180
000700
007800
000000
ENDCHAR
STARTCHAR 308A
ENCODING 12426
SWIDTH 1200 0
DWIDTH 20 0
BBX 20 20 0 -3
BITMAP
080000
041800
066400
068600
068200
050300
050300
0D0300
0A0300
0A0300
0E0300
040200
040200
040600
000400
000C00
000800
001000
002000
00C000
ENDCHAR
STARTCHAR 308B
ENCODING 12427
SWIDTH 1200 0
DWIDTH 20 0
BBX 20 20 0 -3
BITMAP
000000
000C00
063E00
03CC00
031800
003000
006000
004000
008000
017C00
038300
060180
0C0080
1C00C0
1800C0
00F0C0
019980
018B00
00FC00
000000
ENDCHAR
STARTCHAR 308C
ENCODING 12428
SWIDTH 1200 0
DWIDTH 20 0
BBX 20 20 0 -3
BITMAP
060000
030000
030000
020000
020000
038E00
6F3300
3B4300
028300
070300
060200
0E0200
1A0400
1A0400
320400
720610
6A0660
0603C0
060000
040000
ENDCHAR
STARTCHAR 308D
ENCODING 12429
SWIDTH 1200 0
DWIDTH 20 0
BBX 20 20 0 -3
BITMAP
000000
000C00
047E00
07CC00
031800
003000
002000
004000
008000
01BC00
03C300
070180
0E00C0
1C00C0
1800C0
000080
000180
000600
007800
000000
ENDCHAR
STARTCHAR 308E
ENCODING 12430
SWIDTH 1200 0
DWIDTH 20 0
BBX 20 20 0 -3
BITMAP
000000
000000
000000
000000
060000
030000
020000
030000
363800
1EC600
030300
020100
060100
0A0100
1A0300
320600
2A0C00
063000
040000
000000
ENDCHAR
STARTCHAR 308F
ENCODING 12431
SWIDTH 1200 0
DWIDTH 20 0
BBX 20 20 0 -3
BITMAP
060000
030000
030000
020000
020000
038000
6F1E00
3B6180
0280C0
070040
060060
0E0060
1A0060
1A0040
3200C0
720080
6A0300
061C00
060000
040000
ENDCHAR
STARTCHAR 3090
ENCODING 12432
SWIDTH 1200 0
DWIDTH 20 0
BBX 20 20 0 -3
BITMAP
000000
000000
000C00
07FE00
030C00
001800
001000
002000
00FE00
034380
0440C0
088040
118060
310060
220060
261C40
3C22C0
183180
001E00
000000
ENDCHAR
STARTCHAR 3091
ENCODING 12433
SWIDTH 1200 0
DWIDTH 20 0
BBX 20 20 0 -3
BITMAP
000000
000800
03FC00
01B000
002000
004000
00F800
038600
0E0300
0CC300
016200
012C00
00F000
008000
030000
0C0F00
3B98C0
70E060
6061E0
000200
ENDCHAR
STARTCHAR 3092
ENCODING 12434
SWIDTH 1200 0
DWIDTH 20 0
BBX 20 20 0 -3
BITMAP
008000
006000
006000
004000
10BC00
1FE000
0C8080
0100C0
03C180
066600
0C3800
187000
18B000
013000
022000
040000
060000
03FE00
01FC00
000000
ENDCHAR
STARTCHAR 3093
ENCODING 12435
SWIDTH 1200 0
DWIDTH 20 0
BBX 20 20 0 -3
BITMAP
000000
00C000
006000
006000
00C000
008000
018000
010000
020000
020000
05C000
064020
0C2020
182040
182040
302080
301180
601F00
600E00
000000
ENDCHAR
STARTCHAR 309B
ENCODING 12443
SWIDTH 1200 0
DWIDTH 20 0
BBX 20 20 0 -3
BITMAP
040000
420000
230000
310000
110000
100000
000000
000000
000000
000000
000000
000000
000000
000000
000000
000000
000000
000000
000000
000000
ENDCHAR
STARTCHAR 309C
ENCODING 12444
SWIDTH 1200 0
DWIDTH 20 0
BBX 20 20 0 -3
BITMAP
000000
000000
380000
440000
440000
440000
380000
000000
000000
000000
000000
000000
000000
000000
000000
000000
000000
000000
000000
000000
ENDCHAR
STARTCHAR 309D
ENCODING 12445
SWIDTH 1200 0
DWIDTH 20 0
BBX 20 20 0 -3
BITMAP
000000
000000
000000
000000
000000
020000
010000
008000
00C000
006000
003800
001C00
003C00
00C000
000000
000000
000000
000000
000000
000000
ENDCHAR
STARTCHAR 309E
ENCODING 12446
SWIDTH 1200 0
DWIDTH 20 0
BBX 20 20 0 -3
BITMAP
000000
000000
000100
0008C0
000640
020200
010000
008000
00C000
006000
003800
001C00
003C00
00C000
000000
000000
000000
000000
000000
000000
ENDCHAR
STARTCHAR 30A1
ENCODING 12449
SWIDTH 1200 0
DWIDTH 20 0
BBX 20 20 0 -3
BITMAP
000000
000000
000000
000000
000000
000000
000600
1FFF00
0E0700
008C00
005000
004000
00C000
00C000
008000
018000
010000
020000
040000
000000
ENDCHAR
STARTCHAR 30A2
ENCODING 12450
SWIDTH 1200 0
DWIDTH 20 0
BBX 20 20 0 -3
BITMAP
000000
000000
000180
203FE0
3FE0C0
1C0180
006200
003400
003000
002000
006000
006000
004000
00C000
008000
018000
010000
020000
040000
000000
ENDCHAR
STARTCHAR 30A3
ENCODING 12451
SWIDTH 1200 0
DWIDTH 20 0
BBX 20 20 0 -3
BITMAP
000000
000000
000000
000000
000000
000800
000C00
001800
003000
006000
00C000
01C000
026000
0C6000
306000
006000
006000
006000
004000
000000
ENDCHAR
STARTCHAR 30A4
ENCODING 12452
SWIDTH 1200 0
DWIDTH 20 0
BBX 20 20 0 -3
BITMAP
000200
000180
000180
000300
000600
000C00
001800
003000
005000
019800
021800
0C1800
301800
001800
001800
001800
001800
001800
001000
000000
ENDCHAR
STARTCHAR 30A5
ENCODING 12453
SWIDTH 1200 0
DWIDTH 20 0
BBX 20 20 0 -3
BITMAP
000000
000000
000000
000000
00C000
006000
006000
004600
18FF00
0F8600
0C0600
0C0600
080400
000C00
001800
001000
002000
00C000
030000
000000
ENDCHAR
STARTCHAR 30A6
ENCODING 12454
SWIDTH 1200 0
DWIDTH 20 0
BBX 20 20 0 -3
BITMAP
000000
006000
003000
003000
1020C0
183FE0
1FE0C0
1800C0
1800C0
180180
180180
080100
000300
000200
000400
000800
001000
006000
018000
000000
ENDCHAR
STARTCHAR 30A7
ENCODING 12455
SWIDTH 1200 0
DWIDTH 20 0
BBX 20 20 0 -3
BITMAP
000000
000000
000000
000000
000000
000000
000000
000C00
0FFE00
064000
006000
006000
004000
004000
004000
01FF00
3E0380
180000
000000
000000
ENDCHAR
STARTCHAR 30A8
ENCODING 12456
SWIDTH 1200 0
DWIDTH 20 0
BBX 20 20 0 -3
BITMAP
000000
000000
000000
000000
000E00
1FFF00
0E4000
006000
006000
006000
004000
004000
004000
004000
00FFC0
7F01E0
380000
000000
000000
000000
ENDCHAR
STARTCHAR 30A9
ENCODING 12457
SWIDTH 1200 0
DWIDTH 20 0
BBX 20 20 0 -3
BITMAP
000000
000000
000000
000000
003000
001800
001800
001800
001300
1FFF80
0C3000
007000
00D000
019000
021000
041000
18B000
007000
002000
000000
ENDCHAR
STARTCHAR 30AA
ENCODING 12458
SWIDTH 1200 0
DWIDTH 20 0
BBX 20 20 0 -3
BITMAP
001000
001800
000C00
000C00
000800
0009C0
7FFFE0
3C1800
003800
006800
00C800
018800
030800
060800
0C0800
100800
605800
003800
001000
000000
ENDCHAR
STARTCHAR 30AB
ENCODING 12459
SWIDTH 1200 0
DWIDTH 20 0
BBX 20 20 0 -3
BITMAP
000000
00C000
006000
006000
006000
004180
007FC0
3FC080
1CC180
018180
018180
030100
020300
060300
040200
080600
106C00
201C00
401800
000000
ENDCHAR
STARTCHAR 30AC
ENCODING 12460
SWIDTH 1200 0
DWIDTH 20 0
BBX 20 20 0 -3
BITMAP
000040
00C030
006110
0060C0
006040
004180
007FC0
3FC080
1CC180
018180
018180
030100
020300
060300
040200
080600
106C00
201C00
401800
000000
ENDCHAR
STARTCHAR 30AD
ENCODING 12461
SWIDTH 1200 0
DWIDTH 20 0
BBX 20 20 0 -3
BITMAP
000000
018000
00C000
00C000
004F00
007C00
3FC000
1C6000
0020C0
0027E0
007800
03A000
7C3000
381000
001000
001800
001800
001800
001800
000000
ENDCHAR
STARTCHAR 30AE
ENCODING 12462
SWIDTH 1200 0
DWIDTH 20 0
BBX 20 20 0 -3
BITMAP
000040
018130
00C0D0
00C040
004F00
007C00
3FC000
1C6000
0020C0
0027E0
007800
03A000
7C3000
381000
001000
001800
001800
001800
001800
000000
ENDCHAR
STARTCHAR 30AF
ENCODING 12463
SWIDTH 1200 0
DWIDTH 20 0
BBX 20 20 0 -3
BITMAP
000000
00C000
006000
00C180
00CFC0
01B080
018180
030180
040300
080300
100600
000400
000C00
001800
003000
006000
008000
030000
0C0000
000000
ENDCHAR
STARTCHAR 30B0
ENCODING 12464
SWIDTH 1200 0
DWIDTH 20 0
BBX 20 20 0 -3
BITMAP
000040
018030
00C090
018260
019FA0
036100
030300
060300
080600
100600
200C00
000800
001800
003000
006000
00C000
010000
060000
180000
000000
ENDCHAR
STARTCHAR 30B1
ENCODING 12465
SWIDTH 1200 0
DWIDTH 20 0
BBX 20 20 0 -3
BITMAP
000000
030000
018000
018000
030000
0301C0
063FE0
07E800
0C0C00
180C00
200800
401800
001000
003000
002000
004000
008000
010000
060000
000000
ENDCHAR
STARTCHAR 30B2
ENCODING 12466
SWIDTH 1200 0
DWIDTH 20 0
BBX 20 20 0 -3
BITMAP
000040
030230
018190
018080
030000
0301C0
063FE0
07E800
0C0C00
180C00
200800
401800
001000
003000
002000
004000
008000
010000
060000
000000
ENDCHAR
STARTCHAR 30B3
ENCODING 12467
SWIDTH 1200 0
DWIDTH 20 0
BBX 20 20 0 -3
BITMAP
000000
000000
000000
000000
000180
1FFFC0
0E0180
000180
000100
000100
000300
000200
000200
000300
3FFF00
1C0300
000000
000000
000000
000000
ENDCHAR
STARTCHAR 30B4
ENCODING 12468
SWIDTH 1200 0
DWIDTH 20 0
BBX 20 20 0 -3
BITMAP
000040
000230
000190
000080
000300
1FFFC0
0E0180
000180
000100
000100
000300
000200
000200
000300
3FFF00
1C0300
000000
000000
000000
000000
ENDCHAR
STARTCHAR 30B5
ENCODING 12469
SWIDTH 1200 0
DWIDTH 20 0
BBX 20 20 0 -3
BITMAP
000000
000C00
060600
030600
030600
0306C0
433FE0
7FE600
330600
030600
030400
030400
010C00
000800
001800
001000
002000
004000
018000
000000
ENDCHAR
STARTCHAR 30B6
ENCODING 12470
SWIDTH 1200 0
DWIDTH 20 0
BBX 20 20 0 -3
BITMAP
000040
000D30
0606D0
030640
030600
0306C0
433FE0
7FE600
330600
030600
030400
030400
010C00
000800
001800
001000
002000
004000
018000
000000
ENDCHAR
STARTCHAR 30B7
ENCODING 12471
SWIDTH 1200 0
DWIDTH 20 0
BBX 20 20 0 -3
BITMAP
000000
000000
000000
060000
018000
00C000
00C000
000020
180040
060080
030180
030300
000600
000C00
001800
007000
11E000
0F8000
0E0000
000000
ENDCHAR
STARTCHAR 30B8
ENCODING 12472
SWIDTH 1200 0
DWIDTH 20 0
BBX 20 20 0 -3
BITMAP
000000
000080
000460
060320
018100
00C000
00C000
000020
180040
060080
030180
030300
000600
000C00
001800
007000
11E000
0F8000
0E0000
000000
ENDCHAR
STARTCHAR 30B9
ENCODING 12473
SWIDTH 1200 0
DWIDTH 20 0
BBX 20 20 0 -3
BITMAP
000000
000000
000000
000600
0FFF00
078600
000C00
001800
001800
003000
007000
004800
008600
010300
020180
0401C0
0800C0
300080
000000
000000
ENDCHAR
STARTCHAR 30BA
ENCODING 12474
SWIDTH 1200 0
DWIDTH 20 0
BBX 20 20 0 -3
BITMAP
000040
000130
0000D0
000640
0FFF00
070600
000C00
001800
001800
003000
007000
004800
008600
010300
020180
0401C0
0800C0
300080
000000
000000
ENDCHAR
STARTCHAR 30BB
ENCODING 12475
SWIDTH 1200 0
DWIDTH 20 0
BBX 20 20 0 -3
BITMAP
000000
000000
030000
018000
018000
018000
0181C0
011FE0
01F0C0
7F0300
390600
010800
010000
010000
010000
01C000
00FF80
003F80
000000
000000
ENDCHAR
STARTCHAR 30BC
ENCODING 12476
SWIDTH 1200 0
DWIDTH 20 0
BBX 20 20 0 -3
BITMAP
000040
000030
030110
0180C0
018040
018000
0181C0
011FE0
01F0C0
7F0300
390600
010800
010000
010000
010000
01C000
00FF80
003F80
000000
000000
ENDCHAR
STARTCHAR 30BD
ENCODING 12477
SWIDTH 1200 0
DWIDTH 20 0
BBX 20 20 0 -3
BITMAP
000000
000000
000200
100180
080180
060180
060300
030300
030300
020600
000600
000C00
000800
001800
003000
006000
00C000
010000
060000
000000
ENDCHAR
STARTCHAR 30BE
ENCODING 12478
SWIDTH 1200 0
DWIDTH 20 0
BBX 20 20 0 -3
BITMAP
000040
000130
0004D0
200240
100300
0C0300
0C0600
060600
060600
040C00
000C00
001800
001000
003000
006000
00C000
018000
020000
0C0000
000000
ENDCHAR
STARTCHAR 30BF
ENCODING 12479
SWIDTH 1200 0
DWIDTH 20 0
BBX 20 20 0 -3
BITMAP
000000
00C000
006000
00C180
00CFC0
01B080
018180
030180
04C300
083300
101E00
000C00
000C00
001800
003000
006000
008000
030000
0C0000
000000
ENDCHAR
STARTCHAR 30C0
ENCODING 12480
SWIDTH 1200 0
DWIDTH 20 0
BBX 20 20 0 -3
BITMAP
000040
018030
00C090
018360
019FA0
036100
030300
060300
098600
106600
203C00
001800
001800
003000
006000
00C000
010000
060000
180000
000000
ENDCHAR
STARTCHAR 30C1
ENCODING 12481
SWIDTH 1200 0
DWIDTH 20 0
BBX 20 20 0 -3
BITMAP
000000
000600
001F00
00E000
0FB800
003000
003000
00FFC0
7FB1E0
383000
002000
006000
006000
004000
00C000
008000
010000
020000
040000
000000
ENDCHAR
STARTCHAR 30C2
ENCODING 12482
SWIDTH 1200 0
DWIDTH 20 0
BBX 20 20 0 -3
BITMAP
000040
000630
001E90
00E060
0FB820
003000
003000
00FFC0
7FB1E0
383000
002000
006000
006000
004000
00C000
008000
010000
020000
040000
000000
ENDCHAR
STARTCHAR 30C3
ENCODING 12483
SWIDTH 1200 0
DWIDTH 20 0
BBX 20 20 0 -3
BITMAP
000000
000000
000000
000000
000000
000000
010000
008400
10C300
08C300
0C0600
0C0600
000C00
000800
001000
002000
004000
008000
030000
000000
ENDCHAR
STARTCHAR 30C4
ENCODING 12484
SWIDTH 1200 0
DWIDTH 20 0
BBX 20 20 0 -3
BITMAP
000000
000000
008100
00C080
1040C0
1860C0
0C6180
0C6180
0C0180
000300
000300
000600
000C00
000800
001000
002000
004000
018000
060000
000000
ENDCHAR
STARTCHAR 30C5
ENCODING 12485
SWIDTH 1200 0
DWIDTH 20 0
BBX 20 20 0 -3
BITMAP
000040
000130
0100D0
018240
208100
30C180
18C300
18C300
180300
000600
000600
000C00
001800
001000
002000
004000
008000
030000
0C0000
000000
ENDCHAR
STARTCHAR 30C6
ENCODING 12486
SWIDTH 1200 0
DWIDTH 20 0
BBX 20 20 0 -3
BITMAP
000000
000000
000E00
0FFF00
070000
000000
000000
00FFC0
7F21E0
383000
003000
006000
006000
004000
00C000
008000
010000
020000
040000
000000
ENDCHAR
STARTCHAR 30C7
ENCODING 12487
SWIDTH 1200 0
DWIDTH 20 0
BBX 20 20 0 -3
BITMAP
000040
000030
001C10
1FFE80
0E0060
000020
000000
01FF80
FE43C0
706000
006000
00C000
00C000
008000
018000
010000
020000
040000
080000
000000
ENDCHAR
STARTCHAR 30C8
ENCODING 12488
SWIDTH 1200 0
DWIDTH 20 0
BBX 20 20 0 -3
BITMAP
018000
00C000
00C000
00C000
00C000
008000
008000
008000
00F000
009E00
008700
008300
008000
008000
008000
018000
018000
018000
008000
000000
ENDCHAR
STARTCHAR 30C9
ENCODING 12489
SWIDTH 1200 0
DWIDTH 20 0
BBX 20 20 0 -3
BITMAP
018000
00C080
00C060
00C220
00C180
008080
008000
008000
00F000
009E00
008700
008300
008000
008000
018000
018000
018000
018000
008000
000000
ENDCHAR
STARTCHAR 30CA
ENCODING 12490
SWIDTH 1200 0
DWIDTH 20 0
BBX 20 20 0 -3
BITMAP
000000
006000
003000
003000
002000
002000
00FFC0
7FA1E0
382000
006000
006000
004000
004000
00C000
008000
018000
010000
020000
040000
000000
ENDCHAR
STARTCHAR 30CB
ENCODING 12491
SWIDTH 1200 0
DWIDTH 20 0
BBX 20 20 0 -3
BITMAP
000000
000000
000000
000000
000000
080E00
0FFF00
070000
000000
000000
000000
000000
000000
000000
41FFC0
7F01E0
380000
000000
000000
000000
ENDCHAR
STARTCHAR 30CC
ENCODING 12492
SWIDTH 1200 0
DWIDTH 20 0
BBX 20 20 0 -3
BITMAP
000000
000000
000300
003F80
0FE300
070600
000600
000C00
00D800
003000
003800
006E00
00C700
018380
030180
060180
080000
300000
000000
000000
ENDCHAR
STARTCHAR 30CD
ENCODING 12493
SWIDTH 1200 0
DWIDTH 20 0
BBX 20 20 0 -3
BITMAP
00C000
007000
003000
000600
003F00
0FE600
060C00
001800
003000
006000
00DC00
016700
0261C0
0C60C0
306000
006000
006000
006000
006000
000000
ENDCHAR
STARTCHAR 30CE
ENCODING 12494
SWIDTH 1200 0
DWIDTH 20 0
BBX 20 20 0 -3
BITMAP
000000
000000
000300
000180
000180
000300
000300
000600
000400
000C00
001800
001000
002000
004000
008000
010000
020000
0C0000
300000
000000
ENDCHAR
STARTCHAR 30CF
ENCODING 12495
SWIDTH 1200 0
DWIDTH 20 0
BBX 20 20 0 -3
BITMAP
000000
000000
000000
000000
001000
040800
030400
030600
020300
060100
040180
0C00C0
0800C0
1000E0
200060
C00060
000000
000000
000000
000000
ENDCHAR
STARTCHAR 30D0
ENCODING 12496
SWIDTH 1200 0
DWIDTH 20 0
BBX 20 20 0 -3
BITMAP
000000
000080
000460
000320
001100
040800
030400
030600
020300
060100
040180
0C00C0
0800C0
1000E0
200060
C00060
000000
000000
000000
000000
ENDCHAR
STARTCHAR 30D1
ENCODING 12497
SWIDTH 1200 0
DWIDTH 20 0
BBX 20 20 0 -3
BITMAP
000000
0000C0
000120
000120
0010C0
040800
030400
030600
020300
060100
040180
0C00C0
0800C0
1000E0
200060
C00060
000000
000000
000000
000000
ENDCHAR
STARTCHAR 30D2
ENCODING 12498
SWIDTH 1200 0
DWIDTH 20 0
BBX 20 20 0 -3
BITMAP
000000
180000
0C0000
0C0000
0C0000
080000
080600
083F00
0FF000
080000
080000
080000
080000
080000
080000
0C0000
07FF00
01FE00
000000
000000
ENDCHAR
STARTCHAR 30D3
ENCODING 12499
SWIDTH 1200 0
DWIDTH 20 0
BBX 20 20 0 -3
BITMAP
000040
180030
0C0110
0C00C0
0C0040
080000
080600
083F00
0FF000
080000
080000
080000
080000
080000
080000
0C0000
07FF00
01FE00
000000
000000
ENDCHAR
STARTCHAR 30D4
ENCODING 12500
SWIDTH 1200 0
DWIDTH 20 0
BBX 20 20 0 -3
BITMAP
000000
180060
0C0090
0C0090
0C0060
080000
080600
083F00
0FF000
080000
080000
080000
080000
080000
080000
0C0000
07FF00
01FE00
000000
000000
ENDCHAR
STARTCHAR 30D5
ENCODING 12501
SWIDTH 1200 0
DWIDTH 20 0
BBX 20 20 0 -3
BITMAP
000000
000000
000000
0000C0
101FE0
1FF0C0
0E00C0
000080
000180
000180
000100
000300
000600
000400
000800
001000
002000
00C000
030000
000000
ENDCHAR
STARTCHAR 30D6
ENCODING 12502
SWIDTH 1200 0
DWIDTH 20 0
BBX 20 20 0 -3
BITMAP
000040
000130
0000D0
000140
203F80
3FE180
1C0180
000100
000300
000300
000200
000600
000C00
000800
001000
002000
004000
018000
060000
000000
ENDCHAR
STARTCHAR 30D7
ENCODING 12503
SWIDTH 1200 0
DWIDTH 20 0
BBX 20 20 0 -3
BITMAP
000060
000090
000090
000160
203F80
3FE180
1C0180
000100
000300
000300
000200
000600
000C00
000800
001000
002000
004000
018000
060000
000000
ENDCHAR
STARTCHAR 30D8
ENCODING 12504
SWIDTH 1200 0
DWIDTH 20 0
BBX 20 20 0 -3
BITMAP
000000
000000
000000
000000
010000
038000
024000
042000
0C1000
181800
700C00
200600
000380
0001E0
0000E0
000000
000000
000000
000000
000000
ENDCHAR
STARTCHAR 30D9
ENCODING 12505
SWIDTH 1200 0
DWIDTH 20 0
BBX 20 20 0 -3
BITMAP
000000
000080
000060
000220
010180
038080
024000
042000
0C1000
181800
700C00
200600
000380
0001E0
0000E0
000000
000000
000000
000000
000000
ENDCHAR
STARTCHAR 30DA
ENCODING 12506
SWIDTH 1200 0
DWIDTH 20 0
BBX 20 20 0 -3
BITMAP
000000
000000
000180
000240
010240
038180
024000
042000
0C1000
181800
700C00
200600
000380
0001E0
0000E0
000000
000000
000000
000000
000000
ENDCHAR
STARTCHAR 30DB
ENCODING 12507
SWIDTH 1200 0
DWIDTH 20 0
BBX 20 20 0 -3
BITMAP
000000
00C000
006000
006000
006000
004000
007F80
7FC3C0
384000
004000
004400
084200
0C4100
184180
1040C0
2040C0
416000
00E000
00C000
000000
ENDCHAR
STARTCHAR 30DC
ENCODING 12508
SWIDTH 1200 0
DWIDTH 20 0
BBX 20 20 0 -3
BITMAP
000040
00C130
0060D0
006040
006000
004000
007F80
7FC3C0
384000
004000
004400
084200
0C4100
184180
1040C0
2040C0
416000
00E000
00C000
000000
ENDCHAR
STARTCHAR 30DD
ENCODING 12509
SWIDTH 1200 0
DWIDTH 20 0
BBX 20 20 0 -3
BITMAP
0000C0
00C120
006120
0060C0
006000
004000
007F80
7FC3C0
384000
004000
004400
084200
0C4100
184180
1040C0
2040C0
416000
00E000
00C000
000000
ENDCHAR
STARTCHAR 30DE
ENCODING 12510
SWIDTH 1200 0
DWIDTH 20 0
BBX 20 20 0 -3
BITMAP
000000
000000
000000
000000
0000C0
003FE0
7FE0C0
380180
000300
000400
000800
033000
00C000
007000
003800
001C00
000C00
000000
000000
000000
ENDCHAR
STARTCHAR 30DF
ENCODING 12511
SWIDTH 1200 0
DWIDTH 20 0
BBX 20 20 0 -3
BITMAP
000000
000000
030000
00E000
003C00
000E00
000600
000000
030000
00E000
003800
001C00
000C00
000000
0E0000
01C000
007000
001C00
000E00
000600
ENDCHAR
STARTCHAR 30E0
ENCODING 12512
SWIDTH 1200 0
DWIDTH 20 0
BBX 20 20 0 -3
BITMAP
000000
000000
00C000
006000
006000
00C000
00C000
008000
018000
010000
010800
020600
020300
040180
047FC0
7FC0C0
3C00C0
000000
000000
000000
ENDCHAR
STARTCHAR 30E1
ENCODING 12513
SWIDTH 1200 0
DWIDTH 20 0
BBX 20 20 0 -3
BITMAP
000000
000000
000300
000180
000180
000300
000300
000600
018400
006C00
001800
001C00
002600
004300
008300
010000
020000
0C0000
300000
000000
ENDCHAR
STARTCHAR 30E2
ENCODING 12514
SWIDTH 1200 0
DWIDTH 20 0
BBX 20 20 0 -3
BITMAP
000000
000000
000000
000E00
1FFF00
0E8000
00C000
00C000
0083C0
00BFE0
7FE000
388000
008000
008000
008000
00C000
007FC0
003F80
000000
000000
ENDCHAR
STARTCHAR 30E3
ENCODING 12515
SWIDTH 1200 0
DWIDTH 20 0
BBX 20 20 0 -3
BITMAP
000000
000000
000000
000000
000000
030000
030000
018000
018700
00BF80
03C300
3E8600
18C800
00C000
004000
004000
006000
006000
006000
000000
ENDCHAR
STARTCHAR 30E4
ENCODING 12516
SWIDTH 1200 0
DWIDTH 20 0
BBX 20 20 0 -3
BITMAP
000000
030000
070000
030000
0300C0
0187E0
01B8C0
01C180
7E8300
38C600
00C800
004000
006000
006000
006000
002000
003000
003000
003000
000000
ENDCHAR
STARTCHAR 30E5
ENCODING 12517
SWIDTH 1200 0
DWIDTH 20 0
BBX 20 20 0 -3
BITMAP
000000
000000
000000
000000
000000
000000
000000
000000
001800
07FC00
030800
000800
001800
001000
001000
01FF00
1F0780
0C0000
000000
000000
ENDCHAR
STARTCHAR 30E6
ENCODING 12518
SWIDTH 1200 0
DWIDTH 20 0
BBX 20 20 0 -3
BITMAP
000000
000000
000000
000000
000E00
0FFF00
070600
000400
000C00
000800
000800
001000
001000
00FFC0
7F03E0
380000
000000
000000
000000
000000
ENDCHAR
STARTCHAR 30E7
ENCODING 12519
SWIDTH 1200 0
DWIDTH 20 0
BBX 20 20 0 -3
BITMAP
000000
000000
000000
000000
000000
000000
000600
0FFF00
070600
000600
000400
07FC00
030C00
000800
000800
001800
1FFC00
0C0400
000000
000000
ENDCHAR
STARTCHAR 30E8
ENCODING 12520
SWIDTH 1200 0
DWIDTH 20 0
BBX 20 20 0 -3
BITMAP
000000
000000
000000
000180
1FFFC0
0E0180
000180
000180
000100
0FFF00
060300
000300
000200
000200
000600
3FFF00
180300
000000
000000
000000
ENDCHAR
STARTCHAR 30E9
ENCODING 12521
SWIDTH 1200 0
DWIDTH 20 0
BBX 20 20 0 -3
BITMAP
000000
000E00
0FFF00
070000
000000
000180
201FC0
3FF180
1C0180
000180
000300
000200
000600
000400
000800
001000
002000
00C000
030000
000000
ENDCHAR
STARTCHAR 30EA
ENCODING 12522
SWIDTH 1200 0
DWIDTH 20 0
BBX 20 20 0 -3
BITMAP
000000
000600
060300
030300
030300
030300
030300
030300
030300
030300
030200
010600
000600
000400
000C00
000800
001000
002000
00C000
000000
ENDCHAR
STARTCHAR 30EB
ENCODING 12523
SWIDTH 1200 0
DWIDTH 20 0
BBX 20 20 0 -3
BITMAP
000000
000000
006000
003000
0C3000
063000
063000
043000
063000
043000
0C2020
0C2040
082080
102100
102600
202C00
407800
803000
000000
000000
ENDCHAR
STARTCHAR 30EC
ENCODING 12524
SWIDTH 1200 0
DWIDTH 20 0
BBX 20 20 0 -3
BITMAP
000000
000000
0C0000
060000
060000
060000
060000
060000
060000
060040
040080
040100
040200
040C00
041800
047000
05C000
0F8000
060000
000000
ENDCHAR
STARTCHAR 30ED
ENCODING 12525
SWIDTH 1200 0
DWIDTH 20 0
BBX 20 20 0 -3
BITMAP
000000
000000
000000
000000
200080
307FC0
3FC180
300180
100180
100180
180100
180300
180300
180300
180300
1FFF00
180100
000000
000000
000000
ENDCHAR
STARTCHAR 30EE
ENCODING 12526
SWIDTH 1200 0
DWIDTH 20 0
BBX 20 20 0 -3
BITMAP
000000
000000
000000
000000
000000
000000
180600
0C7F00
0FC600
0C0600
0C0600
0C0400
000C00
000C00
001800
001000
002000
004000
018000
000000
ENDCHAR
STARTCHAR 30EF
ENCODING 12527
SWIDTH 1200 0
DWIDTH 20 0
BBX 20 20 0 -3
BITMAP
000000
000000
100180
183FC0
1FE180
180180
180180
180180
180100
180300
080200
000200
000400
000400
000800
001000
002000
00C000
030000
000000
ENDCHAR
STARTCHAR 30F0
ENCODING 12528
SWIDTH 1200 0
DWIDTH 20 0
BBX 20 20 0 -3
BITMAP
000000
003000
001800
001800
001000
003F00
1FD380
0C1000
021000
031000
031000
067FC0
7F90E0
381000
001000
003000
003000
003000
001000
000000
ENDCHAR
STARTCHAR 30F1
ENCODING 12529
SWIDTH 1200 0
DWIDTH 20 0
BBX 20 20 0 -3
BITMAP
000000
000000
000000
000000
001F00
1FE380
0E0600
00CC00
005000
006000
004000
004000
004000
004000
00FFC0
7F01E0
380000
000000
000000
000000
ENDCHAR
STARTCHAR 30F2
ENCODING 12530
SWIDTH 1200 0
DWIDTH 20 0
BBX 20 20 0 -3
BITMAP
000000
000000
000180
001FC0
0FF180
070180
000100
000100
003F80
0FE200
060200
000600
000C00
000800
001000
002000
004000
018000
060000
000000
ENDCHAR
STARTCHAR 30F3
ENCODING 12531
SWIDTH 1200 0
DWIDTH 20 0
BBX 20 20 0 -3
BITMAP
000000
000000
000000
180000
060000
030000
030040
000080
000100
000300
000600
000C00
001800
003000
00E000
238000
1F0000
1C0000
000000
000000
ENDCHAR
STARTCHAR 30F4
ENCODING 12532
SWIDTH 1200 0
DWIDTH 20 0
BBX 20 20 0 -3
BITMAP
000040
00C130
0060D0
006140
204180
307F80
3FC180
300180
300100
300300
100300
000200
000600
000400
000800
001000
002000
00C000
030000
000000
ENDCHAR
STARTCHAR 30F5
ENCODING 12533
SWIDTH 1200 0
DWIDTH 20 0
BBX 20 20 0 -3
BITMAP
000000
000000
000000
000000
000000
006000
003000
002000
002100
007F80
0FF180
064100
00C300
008300
018200
010600
022600
041C00
080800
000000
ENDCHAR
STARTCHAR 30F6
ENCODING 12534
SWIDTH 1200 0
DWIDTH 20 0
BBX 20 20 0 -3
BITMAP
000000
000000
000000
000000
000000
010000
018000
030000
030600
063F00
07E000
0C3000
103000
202000
006000
004000
008000
010000
060000
000000
ENDCHAR
STARTCHAR 30FB
ENCODING 12539
SWIDTH 1200 0
DWIDTH 20 0
BBX 20 20 0 -3
BITMAP
000000
000000
000000
000000
000000
000000
000000
000000
006000
00F000
00F000
006000
000000
000000
000000
000000
000000
000000
000000
000000
ENDCHAR
STARTCHAR 30FC
ENCODING 12540
SWIDTH 1200 0
DWIDTH 20 0
BBX 20 20 0 -3
BITMAP
000000
000000
000000
000000
000000
000000
000000
000000
2003C0
3FFFE0
1E0000
000000
000000
000000
000000
000000
000000
000000
000000
000000
ENDCHAR
STARTCHAR 30FD
ENCODING 12541
SWIDTH 1200 0
DWIDTH 20 0
BBX 20 20 0 -3
BITMAP
000000
000000
000000
000000
000000
000000
030000
008000
006000
003000
001800
001C00
000E00
000E00
000400
000000
000000
000000
000000
000000
ENDCHAR
STARTCHAR 30FE
ENCODING 12542
SWIDTH 1200 0
DWIDTH 20 0
BBX 20 20 0 -3
BITMAP
000000
000000
000000
000800
000600
002200
061800
010800
00C000
006000
003000
003800
001C00
001C00
000800
000000
000000
000000
000000
000000
ENDCHAR
STARTCHAR 4E00
ENCODING 19968
SWIDTH 1200 0
DWIDTH 20 0
BBX 20 20 0 -3
BITMAP
000000
000000
000000
000000
000000
000000
000000
000000
000060
FFFFF0
000000
000000
000000
000000
000000
000000
000000
000000
000000
000000
ENDCHAR
STARTCHAR 4E01
ENCODING 19969
SWIDTH 1200 0
DWIDTH 20 0
BBX 20 20 0 -3
BITMAP
000060
FFFFF0
006000
006000
006000
006000
006000
006000
006000
006000
006000
006000
006000
006000
006000
006000
006000
006000
03E000
00C000
ENDCHAR
STARTCHAR 4E03
ENCODING 19971
SWIDTH 1200 0
DWIDTH 20 0
BBX 20 20 0 -3
BITMAP
038000
030000
030000
030000
030000
030060
0301F0
031F00
03F000
1F0000
F30000
030000
030000
030000
030000
030000
030080
030080
03FFC0
01FF80
ENDCHAR
STARTCHAR 4E07
ENCODING 19975
SWIDTH 1200 0
DWIDTH 20 0
BBX 20 20 0 -3
BITMAP
000000
000060
FFFFF0
018000
018000
018000
018180
01FFC0
018180
018180
030180
030180
030180
030180
060180
060300
0C0300
0C0300
181E00
600400
ENDCHAR
STARTCHAR 4E08
ENCODING 19976
SWIDTH 1200 0
DWIDTH 20 0
BBX 20 20 0 -3
BITMAP
007000
006000
006000
006060
FFFFF0
006000
046000
046000
026000
036000
01E000
00E000
006000
00F000
00D800
018C00
030600
0E0380
3801F0
E00060
ENDCHAR
STARTCHAR 4E09
ENCODING 19977
SWIDTH 1200 0
DWIDTH 20 0
BBX 20 20 0 -3
BITMAP
000000
000000
000180
3FFFC0
000000
000000
000000
000000
000000
000600
0FFF00
000000
000000
000000
000000
000000
000060
FFFFF0
000000
000000
ENDCHAR
STARTCHAR 4E0A
ENCODING 19978
SWIDTH 1200 0
DWIDTH 20 0
BBX 20 20 0 -3
BITMAP
007000
006000
006000
006000
006000
006000
006000
006180
007FC0
006000
006000
006000
006000
006000
006000
006000
006000
006060
FFFFF0
000000
ENDCHAR
STARTCHAR 4E0B
ENCODING 19979
SWIDTH 1200 0
DWIDTH 20 0
BBX 20 20 0 -3
BITMAP
000000
000060
FFFFF0
006000
006000
006000
006000
007000
006C00
006600
006700
006300
006000
006000
006000
006000
006000
006000
006000
006000
ENDCHAR
STARTCHAR 4E0D
ENCODING 19981
SWIDTH 1200 0
DWIDTH 20 0
BBX 20 20 0 -3
BITMAP
000000
000060
FFFFF0
007000
006000
00C000
00F400
01E300
036180
0660C0
0C60C0
386060
C06060
006000
006000
006000
006000
006000
006000
006000
ENDCHAR
STARTCHAR 4E0E
ENCODING 19982
SWIDTH 1200 0
DWIDTH 20 0
BBX 20 20 0 -3
BITMAP
038000
030000
030600
07FF00
060000
060000
060600
07FF00
0C0600
0C0600
000600
000660
FFFFF0
000C00
000C00
000C00
001800
003800
01F000
006000
ENDCHAR
STARTCHAR 4E10
ENCODING 19984
SWIDTH 1200 0
DWIDTH 20 0
BBX 20 20 0 -3
BITMAP
000060
FFFFF0
006000
006000
006000
1C60C0
187FE0
186000
186000
1860C0
3FFFE0
3000C0
3000C0
0000C0
000180
000180
000380
000300
001E00
000400
ENDCHAR
STARTCHAR 4E11
ENCODING 19985
SWIDTH 1200 0
DWIDTH 20 0
BBX 20 20 0 -3
BITMAP
000000
000600
7FFF00
030600
030600
030600
030600
060600
060660
FFFFF0
060600
060600
060600
0C0600
0C0600
0C0600
0C0600
0C0660
FFFFF0
000000
ENDCHAR
STARTCHAR 4E14
ENCODING 19988
SWIDTH 1200 0
DWIDTH 20 0
BBX 20 20 0 -3
BITMAP
000000
040600
07FF00
060600
060600
060600
060600
07FE00
060600
060600
060600
060600
07FE00
060600
060600
060600
060600
060660
FFFFF0
000000
ENDCHAR
STARTCHAR 4E15
ENCODING 19989
SWIDTH 1200 0
DWIDTH 20 0
BBX 20 20 0 -3
BITMAP
000000
0000C0
7FFFE0
007000
006000
00C000
00F400
01E300
036180
0660C0
0C60C0
386060
C06060
006000
006000
006000
006000
000060
FFFFF0
000000
ENDCHAR
STARTCHAR 4E16
ENCODING 19990
SWIDTH 1200 0
DWIDTH 20 0
BBX 20 20 0 -3
BITMAP
1C7380
186300
186300
186300
186300
186360
FFFFF0
186300
186300
186300
186300
186300
186300
187F00
186300
180000
180000
1800C0
1FFFE0
180000
ENDCHAR
STARTCHAR 4E17
ENCODING 19991
SWIDTH 1200 0
DWIDTH 20 0
BBX 20 20 0 -3
BITMAP
0E7380
0C6300
0C6300
0C6300
0C6300
0C6300
0C6300
0C6360
FFFFF0
0C6300
0C6300
0C6300
0C6300
0C6300
0C6300
0C6300
0C6300
0C6300
0FFF00
0C0300
ENDCHAR
STARTCHAR 4E18
ENCODING 19992
SWIDTH 1200 0
DWIDTH 20 0
BBX 20 20 0 -3
BITMAP
000600
001F00
087000
0F8000
0C0000
0C0000
0C0000
0C0180
0FFFC0
0C0C00
0C0C00
0C0C00
0C0C00
0C0C00
0C0C00
0C0C00
0C0C60
FFFFF0
000000
000000
ENDCHAR
STARTCHAR 4E19
ENCODING 19993
SWIDTH 1200 0
DWIDTH 20 0
BBX 20 20 0 -3
BITMAP
000060
FFFFF0
006000
006000
2060C0
3FFFE0
3060C0
3060C0
30E0C0
30D8C0
318CC0
3306C0
3406C0
3000C0
3000C0
3000C0
3000C0
3000C0
3003C0
300080
ENDCHAR
STARTCHAR 4E1E
ENCODING 19998
SWIDTH 1200 0
DWIDTH 20 0
BBX 20 20 0 -3
BITMAP
000600
1FFF00
000C00
000800
005000
006040
036070
7FF0C0
036880
066D00
066600
0C6300
1861C0
3060F0
C06060
01E000
004000
0000C0
7FFFE0
000000
ENDCHAR
STARTCHAR 4E21
ENCODING 20001
SWIDTH 1200 0
DWIDTH 20 0
BBX 20 20 0 -3
BITMAP
000060
FFFFF0
006000
006000
006000
406060
7FFFF0
606060
606060
676760
666660
666660
666660
666660
67FE60
660660
660660
600060
6001E0
600040
ENDCHAR
STARTCHAR 4E26
ENCODING 20006
SWIDTH 1200 0
DWIDTH 20 0
BBX 20 20 0 -3
BITMAP
080200
040380
060300
030400
0308C0
7FFFE0
030C00
030C00
430C40
230C70
330C60
1B0CC0
1B0C80
1B0D00
030C00
030C00
030C60
FFFFF0
000000
000000
ENDCHAR
STARTCHAR 4E2A
ENCODING 20010
SWIDTH 1200 0
DWIDTH 20 0
BBX 20 20 0 -3
BITMAP
007000
006000
00D000
00C800
018400
030600
060300
0C71C0
3860F0
C06060
006000
006000
006000
006000
006000
006000
006000
006000
006000
006000
ENDCHAR
STARTCHAR 4E2D
ENCODING 20013
SWIDTH 1200 0
DWIDTH 20 0
BBX 20 20 0 -3
BITMAP
007000
006000
006000
006000
006000
406060
7FFFF0
606060
606060
606060
606060
606060
7FFFE0
606060
006000
006000
006000
006000
006000
006000
ENDCHAR
STARTCHAR 4E31
ENCODING 20017
SWIDTH 1200 0
DWIDTH 20 0
BBX 20 20 0 -3
BITMAP
038E00
030C00
030C00
730C70
630C60
630C60
630C60
630C60
630C60
630C60
630C60
630C60
7F0FE0
630C60
060C00
060C00
0C0C00
0C0C00
180C00
600C00
ENDCHAR
STARTCHAR 4E32
ENCODING 20018
SWIDTH 1200 0
DWIDTH 20 0
BBX 20 20 0 -3
BITMAP
007000
006000
2060C0
3FFFE0
3060C0
3060C0
3060C0
3FFFC0
3060C0
006000
406060
7FFFF0
606060
606060
606060
7FFFE0
606060
006000
006000
006000
ENDCHAR
STARTCHAR 4E36
ENCODING 20022
SWIDTH 1200 0
DWIDTH 20 0
BBX 20 20 0 -3
BITMAP
000000
000000
000000
000000
0C0000
030000
00C000
006000
003000
001800
000C00
000E00
000600
000700
000300
000300
000000
000000
000000
000000
ENDCHAR
STARTCHAR 4E38
ENCODING 20024
SWIDTH 1200 0
DWIDTH 20 0
BBX 20 20 0 -3
BITMAP
038000
030000
030000
030000
030000
030C00
FFFE00
030C00
030C00
230C00
1B0C00
0E0C00
070C00
038C00
06CC00
06CC20
0C0C20
180C20
300FF0
C007E0
ENDCHAR
STARTCHAR 4E39
ENCODING 20025
SWIDTH 1200 0
DWIDTH 20 0
BBX 20 20 0 -3
BITMAP
080300
0FFF80
0C0300
0C8300
0C4300
0C6300
0C6300
0C0300
0C0360
FFFFF0
0C0300
0C0300
0C0300
180300
180300
180300
300300
300300
600F00
800200
ENDCHAR
STARTCHAR 4E3B
ENCODING 20027
SWIDTH 1200 0
DWIDTH 20 0
BBX 20 20 0 -3
BITMAP
008000
006000
007000
003000
0000C0
7FFFE0
006000
006000
006000
006000
006300
1FFF80
006000
006000
006000
006000
006000
006060
FFFFF0
000000
ENDCHAR
STARTCHAR 4E3C
ENCODING 20028
SWIDTH 1200 0
DWIDTH 20 0
BBX 20 20 0 -3
BITMAP
070700
060600
060600
060600
0606C0
7FFFE0
060600
068600
066600
063600
063600
060660
FFFFF0
060600
060600
0C0600
0C0600
180600
300600
C00600
ENDCHAR
STARTCHAR 4E3F
ENCODING 20031
SWIDTH 1200 0
DWIDTH 20 0
BBX 20 20 0 -3
BITMAP
007000
006000
006000
006000
006000
006000
006000
006000
004000
00C000
00C000
00C000
018000
018000
030000
060000
0C0000
180000
200000
C00000
ENDCHAR
STARTCHAR 4E42
ENCODING 20034
SWIDTH 1200 0
DWIDTH 20 0
BBX 20 20 0 -3
BITMAP
080100
0801C0
180180
340300
740300
240200
060600
020600
030C00
010C00
019800
00B800
00F000
006000
00F000
019800
030E00
060780
1801F0
E00060
ENDCHAR
STARTCHAR 4E43
ENCODING 20035
SWIDTH 1200 0
DWIDTH 20 0
BBX 20 20 0 -3
BITMAP
000200
7FFF00
030600
030600
030600
030C00
030C00
060C60
061FF0
061860
061860
060060
0C00C0
0C00C0
0C00C0
1800C0
180180
300300
603F00
800600
ENDCHAR
STARTCHAR 4E45
ENCODING 20037
SWIDTH 1200 0
DWIDTH 20 0
BBX 20 20 0 -3
BITMAP
038000
030000
031800
03FC00
061800
061800
061800
0C1800
0C1C00
183400
103400
206400
406600
00C200
018300
030300
060180
0C00C0
3000F0
C00060
ENDCHAR
STARTCHAR 4E4B
ENCODING 20043
SWIDTH 1200 0
DWIDTH 20 0
BBX 20 20 0 -3
BITMAP
007000
006000
006000
0060C0
7FFFE0
0000C0
000180
000180
000300
000300
000600
000C00
001800
083000
086000
1C8000
338000
E0F000
403FF0
0007C0
ENDCHAR
STARTCHAR 4E4D
ENCODING 20045
SWIDTH 1200 0
DWIDTH 20 0
BBX 20 20 0 -3
BITMAP
0E0000
0C0000
0C0000
0C0060
1FFFF0
186000
306000
606000
8060C0
007FE0
006000
006000
006000
0060C0
007FE0
006000
006000
006000
006000
006000
ENDCHAR
STARTCHAR 4E4E
ENCODING 20046
SWIDTH 1200 0
DWIDTH 20 0
BBX 20 20 0 -3
BITMAP
000600
000F00
007C00
03F000
3E6100
0861C0
046300
066200
066400
006060
FFFFF0
006000
006000
006000
006000
006000
006000
006000
01E000
004000
ENDCHAR
STARTCHAR 4E4F
ENCODING 20047
SWIDTH 1200 0
DWIDTH 20 0
BBX 20 20 0 -3
BITMAP
000180
000FC0
007E00
3FE000
006000
006000
006000
0060C0
7FFFE0
000180
000300
000600
000C00
081800
083000
1C4000
338000
E0F000
401FF0
0007C0
ENDCHAR
STARTCHAR 4E55
ENCODING 20053
SWIDTH 1200 0
DWIDTH 20 0
BBX 20 20 0 -3
BITMAP
000700
001FC0
20F800
3F9800
301860
3FFFF0
301800
301860
3FFFF0
301800
301800
341860
37FFF0
361860
261860
661860
661860
4619E0
861840
001800
ENDCHAR
STARTCHAR 4E56
ENCODING 20054
SWIDTH 1200 0
DWIDTH 20 0
BBX 20 20 0 -3
BITMAP
000300
001F80
007C00
3FE000
006000
006060
FFFFF0
006000
076700
066620
FE6670
066780
066600
066600
0E6620
F66620
6667F0
0663E0
006000
006000
ENDCHAR
STARTCHAR 4E57
ENCODING 20055
SWIDTH 1200 0
DWIDTH 20 0
BBX 20 20 0 -3
BITMAP
000600
007F00
1FE000
0060C0
7FFFE0
0C6300
0C6300
0C6360
FFFFF0
0C6300
0C6300
0C6340
7FFFE0
017000
036C00
066600
0C6380
3860F0
E06060
006000
ENDCHAR
STARTCHAR 4E58
ENCODING 20056
SWIDTH 1200 0
DWIDTH 20 0
BBX 20 20 0 -3
BITMAP
000600
007F00
1FE000
006060
FFFFF0
006000
076720
066670
FE6780
066620
0E6620
F6E7F0
66E3E0
01F000
036800
066600
0C6380
3061F0
C06060
006000
ENDCHAR
STARTCHAR 4E59
ENCODING 20057
SWIDTH 1200 0
DWIDTH 20 0
BBX 20 20 0 -3
BITMAP
000600
7FFF00
000C00
001800
003000
006000
00C000
018000
030000
060000
0C0000
180000
300000
200000
600020
600020
780070
3FFFE0
0FFFC0
000000
ENDCHAR
STARTCHAR 4E5D
ENCODING 20061
SWIDTH 1200 0
DWIDTH 20 0
BBX 20 20 0 -3
BITMAP
038000
030000
030000
030000
030000
030C00
FFFE00
030C00
030C00
030C00
030C00
060C00
060C00
060C00
060C00
0C0C20
0C0C20
180C20
300FF0
C007E0
ENDCHAR
STARTCHAR 4E5E
ENCODING 20062
SWIDTH 1200 0
DWIDTH 20 0
BBX 20 20 0 -3
BITMAP
0E0000
0C0000
0C0000
1800C0
1FFFE0
300000
600000
800300
0FFF80
000E00
003800
00E000
038000
060000
0C0000
180040
180040
1C0040
0FFFE0
03FFC0
ENDCHAR
STARTCHAR 4E5F
ENCODING 20063
SWIDTH 1200 0
DWIDTH 20 0
BBX 20 20 0 -3
BITMAP
003800
0E3000
0C3000
0C3000
0C30C0
0C37E0
0C78C0
0FB0C0
1C30C0
EC30C0
0C30C0
0C30C0
0C37C0
0C3080
0C3000
0C3000
0C0020
0C0020
0FFFF0
07FFE0
ENDCHAR
STARTCHAR 4E62
ENCODING 20066
SWIDTH 1200 0
DWIDTH 20 0
BBX 20 20 0 -3
BITMAP
0E0E00
0C0C00
0C0C00
0C0C00
ECEC00
CCCC00
CCCC00
CCCC00
CCCC00
CCCC00
CCCC00
CCCC00
CCCC00
CCCC00
CCCC00
FFCC00
C0CC20
C00C20
000FF0
0007E0
ENDCHAR
STARTCHAR 4E71
ENCODING 20081
SWIDTH 1200 0
DWIDTH 20 0
BBX 20 20 0 -3
BITMAP
018E00
03CC00
0E0C00
7C0C00
0C0C00
0C0C00
0C4C00
FFEC00
0C0C00
0C0C00
0C0C00
0C0C00
4CCC00
7FEC00
60CC00
60CC00
60CC20
60CC20
7FCFF0
60C7E0
ENDCHAR
STARTCHAR 4E73
ENCODING 20083
SWIDTH 1200 0
DWIDTH 20 0
BBX 20 20 0 -3
BITMAP
008E00
03EC00
1F0C00
F8EC00
44CC00
66CC00
368C00
350C00
004C00
7FEC00
00CC00
018C00
070C00
060C00
07EC00
FE0C00
660C20
060C20
1E0FF0
0407E0
ENDCHAR
STARTCHAR 4E7E
ENCODING 20094
SWIDTH 1200 0
DWIDTH 20 0
BBX 20 20 0 -3
BITMAP
1C1C00
181800
1B1800
FF9860
183FF0
183000
FF6000
C340C0
C39FE0
FF00C0
C30180
C30300
FF0600
DB0C00
181800
1B3000
FFB020
183820
181FF0
1807E0
ENDCHAR
STARTCHAR 4E80
ENCODING 20096
SWIDTH 1200 0
DWIDTH 20 0
BBX 20 20 0 -3
BITMAP
038000
030C00
07FE00
0C0800
181000
FFFF00
18C300
1FFF00
18C300
1FFF00
18C300
00C000
3FFF80
30C180
3FFF80
30C180
3FFFA0
30C020
00FFF0
007FE0
ENDCHAR
STARTCHAR 4E82
ENCODING 20098
SWIDTH 1200 0
DWIDTH 20 0
BBX 20 20 0 -3
BITMAP
018700
07E600
7D0600
488600
4CC600
8C8600
7FC600
018600
0A0600
846600
FFF600
C86600
CA6600
DF6600
C16600
FF6600
D36620
CE6620
CEE7F0
D343E0
ENDCHAR
STARTCHAR 4E85
ENCODING 20101
SWIDTH 1200 0
DWIDTH 20 0
BBX 20 20 0 -3
BITMAP
007000
006000
006000
006000
006000
006000
006000
006000
006000
006000
006000
006000
006000
006000
006000
006000
006000
006000
03E000
00C000
ENDCHAR
STARTCHAR 4E86
ENCODING 20102
SWIDTH 1200 0
DWIDTH 20 0
BBX 20 20 0 -3
BITMAP
000300
1FFF80
000300
000600
000C00
001800
007000
006000
006000
006000
006000
006000
006000
006000
006000
006000
006000
006000
03E000
004000
ENDCHAR
STARTCHAR 4E88
ENCODING 20104
SWIDTH 1200 0
DWIDTH 20 0
BBX 20 20 0 -3
BITMAP
000300
1FFF80
000300
000600
010C00
00D000
006000
006060
FFFFF0
006060
0060C0
006080
006100
006000
006000
006000
006000
006000
01E000
004000
ENDCHAR
STARTCHAR 4E89
ENCODING 20105
SWIDTH 1200 0
DWIDTH 20 0
BBX 20 20 0 -3
BITMAP
038000
030C00
07FE00
0C1800
183000
704300
0FFF80
00C300
00C360
FFFFF0
00C300
00C300
00C300
3FFF00
00C300
00C000
00C000
00C000
03C000
008000
ENDCHAR
STARTCHAR 4E8A
ENCODING 20106
SWIDTH 1200 0
DWIDTH 20 0
BBX 20 20 0 -3
BITMAP
007000
006000
0060C0
7FFFE0
086400
046700
066400
046980
3FFFC0
006180
0061A0
FFFFF0
006180
006180
3FFF80
006180
006000
006000
01E000
004000
ENDCHAR
STARTCHAR 4E8B
ENCODING 20107
SWIDTH 1200 0
DWIDTH 20 0
BBX 20 20 0 -3
BITMAP
007000
006000
0060C0
7FFFE0
006000
0FFF00
0C6300
0C6300
0FFF00
006000
1FFF80
0061A0
FFFFF0
006180
1FFF80
006180
006000
006000
01E000
004000
ENDCHAR
STARTCHAR 4E8C
ENCODING 20108
SWIDTH 1200 0
DWIDTH 20 0
BBX 20 20 0 -3
BITMAP
000000
000000
000000
000300
1FFF80
000000
000000
000000
000000
000000
000000
000000
000000
000000
000060
FFFFF0
000000
000000
000000
000000
ENDCHAR
STARTCHAR 4E8E
ENCODING 20110
SWIDTH 1200 0
DWIDTH 20 0
BBX 20 20 0 -3
BITMAP
000180
3FFFC0
006000
006000
006000
006000
006000
006000
006060
FFFFF0
006000
006000
006000
006000
006000
006000
006000
006000
03E000
00C000
ENDCHAR
STARTCHAR 4E91
ENCODING 20113
SWIDTH 1200 0
DWIDTH 20 0
BBX 20 20 0 -3
BITMAP
000000
000300
1FFF80
000000
000000
000000
000000
000060
FFFFF0
01C000
018000
030000
030000
020200
060100
040180
083FC0
FFE0C0
780060
400060
ENDCHAR
STARTCHAR 4E92
ENCODING 20114
SWIDTH 1200 0
DWIDTH 20 0
BBX 20 20 0 -3
BITMAP
0000C0
7FFFE0
018000
018000
018000
030000
030300
03FF80
060300
060300
060600
0C0600
0FFC00
0C0C00
000C00
001800
001800
001860
FFFFF0
000000
ENDCHAR
STARTCHAR 4E94
ENCODING 20116
SWIDTH 1200 0
DWIDTH 20 0
BBX 20 20 0 -3
BITMAP
000000
000300
1FFF80
006000
006000
006000
00C000
00C000
00C600
0FFF00
018600
018600
018600
018600
030600
030600
030660
FFFFF0
000000
000000
ENDCHAR
STARTCHAR 4E95
ENCODING 20117
SWIDTH 1200 0
DWIDTH 20 0
BBX 20 20 0 -3
BITMAP
070E00
060C00
060C00
060C00
060CC0
7FFFE0
060C00
060C00
060C00
060C00
060C00
060C60
FFFFF0
060C00
060C00
0C0C00
0C0C00
180C00
300C00
C00C00
ENDCHAR
STARTCHAR 4E98
ENCODING 20120
SWIDTH 1200 0
DWIDTH 20 0
BBX 20 20 0 -3
BITMAP
0000C0
7FFFE0
000000
000000
080300
0FFF80
0C0300
0C0300
0C0300
0FFF00
0C0300
0C0300
0C0300
0C0300
0FFF00
0C0300
000000
000060
FFFFF0
000000
ENDCHAR
STARTCHAR 4E99
ENCODING 20121
SWIDTH 1200 0
DWIDTH 20 0
BBX 20 20 0 -3
BITMAP
0000C0
7FFFE0
030000
030000
030300
03FF80
060300
068300
066300
063300
0C3600
0D0600
0CC600
0C6600
006600
000C00
000C00
000C60
FFFFF0
000000
ENDCHAR
STARTCHAR 4E9B
ENCODING 20123
SWIDTH 1200 0
DWIDTH 20 0
BBX 20 20 0 -3
BITMAP
0E1C00
0C1800
0C1880
0C99E0
6FDB80
6C1E00
6C1800
6C1800
6C1820
6FD820
FE1FF0
700FE0
000000
000300
1FFF80
000000
000000
000060
FFFFF0
000000
ENDCHAR
STARTCHAR 4E9C
ENCODING 20124
SWIDTH 1200 0
DWIDTH 20 0
BBX 20 20 0 -3
BITMAP
0000C0
7FFFE0
031800
031800
031800
231980
3FFFC0
331980
331980
331980
331980
331980
3FFF80
331980
031800
031800
031800
031860
FFFFF0
000000
ENDCHAR
STARTCHAR 4E9E
ENCODING 20126
SWIDTH 1200 0
DWIDTH 20 0
BBX 20 20 0 -3
BITMAP
0000C0
7FFFE0
030C00
030C00
030C00
430C60
7F0FF0
630C60
600060
600060
600060
630860
7F8FE0
630C60
030C00
030C00
030C00
030C60
FFFFF0
000000
ENDCHAR
STARTCHAR 4E9F
ENCODING 20127
SWIDTH 1200 0
DWIDTH 20 0
BBX 20 20 0 -3
BITMAP
0000C0
7FFFE0
030000
036000
07F000
066000
006060
466FF0
7F6460
666440
6662C0
666380
7E6100
6663C0
60C670
03D820
008000
000060
FFFFF0
000000
ENDCHAR
STARTCHAR 4EA0
ENCODING 20128
SWIDTH 1200 0
DWIDTH 20 0
BBX 20 20 0 -3
BITMAP
000000
000000
000000
000000
000000
000000
007000
006000
006000
006000
006060
FFFFF0
000000
000000
000000
000000
000000
000000
000000
000000
ENDCHAR
STARTCHAR 4EA1
ENCODING 20129
SWIDTH 1200 0
DWIDTH 20 0
BBX 20 20 0 -3
BITMAP
007000
006000
006000
006000
006060
FFFFF0
0C0000
0C0000
0C0000
0C0000
0C0000
0C0000
0C0000
0C0000
0C0000
0C0000
0C0000
0FFFC0
07FFC0
000000
ENDCHAR
STARTCHAR 4EA2
ENCODING 20130
SWIDTH 1200 0
DWIDTH 20 0
BBX 20 20 0 -3
BITMAP
007000
006000
006000
006060
FFFFF0
000000
000000
020C00
03FE00
030C00
030C00
030C00
030C00
030C00
060C00
060C00
0C0C20
0C0C20
180FF0
6007E0
ENDCHAR
STARTCHAR 4EA4
ENCODING 20132
SWIDTH 1200 0
DWIDTH 20 0
BBX 20 20 0 -3
BITMAP
007000
006000
006060
FFFFF0
040000
070600
040180
0C00C0
1808E0
620E60
020C00
011800
019800
00F000
006000
00F000
019C00
070780
1C01F0
E00060
ENDCHAR
STARTCHAR 4EA5
ENCODING 20133
SWIDTH 1200 0
DWIDTH 20 0
BBX 20 20 0 -3
BITMAP
007000
006000
006000
006060
FFFFF0
00E000
00C400
118700
0D0C00
061900
0331C0
036300
00C600
038C00
061800
383600
006380
01C0C0
070060
780060
ENDCHAR
STARTCHAR 4EA6
ENCODING 20134
SWIDTH 1200 0
DWIDTH 20 0
BBX 20 20 0 -3
BITMAP
007000
006000
006000
006060
FFFFF0
030C00
030C00
230D00
3B0C80
330CC0
330C60
630C60
430C30
860C30
060C00
060C00
0C0C00
0C0C00
187C00
200800
ENDCHAR
STARTCHAR 4EA8
ENCODING 20136
SWIDTH 1200 0
DWIDTH 20 0
BBX 20 20 0 -3
BITMAP
007000
006000
006060
FFFFF0
000000
0FFF00
0C0300
0C0300
0FFF00
0C0300
0000C0
7FFFE0
000380
000600
005800
006000
006000
006000
03E000
004000
ENDCHAR
STARTCHAR 4EAB
ENCODING 20139
SWIDTH 1200 0
DWIDTH 20 0
BBX 20 20 0 -3
BITMAP
007000
006060
FFFFF0
000000
0FFF00
0C0300
0C0300
0FFF00
000080
3FFFC0
000700
000C00
005000
006060
FFFFF0
006000
006000
006000
03E000
004000
ENDCHAR
STARTCHAR 4EAC
ENCODING 20140
SWIDTH 1200 0
DWIDTH 20 0
BBX 20 20 0 -3
BITMAP
007000
006000
006000
006060
FFFFF0
000000
080300
0FFF80
0C0300
0C0300
0C0300
0FFF00
0C6300
006000
086000
0E6700
1861C0
3060E0
C1E060
004000
ENDCHAR
STARTCHAR 4EAD
ENCODING 20141
SWIDTH 1200 0
DWIDTH 20 0
BBX 20 20 0 -3
BITMAP
007000
006000
006060
FFFFF0
000000
0FFF00
0C0300
0C0300
0FFF00
400020
7FFFF0
400060
C00340
DFFF80
006000
006000
006000
006000
01E000
004000
ENDCHAR
STARTCHAR 4EAE
ENCODING 20142
SWIDTH 1200 0
DWIDTH 20 0
BBX 20 20 0 -3
BITMAP
007000
006000
006060
FFFFF0
000000
0FFF00
0C0300
0C0300
0FFF00
400020
7FFFF0
600030
C38E60
C30C40
030C00
060C00
060C20
0C0C20
180FF0
E007E0
ENDCHAR
STARTCHAR 4EB0
ENCODING 20144
SWIDTH 1200 0
DWIDTH 20 0
BBX 20 20 0 -3
BITMAP
007000
006000
006060
FFFFF0
000000
080300
0FFF80
0C0300
0C0300
0FFF00
0C0300
0C0300
0FFF00
006000
086000
0E6700
1861C0
3060E0
C1E060
004000
ENDCHAR
STARTCHAR 4EB3
ENCODING 20147
SWIDTH 1200 0
DWIDTH 20 0
BBX 20 20 0 -3
BITMAP
007000
006000
0060C0
7FFFE0
000000
0FFF00
0C0300
0FFF00
400020
7FFFF0
400060
C01840
C07E80
0FE000
006180
007FC0
7FE020
006020
007FF0
003FE0
ENDCHAR
STARTCHAR 4EB6
ENCODING 20150
SWIDTH 1200 0
DWIDTH 20 0
BBX 20 20 0 -3
BITMAP
007000
006060
FFFFF0
000000
1FFF80
180180
1BFD80
1B0D80
1BFD80
180180
1FFF80
000000
0FFF00
0C0300
0FFF00
0C0300
0FFF00
000060
FFFFF0
000000
ENDCHAR
STARTCHAR 4EBA
ENCODING 20154
SWIDTH 1200 0
DWIDTH 20 0
BBX 20 20 0 -3
BITMAP
007000
006000
006000
006000
006000
006000
006000
00E000
00D000
00D000
00D800
018800
018C00
030600
030600
060300
0C0380
1801C0
2000F0
C00060
ENDCHAR
STARTCHAR 4EC0
ENCODING 20160
SWIDTH 1200 0
DWIDTH 20 0
BBX 20 20 0 -3
BITMAP
0E0E00
0C0C00
0C0C00
0C0C00
180C00
180C00
300C60
3BFFF0
580C00
980C00
180C00
180C00
180C00
180C00
180C00
180C00
180C00
180C00
180C00
180C00
ENDCHAR
STARTCHAR 4EC1
ENCODING 20161
SWIDTH 1200 0
DWIDTH 20 0
BBX 20 20 0 -3
BITMAP
040000
070000
060000
0C00C0
0CFFE0
180000
180000
380000
580000
980000
180000
180000
180000
180000
180000
180060
1BFFF0
180000
180000
180000
ENDCHAR
STARTCHAR 4EC2
ENCODING 20162
SWIDTH 1200 0
DWIDTH 20 0
BBX 20 20 0 -3
BITMAP
071C00
061800
061800
0C1800
0C1800
181860
1BFFF0
381860
581860
981860
181860
181860
183060
183060
183060
182060
1860C0
1840C0
1883C0
190080
ENDCHAR
STARTCHAR 4EC4
ENCODING 20164
SWIDTH 1200 0
DWIDTH 20 0
BBX 20 20 0 -3
BITMAP
200060
3FFFF0
300000
303800
303000
303000
303000
303000
303000
303000
303000
306800
206800
606400
60C400
60C600
418300
8301C0
8600F0
180060
ENDCHAR
STARTCHAR 4EC6
ENCODING 20166
SWIDTH 1200 0
DWIDTH 20 0
BBX 20 20 0 -3
BITMAP
038E00
030C00
030C00
060C00
060C00
0C0C00
0C0C00
1C0E00
3C0D80
6C0CC0
8C0C60
0C0C30
0C0C30
0C0C00
0C0C00
0C0C00
0C0C00
0C0C00
0C0C00
0C0C00
ENDCHAR
STARTCHAR 4EC7
ENCODING 20167
SWIDTH 1200 0
DWIDTH 20 0
BBX 20 20 0 -3
BITMAP
0E3800
0C3000
0C3000
0C3000
183000
183300
33FF80
383300
583300
983300
183300
183300
186300
186300
186300
18C300
18C320
198320
1903F0
1A01E0
ENDCHAR
STARTCHAR 4ECA
ENCODING 20170
SWIDTH 1200 0
DWIDTH 20 0
BBX 20 20 0 -3
BITMAP
006000
006000
00D000
019000
030800
060600
0C0380
380CF0
E7FE60
000000
000000
000180
1FFFC0
000180
000300
000600
000C00
001800
003000
002000
ENDCHAR
STARTCHAR 4ECB
ENCODING 20171
SWIDTH 1200 0
DWIDTH 20 0
BBX 20 20 0 -3
BITMAP
007000
006000
00D000
019000
030800
060600
0C0380
3800F0
E70E60
060C00
060C00
060C00
060C00
060C00
060C00
0C0C00
0C0C00
180C00
100C00
600C00
ENDCHAR
STARTCHAR 4ECD
ENCODING 20173
SWIDTH 1200 0
DWIDTH 20 0
BBX 20 20 0 -3
BITMAP
080600
0DFF00
0C6600
186600
186600
306600
206600
706660
7067F0
B06660
306060
306060
306060
30C060
30C060
30C0C0
3180C0
318180
330780
340100
ENDCHAR
STARTCHAR 4ECE
ENCODING 20174
SWIDTH 1200 0
DWIDTH 20 0
BBX 20 20 0 -3
BITMAP
0E0700
0C0600
0C0600
0C0600
0C0600
0C0600
0C0600
0C0600
0C0600
0C0600
0C0600
1A0D00
190D00
190D00
319880
3198C0
6030C0
403060
806070
008020
ENDCHAR
STARTCHAR 4ECF
ENCODING 20175
SWIDTH 1200 0
DWIDTH 20 0
BBX 20 20 0 -3
BITMAP
0E1C00
0C1800
0C1800
0C1800
181800
181800
303000
383000
583000
983000
183000
183080
186040
186040
186060
184060
1843E0
187C30
1BF030
19C030
ENDCHAR
STARTCHAR 4ED4
ENCODING 20180
SWIDTH 1200 0
DWIDTH 20 0
BBX 20 20 0 -3
BITMAP
070040
06FFE0
0C00C0
0C0180
180300
180600
300C00
380C00
580C00
980C60
1BFFF0
180C00
180C00
180C00
180C00
180C00
180C00
180C00
183C00
180800
ENDCHAR
STARTCHAR 4ED5
ENCODING 20181
SWIDTH 1200 0
DWIDTH 20 0
BBX 20 20 0 -3
BITMAP
070E00
060C00
0C0C00
0C0C00
180C00
180C00
300C00
380C60
5BFFF0
980C00
180C00
180C00
180C00
180C00
180C00
180C00
180C00
180CC0
19FFE0
180000
ENDCHAR
STARTCHAR 4ED6
ENCODING 20182
SWIDTH 1200 0
DWIDTH 20 0
BBX 20 20 0 -3
BITMAP
0E0E00
0CEC00
0CCC00
0CCC00
18CCC0
18CDE0
30CEC0
38DCC0
58ECC0
98CCC0
1BCCC0
18CCC0
18CDC0
18CC80
18CC00
18CC00
18C020
18C020
18FFF0
187FE0
ENDCHAR
STARTCHAR 4ED7
ENCODING 20183
SWIDTH 1200 0
DWIDTH 20 0
BBX 20 20 0 -3
BITMAP
0E0700
0C0600
0C0600
180660
19FFF0
180600
300600
384600
584600
99A600
193600
181C00
181C00
180C00
181E00
181B00
183180
1860C0
18C070
1B0020
ENDCHAR
STARTCHAR 4ED8
ENCODING 20184
SWIDTH 1200 0
DWIDTH 20 0
BBX 20 20 0 -3
BITMAP
0E0380
0C0300
0C0300
0C0300
180320
1BFFF0
300300
380300
580300
98C300
186300
183300
183300
180300
180300
180300
180300
180300
180F00
180200
ENDCHAR
STARTCHAR 4ED9
ENCODING 20185
SWIDTH 1200 0
DWIDTH 20 0
BBX 20 20 0 -3
BITMAP
0E0E00
0C0C00
0C0C00
0C0C00
180C00
19CC70
318C60
398C60
598C60
998C60
198C60
198C60
198C60
198C60
198C60
198C60
198C60
19FFE0
198060
198000
ENDCHAR
STARTCHAR 4EDD
ENCODING 20189
SWIDTH 1200 0
DWIDTH 20 0
BBX 20 20 0 -3
BITMAP
006000
006000
00D000
009000
018800
030C00
060600
0C0300
1801C0
200CF0
C7FE60
006000
006000
006000
006000
006000
006000
0060C0
7FFFE0
000000
ENDCHAR
STARTCHAR 4EDE
ENCODING 20190
SWIDTH 1200 0
DWIDTH 20 0
BBX 20 20 0 -3
BITMAP
0E0060
0DFFF0
0C0C60
180C60
180C60
184C60
304C60
384C60
58CC60
58CC60
998C60
1B8C60
1B1860
181860
1818C0
1830C0
1830C0
186180
18C780
190100
ENDCHAR
STARTCHAR 4EDF
ENCODING 20191
SWIDTH 1200 0
DWIDTH 20 0
BBX 20 20 0 -3
BITMAP
0E0180
0C07C0
0C1E00
18EC00
180C00
180C00
300C00
380C00
580C60
5BFFF0
980C00
180C00
180C00
180C00
180C00
180C00
180C00
180C00
180C00
180C00
ENDCHAR
STARTCHAR 4EE3
ENCODING 20195
SWIDTH 1200 0
DWIDTH 20 0
BBX 20 20 0 -3
BITMAP
0E1C00
0C1980
0C18E0
0C1860
181800
181860
301FF0
39FC00
580C00
980C00
180600
180600
180600
180300
180320
180120
1801A0
1800E0
180070
180020
ENDCHAR
STARTCHAR 4EE4
ENCODING 20196
SWIDTH 1200 0
DWIDTH 20 0
BBX 20 20 0 -3
BITMAP
006000
006000
00D000
018800
030600
0E0380
380CF0
C7FE60
000000
000180
1FFFC0
006180
006180
006180
006180
006180
006780
006100
006000
006000
ENDCHAR
STARTCHAR 4EE5
ENCODING 20197
SWIDTH 1200 0
DWIDTH 20 0
BBX 20 20 0 -3
BITMAP
000000
3800E0
3000C0
3000C0
3000C0
3100C0
30C0C0
3060C0
307180
303180
300180
300180
300300
300300
308680
3306C0
3C0C60
F01870
607030
038030
ENDCHAR
STARTCHAR 4EED
ENCODING 20205
SWIDTH 1200 0
DWIDTH 20 0
BBX 20 20 0 -3
BITMAP
0E00C0
0DFFE0
0C18C0
1818C0
1818C0
1818C0
3098C0
3898C0
58D8C0
59B8C0
9B18C0
1B1CC0
1836C0
183380
1831C0
1861F0
1861A0
18C380
198F00
1A0200
ENDCHAR
STARTCHAR 4EEE
ENCODING 20206
SWIDTH 1200 0
DWIDTH 20 0
BBX 20 20 0 -3
BITMAP
0E0000
0C8060
0CFFF0
0CC000
18C000
18C000
30C060
38FFF0
58D060
98D060
18D840
1988C0
198C80
198D80
190700
1B0700
1A0D80
1C18E0
187070
19C020
ENDCHAR
STARTCHAR 4EF0
ENCODING 20208
SWIDTH 1200 0
DWIDTH 20 0
BBX 20 20 0 -3
BITMAP
082000
0C3800
186460
1947F0
118660
318660
318660
718660
718660
B18660
318660
318660
318660
318660
31F660
37C6E0
330640
300600
300600
300600
ENDCHAR
STARTCHAR 4EF2
ENCODING 20210
SWIDTH 1200 0
DWIDTH 20 0
BBX 20 20 0 -3
BITMAP
0E0E00
0C0C00
0C0C00
0C0C00
190C60
19FFF0
318C60
398C60
598C60
998C60
198C60
198C60
19FFE0
198C60
180C00
180C00
180C00
180C00
180C00
180C00
ENDCHAR
STARTCHAR 4EF6
ENCODING 20214
SWIDTH 1200 0
DWIDTH 20 0
BBX 20 20 0 -3
BITMAP
0E0E00
0CEC00
0CCC00
0CCC00
18CCC0
19FFE0
318C00
390C00
5A0C00
980C00
180C60
1BFFF0
180C00
180C00
180C00
180C00
180C00
180C00
180C00
180C00
ENDCHAR
STARTCHAR 4EF7
ENCODING 20215
SWIDTH 1200 0
DWIDTH 20 0
BBX 20 20 0 -3
BITMAP
0E1C00
0C1800
0C3400
183200
186300
186180
30C0C0
398070
5A73A0
586300
986300
186300
186300
186300
186300
186300
18C300
18C300
198300
1A0300
ENDCHAR
STARTCHAR 4EFB
ENCODING 20219
SWIDTH 1200 0
DWIDTH 20 0
BBX 20 20 0 -3
BITMAP
0E0080
0C03C0
0C0F00
0CFC00
180C00
180C00
180C00
380C00
380C00
780C60
5BFFF0
980C00
180C00
180C00
180C00
180C00
180C00
180CC0
19FFE0
180000
ENDCHAR
STARTCHAR 4F01
ENCODING 20225
SWIDTH 1200 0
DWIDTH 20 0
BBX 20 20 0 -3
BITMAP
006000
006000
00D000
019000
030800
060600
0C0380
3870F0
E06060
006000
0E6000
0C6300
0C7F80
0C6000
0C6000
0C6000
0C6000
0C60C0
7FFFE0
000000
ENDCHAR
STARTCHAR 4F09
ENCODING 20233
SWIDTH 1200 0
DWIDTH 20 0
BBX 20 20 0 -3
BITMAP
0E0E00
0C0C00
0C0C00
180C60
1BFFF0
100000
200000
304300
707F80
706300
B06300
306300
306300
306300
306300
306300
30C320
30C320
3183F0
3201E0
ENDCHAR
STARTCHAR 4F0A
ENCODING 20234
SWIDTH 1200 0
DWIDTH 20 0
BBX 20 20 0 -3
BITMAP
0E0000
0C00C0
0DFFE0
0C18C0
1818C0
1818C0
33FFF0
3818C0
5818C0
9818C0
1818C0
19FFC0
1818C0
181800
181800
183000
183000
186000
18C000
190000
ENDCHAR
STARTCHAR 4F0D
ENCODING 20237
SWIDTH 1200 0
DWIDTH 20 0
BBX 20 20 0 -3
BITMAP
0E0000
0C0180
0DFFC0
183000
183000
103000
303000
383000
583300
59FF80
986300
186300
186300
186300
186300
186300
186360
1FFFF0
180000
180000
ENDCHAR
STARTCHAR 4F0E
ENCODING 20238
SWIDTH 1200 0
DWIDTH 20 0
BBX 20 20 0 -3
BITMAP
0E0E00
0C0C00
0C0C60
0DFFF0
180C00
180C00
300D80
38FFC0
584180
984180
186100
182300
183200
181E00
180C00
181E00
183300
1861C0
18C0F0
1B0060
ENDCHAR
STARTCHAR 4F0F
ENCODING 20239
SWIDTH 1200 0
DWIDTH 20 0
BBX 20 20 0 -3
BITMAP
0E1C80
0C1840
0C1860
0C1860
181800
181860
33FFF0
383400
583400
983400
183200
183200
183200
186300
186100
186180
18C0C0
1880E0
198070
1B0020
ENDCHAR
STARTCHAR 4F10
ENCODING 20240
SWIDTH 1200 0
DWIDTH 20 0
BBX 20 20 0 -3
BITMAP
0E1C80
0C1840
0C1860
0C1860
181800
181860
301FF0
39FC00
580C40
980C70
1806E0
1806C0
180380
180300
180300
1807A0
180DA0
1818E0
183070
19C030
ENDCHAR
STARTCHAR 4F11
ENCODING 20241
SWIDTH 1200 0
DWIDTH 20 0
BBX 20 20 0 -3
BITMAP
0E0E00
0C0C00
0C0C00
0C0C00
180C60
19FFF0
301E00
381E00
583D00
983D00
186D80
186C80
18CCC0
18CC60
198C70
190C20
1A0C20
180C00
180C00
180C00
ENDCHAR
STARTCHAR 4F1A
ENCODING 20250
SWIDTH 1200 0
DWIDTH 20 0
BBX 20 20 0 -3
BITMAP
007000
006000
00D000
018800
030600
0E0380
380CF0
E7FE60
000000
000000
0000C0
7FFFE0
01C000
018000
030400
020200
060100
043F80
7FC0C0
1800C0
ENDCHAR
STARTCHAR 4F1C
ENCODING 20252
SWIDTH 1200 0
DWIDTH 20 0
BBX 20 20 0 -3
BITMAP
0E1C00
0C1800
0C1980
19FFC0
183180
303180
2061A0
7061A0
70C1F0
B180E0
320E00
300C00
300C60
33FFF0
300C00
300C00
300C00
300C00
300C00
300C00
ENDCHAR
STARTCHAR 4F1D
ENCODING 20253
SWIDTH 1200 0
DWIDTH 20 0
BBX 20 20 0 -3
BITMAP
0E0000
0C00C0
0CFFE0
0C0000
180000
180000
300000
380060
5BFFF0
981800
181800
183000
183000
182100
186080
1860C0
1847E0
1BF860
19C030
190030
ENDCHAR
STARTCHAR 4F2F
ENCODING 20271
SWIDTH 1200 0
DWIDTH 20 0
BBX 20 20 0 -3
BITMAP
0E0800
0C0E00
0C0C00
0C98C0
18FFE0
18C0C0
30C0C0
38C0C0
58C0C0
98C0C0
18C0C0
18FFC0
18C0C0
18C0C0
18C0C0
18C0C0
18C0C0
18C0C0
18FFC0
18C0C0
ENDCHAR
STARTCHAR 4F30
ENCODING 20272
SWIDTH 1200 0
DWIDTH 20 0
BBX 20 20 0 -3
BITMAP
0E0E00
0C0C00
0C0C00
0C0C00
180C60
1BFFF0
300C00
200C00
700C00
B00C00
308CC0
30FFE0
30C0C0
30C0C0
30C0C0
30C0C0
30C0C0
30C0C0
30FFC0
30C0C0
ENDCHAR
STARTCHAR 4F34
ENCODING 20276
SWIDTH 1200 0
DWIDTH 20 0
BBX 20 20 0 -3
BITMAP
0E0E00
0C8C40
0C4C70
0C6CC0
186D00
180C00
300CC0
39FFE0
580C00
980C00
180C00
180C60
1BFFF0
180C00
180C00
180C00
180C00
180C00
180C00
180C00
ENDCHAR
STARTCHAR 4F36
ENCODING 20278
SWIDTH 1200 0
DWIDTH 20 0
BBX 20 20 0 -3
BITMAP
0E0C00
0C0C00
0C1A00
0C3100
186180
18C0C0
330270
387F20
580000
9800C0
19FFE0
1818C0
1818C0
1818C0
1818C0
1818C0
181BC0
181880
181800
181800
ENDCHAR
STARTCHAR 4F38
ENCODING 20280
SWIDTH 1200 0
DWIDTH 20 0
BBX 20 20 0 -3
BITMAP
0E0E00
0C0C00
0C0C00
1D0C60
19FFF0
198C60
398C60
398C60
59FFE0
598C60
998C60
198C60
198C60
19FFE0
198C60
180C00
180C00
180C00
180C00
180C00
ENDCHAR
STARTCHAR 4F3A
ENCODING 20282
SWIDTH 1200 0
DWIDTH 20 0
BBX 20 20 0 -3
BITMAP
020000
030060
06FFF0
060060
0C0060
0C0660
18FF60
380060
380060
588660
98FF60
18C660
18C660
18C660
18C660
18FE60
18C660
18C060
1801E0
180040
ENDCHAR
STARTCHAR 4F3C
ENCODING 20284
SWIDTH 1200 0
DWIDTH 20 0
BBX 20 20 0 -3
BITMAP
0E0000
0C00E0
0C00C0
19C0C0
1980C0
1980C0
31B0C0
3198C0
718CC0
B18CC0
318180
318180
318180
318180
31BB80
31E340
378360
360660
340C30
303830
ENDCHAR
STARTCHAR 4F3D
ENCODING 20285
SWIDTH 1200 0
DWIDTH 20 0
BBX 20 20 0 -3
BITMAP
1DC000
198000
198460
1987F0
31B660
37FE60
31B660
31B660
71B660
71B660
B1B660
31B660
31B660
31B660
313660
313660
333660
3237E0
32E660
344600
ENDCHAR
STARTCHAR 4F43
ENCODING 20291
SWIDTH 1200 0
DWIDTH 20 0
BBX 20 20 0 -3
BITMAP
0E0000
0D0060
0DFFF0
0D8C60
198C60
198C60
318C60
398C60
598C60
998C60
19FFE0
198C60
198C60
198C60
198C60
198C60
198C60
198C60
19FFE0
198060
ENDCHAR
STARTCHAR 4F46
ENCODING 20294
SWIDTH 1200 0
DWIDTH 20 0
BBX 20 20 0 -3
BITMAP
0E0000
0C80C0
0CFFE0
0CC0C0
18C0C0
18C0C0
30C0C0
38C0C0
58FFC0
98C0C0
18C0C0
18C0C0
18C0C0
18C0C0
18FFC0
18C0C0
180000
180060
1BFFF0
180000
ENDCHAR
STARTCHAR 4F47
ENCODING 20295
SWIDTH 1200 0
DWIDTH 20 0
BBX 20 20 0 -3
BITMAP
0E0E00
0C0C00
0C8C40
18FFE0
198040
318080
200000
780060
5BFFF0
980C00
180C00
180C00
180C00
180C00
180C00
180C00
180C00
180C00
183C00
180800
ENDCHAR
STARTCHAR 4F4D
ENCODING 20301
SWIDTH 1200 0
DWIDTH 20 0
BBX 20 20 0 -3
BITMAP
0E0E00
0C0C00
0C0C00
0C0C00
180C60
19FFF0
300000
380080
5880E0
9840C0
1860C0
186180
186180
186100
186300
180200
180200
180260
1BFFF0
180000
ENDCHAR
STARTCHAR 4F4E
ENCODING 20302
SWIDTH 1200 0
DWIDTH 20 0
BBX 20 20 0 -3
BITMAP
0E00C0
0C03E0
0C8F00
0CFB00
18C300
18C300
30C300
38C360
58FFF0
98C300
18C300
18C300
18C300
18C300
18F980
1FC1A0
1B01A0
180CE0
1BFE70
180030
ENDCHAR
STARTCHAR 4F4F
ENCODING 20303
SWIDTH 1200 0
DWIDTH 20 0
BBX 20 20 0 -3
BITMAP
0E1000
0C0C00
0C0E00
0C0600
1800C0
19FFE0
300C00
380C00
580C00
980C00
180D80
18FFC0
180C00
180C00
180C00
180C00
180C00
180C60
1BFFF0
180000
ENDCHAR
STARTCHAR 4F50
ENCODING 20304
SWIDTH 1200 0
DWIDTH 20 0
BBX 20 20 0 -3
BITMAP
0E1C00
0C1800
0C1800
0C1860
1BFFF0
183000
303000
383000
586000
9860C0
18FFE0
18C600
198600
1A0600
180600
180600
180600
180660
19FFF0
180000
ENDCHAR
STARTCHAR 4F51
ENCODING 20305
SWIDTH 1200 0
DWIDTH 20 0
BBX 20 20 0 -3
BITMAP
0E1C00
0C1800
0C1800
0C1860
1BFFF0
183000
303000
383000
586000
9860C0
18FFE0
18E0C0
19E0C0
1A60C0
1860C0
1860C0
1860C0
187FC0
1860C0
186000
ENDCHAR
STARTCHAR 4F53
ENCODING 20307
SWIDTH 1200 0
DWIDTH 20 0
BBX 20 20 0 -3
BITMAP
0E0E00
0C0C00
0C0C00
0C0C00
180C60
1BFFF0
301E00
381D00
583D00
983D80
186C80
186CC0
18CCC0
18CC60
198C70
1B0D20
187F80
180C00
180C00
180C00
ENDCHAR
STARTCHAR 4F55
ENCODING 20309
SWIDTH 1200 0
DWIDTH 20 0
BBX 20 20 0 -3
BITMAP
0E0000
0C0060
0DFFF0
0C00C0
1800C0
188CC0
30FEC0
38CCC0
58CCC0
98CCC0
18CCC0
18CCC0
18FCC0
18CCC0
18C0C0
1800C0
1800C0
1800C0
1807C0
180080
ENDCHAR
STARTCHAR 4F57
ENCODING 20311
SWIDTH 1200 0
DWIDTH 20 0
BBX 20 20 0 -3
BITMAP
0E0E00
0C0C00
0D0C60
19FFF0
1B0060
330040
200080
787000
586000
9860C0
1861E0
186780
187800
186000
186000
186000
186040
186040
187FE0
183FC0
ENDCHAR
STARTCHAR 4F59
ENCODING 20313
SWIDTH 1200 0
DWIDTH 20 0
BBX 20 20 0 -3
BITMAP
006000
006000
00D000
018800
070600
1C0380
F00DF0
0FFE60
006000
006000
0060C0
7FFFE0
006000
086200
0E6100
186180
3060C0
4060C0
01E000
004000
ENDCHAR
STARTCHAR 4F5A
ENCODING 20314
SWIDTH 1200 0
DWIDTH 20 0
BBX 20 20 0 -3
BITMAP
0EEE00
0CCC00
0CCC00
18CCC0
18FFE0
308C00
218C00
310C00
720C00
B00C60
33FFF0
301A00
301A00
301A00
303100
303180
3060C0
30C0E0
318070
320020
ENDCHAR
STARTCHAR 4F5B
ENCODING 20315
SWIDTH 1200 0
DWIDTH 20 0
BBX 20 20 0 -3
BITMAP
0E7700
0C6600
0C6660
1FFFF0
186660
306660
226660
73FFE0
B36660
336600
326660
37FFF0
366660
306660
306660
30C660
30C7E0
30C640
318600
320600
ENDCHAR
STARTCHAR 4F5C
ENCODING 20316
SWIDTH 1200 0
DWIDTH 20 0
BBX 20 20 0 -3
BITMAP
0E3800
0C3000
0C3000
186060
187FF0
10CC00
30CC00
398C00
5B0C40
580FE0
980C00
180C00
180C00
180C40
180FE0
180C00
180C00
180C00
180C00
180C00
ENDCHAR
STARTCHAR 4F5D
ENCODING 20317
SWIDTH 1200 0
DWIDTH 20 0
BBX 20 20 0 -3
BITMAP
0E7000
0C6000
0C6000
186060
18FFF0
10C060
318060
3A4660
587F60
986660
186660
186660
186660
187E60
1866C0
1800C0
1800C0
180180
180780
180100
ENDCHAR
STARTCHAR 4F5E
ENCODING 20318
SWIDTH 1200 0
DWIDTH 20 0
BBX 20 20 0 -3
BITMAP
0E00C0
0CFFE0
0C0000
180000
180060
1BFFF0
300000
383800
783000
583060
9BFFF0
186180
18C180
18C300
19BA00
198E00
181B00
1831C0
18E0E0
1B0060
ENDCHAR
STARTCHAR 4F69
ENCODING 20329
SWIDTH 1200 0
DWIDTH 20 0
BBX 20 20 0 -3
BITMAP
1A0080
1BFFC0
1A0080
1A0080
320680
32FF80
223080
723080
72B280
B2FF80
32B280
32B280
32B280
32B2A0
32B2A0
32BEA0
32B4A0
323060
323070
343030
ENDCHAR
STARTCHAR 4F6F
ENCODING 20335
SWIDTH 1200 0
DWIDTH 20 0
BBX 20 20 0 -3
BITMAP
0E8100
0C4180
0C6300
186200
1804C0
33FFE0
201800
701800
701800
B01980
31FFC0
301800
301800
301800
301860
37FFF0
301800
301800
301800
301800
ENDCHAR
STARTCHAR 4F70
ENCODING 20336
SWIDTH 1200 0
DWIDTH 20 0
BBX 20 20 0 -3
BITMAP
0E0060
0DFFF0
0C0800
180E00
1858C0
187FE0
3060C0
3860C0
5860C0
9860C0
1860C0
187FC0
1860C0
1860C0
1860C0
1860C0
1860C0
1860C0
187FC0
1860C0
ENDCHAR
STARTCHAR 4F73
ENCODING 20339
SWIDTH 1200 0
DWIDTH 20 0
BBX 20 20 0 -3
BITMAP
0E0E00
0C0C00
0C0C00
0C0CC0
18FFE0
180C00
300C00
380C00
580C60
9BFFF0
180000
180E00
180C00
180CC0
18FFE0
180C00
180C00
180C00
180C60
1BFFF0
ENDCHAR
STARTCHAR 4F75
ENCODING 20341
SWIDTH 1200 0
DWIDTH 20 0
BBX 20 20 0 -3
BITMAP
0E6100
0C31C0
0C3100
180240
19FFE0
103300
303300
383300
583300
583360
9BFFF0
183300
183300
186300
186300
186300
18C300
18C300
198300
1A0300
ENDCHAR
STARTCHAR 4F76
ENCODING 20342
SWIDTH 1200 0
DWIDTH 20 0
BBX 20 20 0 -3
BITMAP
0E0E00
0C0C00
0C0C60
19FFF0
180C00
300C00
200C00
780CC0
58FFE0
980000
180000
184180
187FC0
186180
186180
186180
186180
186180
187F80
186180
ENDCHAR
STARTCHAR 4F7B
ENCODING 20347
SWIDTH 1200 0
DWIDTH 20 0
BBX 20 20 0 -3
BITMAP
0E3700
0C3600
0C3600
183640
1A3670
313640
21B680
71B600
703600
B03600
303700
3076C0
31B660
373660
323600
306600
306620
30C620
3187F0
3203E0
ENDCHAR
STARTCHAR 4F7C
ENCODING 20348
SWIDTH 1200 0
DWIDTH 20 0
BBX 20 20 0 -3
BITMAP
0E0E00
0C0C00
0C0C60
0FFFF0
184000
187300
30C0C0
398060
5A0260
984380
184300
19A600
193600
181C00
180C00
181E00
183300
1861C0
18C0F0
1B0060
ENDCHAR
STARTCHAR 4F7F
ENCODING 20351
SWIDTH 1200 0
DWIDTH 20 0
BBX 20 20 0 -3
BITMAP
0E0E00
0C0C00
0C0C60
1BFFF0
180C00
110C60
31FFF0
398C60
598C60
598C60
99FFE0
198C60
180C00
188C00
185800
183800
183C00
186700
18C3F0
1B00E0
ENDCHAR
STARTCHAR 4F83
ENCODING 20355
SWIDTH 1200 0
DWIDTH 20 0
BBX 20 20 0 -3
BITMAP
1D00C0
19FFE0
1980C0
1980C0
3180C0
3180C0
31FFC0
2180C0
700000
71DDC0
B19980
319980
319980
319980
319980
319980
3119A0
3319A0
3219F0
3400E0
ENDCHAR
STARTCHAR 4F86
ENCODING 20358
SWIDTH 1200 0
DWIDTH 20 0
BBX 20 20 0 -3
BITMAP
007000
0060C0
7FFFE0
006000
1C6380
186300
186300
346680
226440
436860
837060
006000
00F000
01EC00
036600
066300
0C61C0
3060F0
C06060
006000
ENDCHAR
STARTCHAR 4F88
ENCODING 20360
SWIDTH 1200 0
DWIDTH 20 0
BBX 20 20 0 -3
BITMAP
0E3800
0C3080
0C7FC0
186180
18C180
31B300
221600
780C00
583800
986E00
1B8C20
181FF0
183060
186860
198CC0
180580
180300
180600
181C00
18E000
ENDCHAR
STARTCHAR 4F8B
ENCODING 20363
SWIDTH 1200 0
DWIDTH 20 0
BBX 20 20 0 -3
BITMAP
1C0070
181860
1BFC60
18C360
18C360
308360
309B60
31FF60
719B60
731B60
B29B60
345360
307360
302360
306360
304060
30C060
308060
3101E0
320040
ENDCHAR
STARTCHAR 4F8D
ENCODING 20365
SWIDTH 1200 0
DWIDTH 20 0
BBX 20 20 0 -3
BITMAP
0E0E00
0C0C00
0C0C40
0DFFE0
180C00
180C00
300C20
3BFFF0
580180
980180
1801A0
1BFFF0
180180
184180
183180
181980
181980
180180
180780
180100
ENDCHAR
STARTCHAR 4F8F
ENCODING 20367
SWIDTH 1200 0
DWIDTH 20 0
BBX 20 20 0 -3
BITMAP
0E0E00
0CEC00
0CCC00
18CC00
18CCC0
30FFE0
208C00
790C00
580C60
9BFFF0
181E00
181D00
183D00
182D80
186C80
18CCC0
198C60
1A0C70
180C20
180C00
ENDCHAR
STARTCHAR 4F91
ENCODING 20369
SWIDTH 1200 0
DWIDTH 20 0
BBX 20 20 0 -3
BITMAP
0E3800
0C3000
0C3060
1BFFF0
186000
3060C0
207FE0
70E0C0
70E0C0
B1E0C0
317FC0
3260C0
3460C0
3060C0
307FC0
3060C0
3060C0
3060C0
3063C0
306080
ENDCHAR
STARTCHAR 4F96
ENCODING 20374
SWIDTH 1200 0
DWIDTH 20 0
BBX 20 20 0 -3
BITMAP
007000
006000
00D000
018C00
030600
0E0380
380CF0
E7FE60
000000
2000C0
3FFFE0
3318C0
3318C0
3318C0
3FFFC0
3318C0
3318C0
3318C0
331BC0
331880
ENDCHAR
STARTCHAR 4F98
ENCODING 20376
SWIDTH 1200 0
DWIDTH 20 0
BBX 20 20 0 -3
BITMAP
0E0E00
0C0C00
0D0C20
19FFF0
190060
330040
230600
781F00
58F800
981800
181860
181FF0
1BF800
181800
181800
181800
181840
181840
181FE0
180FC0
ENDCHAR
STARTCHAR 4F9B
ENCODING 20379
SWIDTH 1200 0
DWIDTH 20 0
BBX 20 20 0 -3
BITMAP
0E7380
0C6300
0C6300
186300
186340
1BFFE0
306300
306300
706300
B06300
306300
306360
37FFF0
300000
308200
30E180
30C0C0
3180C0
330060
340060
ENDCHAR
STARTCHAR 4F9D
ENCODING 20381
SWIDTH 1200 0
DWIDTH 20 0
BBX 20 20 0 -3
BITMAP
0E0E00
0C0C00
0C0C00
0C0C60
1BFFF0
181800
181800
383800
382880
7868E0
586CC0
98E580
19E500
1B6600
186300
186300
186180
1861C0
1BF8F0
198060
ENDCHAR
STARTCHAR 4FA0
ENCODING 20384
SWIDTH 1200 0
DWIDTH 20 0
BBX 20 20 0 -3
BITMAP
0E0E00
0C0C00
0C0CC0
09FFE0
180C00
108C80
184CE0
386CC0
386D80
586D00
580C60
9BFFF0
181A00
181A00
183300
183180
1861C0
18C0E0
198070
1A0020
ENDCHAR
STARTCHAR 4FA1
ENCODING 20385
SWIDTH 1200 0
DWIDTH 20 0
BBX 20 20 0 -3
BITMAP
0E0000
0C0060
0FFFF0
0C3600
183600
183600
313660
39FFF0
59B660
99B660
19B660
19B660
19B660
19B660
19B660
19B660
19B660
19FFE0
198060
198000
ENDCHAR
STARTCHAR 4FAB
ENCODING 20395
SWIDTH 1200 0
DWIDTH 20 0
BBX 20 20 0 -3
BITMAP
0E0E00
0C0C00
0C0C60
1BFFF0
18C000
18C000
30C000
38FFE0
787FE0
582000
983800
183060
1BFFF0
186080
184180
18FB00
18C600
181B80
1860E0
1B8060
ENDCHAR
STARTCHAR 4FAD
ENCODING 20397
SWIDTH 1200 0
DWIDTH 20 0
BBX 20 20 0 -3
BITMAP
1C8060
18FFF0
18C060
18C060
38C060
30FFE0
30C260
70C200
70C200
B18100
318100
31B080
330C80
3306C0
320660
326070
341820
300E00
300700
300300
ENDCHAR
STARTCHAR 4FAE
ENCODING 20398
SWIDTH 1200 0
DWIDTH 20 0
BBX 20 20 0 -3
BITMAP
0E7000
0C6000
0C6060
0CFFF0
188000
1940C0
307FE0
3864C0
5864C0
9864C0
1864C0
1BFFF0
18C8C0
18C8C0
18C8C0
18C8C0
18FFE0
18C180
180780
180100
ENDCHAR
STARTCHAR 4FAF
ENCODING 20399
SWIDTH 1200 0
DWIDTH 20 0
BBX 20 20 0 -3
BITMAP
0E0180
0CFFC0
0C0180
0C0180
1801A0
1BFFF0
308000
38E000
58C0C0
99FFE0
190C00
1A0C00
180C60
1BFFF0
181A00
181900
183180
1860C0
18C070
1B0020
ENDCHAR
STARTCHAR 4FB5
ENCODING 20405
SWIDTH 1200 0
DWIDTH 20 0
BBX 20 20 0 -3
BITMAP
0E00C0
0CFFE0
0C00C0
18FFC0
1800C0
3000C0
38FFC0
3800C0
590020
99FFF0
1B0020
1A01A0
19FFC0
184180
182300
181600
181C00
183700
18E1F0
1B0060
ENDCHAR
STARTCHAR 4FB6
ENCODING 20406
SWIDTH 1200 0
DWIDTH 20 0
BBX 20 20 0 -3
BITMAP
0E80C0
0CFFE0
0CC0C0
0CC0C0
18C0C0
18C0C0
30C0C0
38FFC0
58C8C0
980E00
180C00
181800
191060
19FFF0
198060
198060
198060
198060
19FFE0
198060
ENDCHAR
STARTCHAR 4FBF
ENCODING 20415
SWIDTH 1200 0
DWIDTH 20 0
BBX 20 20 0 -3
BITMAP
0E0060
0DFFF0
0C0C00
0C8CC0
18FFE0
18CCC0
30CCC0
38FFC0
58CCC0
98CCC0
18FFC0
180CC0
184C00
182C00
181800
181C00
183600
186380
18C1F0
1B0060
ENDCHAR
STARTCHAR 4FC2
ENCODING 20418
SWIDTH 1200 0
DWIDTH 20 0
BBX 20 20 0 -3
BITMAP
0E0180
0C0FE0
0DFC00
0C1000
181C00
18B100
3041C0
386300
586600
980C80
181060
1BFFB0
19CC30
180C00
188D00
18ECC0
198C60
190C30
1A0C30
180C00
ENDCHAR
STARTCHAR 4FC3
ENCODING 20419
SWIDTH 1200 0
DWIDTH 20 0
BBX 20 20 0 -3
BITMAP
0E80C0
0CFFE0
0CC0C0
0CC0C0
18C0C0
18C0C0
30FFC0
38CCC0
580C00
980C00
180C00
19CCC0
198FE0
198C00
198C00
198C00
194C00
1B3C00
1A1FF0
1C03E0
ENDCHAR
STARTCHAR 4FC4
ENCODING 20420
SWIDTH 1200 0
DWIDTH 20 0
BBX 20 20 0 -3
BITMAP
106700
1CF6C0
1BC660
18C660
30C600
30C660
77FFF0
70C300
70C340
B0C370
30C360
30DB60
30E1C0
37C180
32C1A0
30C1A0
30C3E0
30C6E0
33CC70
309030
ENDCHAR
STARTCHAR 4FCA
ENCODING 20426
SWIDTH 1200 0
DWIDTH 20 0
BBX 20 20 0 -3
BITMAP
081000
0E1D00
0C3080
0C20C0
184FE0
1BFB60
31B300
303320
706320
B0C3F0
3301E0
303080
303FC0
306180
30C300
333600
301C00
303780
30E1F0
370060
ENDCHAR
STARTCHAR 4FCE
ENCODING 20430
SWIDTH 1200 0
DWIDTH 20 0
BBX 20 20 0 -3
BITMAP
0E20C0
0C3FE0
0C30C0
1830C0
1C30C0
3330C0
31B0C0
61BFC0
8030C0
0E30C0
0C30C0
0C30C0
183FC0
1C30C0
3330C0
31B0C0
61B0C0
8030C0
00FFF0
000000
ENDCHAR
STARTCHAR 4FD0
ENCODING 20432
SWIDTH 1200 0
DWIDTH 20 0
BBX 20 20 0 -3
BITMAP
1C1070
187860
1BC360
18C360
30C360
30D360
27FB60
30C360
70C360
71E360
B1D360
31DB60
33DB60
32C360
32C060
34C060
30C060
30C060
30C1E0
30C040
ENDCHAR
STARTCHAR 4FD1
ENCODING 20433
SWIDTH 1200 0
DWIDTH 20 0
BBX 20 20 0 -3
BITMAP
0E0180
0CFFC0
0C0180
181300
180A00
180C00
310860
39FFF0
598C60
998C60
19FFE0
198C60
198C60
198C60
19FFE0
198C60
198C60
198C60
198DE0
198C40
ENDCHAR
STARTCHAR 4FD4
ENCODING 20436
SWIDTH 1200 0
DWIDTH 20 0
BBX 20 20 0 -3
BITMAP
0E8180
0CFFC0
0CC180
18C180
18FF80
30C180
30C180
78FF80
58C180
98C180
18C180
18FF80
183600
183600
183600
186600
186620
18C620
1987F0
1A03E0
ENDCHAR
STARTCHAR 4FD7
ENCODING 20439
SWIDTH 1200 0
DWIDTH 20 0
BBX 20 20 0 -3
BITMAP
0E4100
0C7080
0C60C0
0CCC60
198C60
1A1A00
301900
383180
5860C0
98C070
1B0020
1880C0
18FFE0
18C0C0
18C0C0
18C0C0
18C0C0
18C0C0
18FFC0
18C0C0
ENDCHAR
STARTCHAR 4FD8
ENCODING 20440
SWIDTH 1200 0
DWIDTH 20 0
BBX 20 20 0 -3
BITMAP
0E00C0
0C03E0
0C8E00
18F080
18C860
108430
398630
390600
5A00C0
98FFE0
180180
180200
180C00
180C60
1BFFF0
180C00
180C00
180C00
183C00
180800
ENDCHAR
STARTCHAR 4FDA
ENCODING 20442
SWIDTH 1200 0
DWIDTH 20 0
BBX 20 20 0 -3
BITMAP
0E80C0
0CFFE0
0CCCC0
18CCC0
18CCC0
18FFC0
30CCC0
38CCC0
58CCC0
98FFC0
18CCC0
180C00
180C00
180CC0
19FFE0
180C00
180C00
180C60
1BFFF0
180000
ENDCHAR
STARTCHAR 4FDB
ENCODING 20443
SWIDTH 1200 0
DWIDTH 20 0
BBX 20 20 0 -3
BITMAP
0E3800
0C3080
0C3FC0
186180
18C300
118600
3A88C0
38FFE0
58CCC0
98C8C0
18D8C0
18FFC0
1896C0
183600
183600
186600
184620
18C620
1987F0
1A01E0
ENDCHAR
STARTCHAR 4FDD
ENCODING 20445
SWIDTH 1200 0
DWIDTH 20 0
BBX 20 20 0 -3
BITMAP
0E80C0
0CFFE0
0CC0C0
0CC0C0
18C0C0
18C0C0
38FFC0
38CCC0
580C00
980C60
1BFFF0
183D00
183D00
186D80
186C80
18CCC0
188C60
190C70
1A0C20
180C00
ENDCHAR
STARTCHAR 4FDF
ENCODING 20447
SWIDTH 1200 0
DWIDTH 20 0
BBX 20 20 0 -3
BITMAP
0E2000
0C3800
0C3080
182040
1847E0
33FC60
318000
607000
7060C0
B0FFE0
318C00
300C00
300C60
33FFF0
301A00
301B00
303180
3061C0
30C0F0
330060
ENDCHAR
STARTCHAR 4FE1
ENCODING 20449
SWIDTH 1200 0
DWIDTH 20 0
BBX 20 20 0 -3
BITMAP
0E0180
0C7FC0
0C0000
180060
19FFF0
100000
380180
387FC0
580000
580180
987FC0
180000
1880C0
18FFE0
18C0C0
18C0C0
18C0C0
18C0C0
18FFC0
18C0C0
ENDCHAR
STARTCHAR 4FE3
ENCODING 20451
SWIDTH 1200 0
DWIDTH 20 0
BBX 20 20 0 -3
BITMAP
0E80C0
0CFFE0
0CC0C0
0CC0C0
18C0C0
18FFC0
38C0C0
380000
5800C0
99FFE0
180C00
180C00
180C60
1BFFF0
181A00
181A00
183100
1861C0
18C0F0
1B0060
ENDCHAR
STARTCHAR 4FE4
ENCODING 20452
SWIDTH 1200 0
DWIDTH 20 0
BBX 20 20 0 -3
BITMAP
0E4100
0C21C0
0C3300
183260
1BFFF0
180C60
310C60
39FFE0
598C60
998C00
1B0C60
1BFFF0
1B1C60
183C60
182C60
186C60
18CCC0
1B0FC0
180C80
180C00
ENDCHAR
STARTCHAR 4FE5
ENCODING 20453
SWIDTH 1200 0
DWIDTH 20 0
BBX 20 20 0 -3
BITMAP
0E0E00
0C0C00
0C0C40
19FFE0
180C00
188CC0
30FFE0
38CCC0
58CCC0
98FFC0
18CCC0
18CCC0
18FFC0
18CCC0
180C20
1BFFF0
180C00
180C00
180C00
180C00
ENDCHAR
STARTCHAR 4FEE
ENCODING 20462
SWIDTH 1200 0
DWIDTH 20 0
BBX 20 20 0 -3
BITMAP
1C7000
186000
186060
187FF0
36D0C0
349180
350B00
340E00
741B80
7471F0
B78860
340E00
343900
34E1C0
340700
341C40
34E0F0
3403C0
300E00
31F000
ENDCHAR
STARTCHAR 4FEF
ENCODING 20463
SWIDTH 1200 0
DWIDTH 20 0
BBX 20 20 0 -3
BITMAP
1C0E00
180C00
1A0C60
1BFFF0
1B0000
331CE0
3318C0
3318C0
7337F0
7330C0
B374C0
33B2C0
3332C0
3332C0
3330C0
3630C0
3430C0
3430C0
3833C0
303080
ENDCHAR
STARTCHAR 4FF3
ENCODING 20467
SWIDTH 1200 0
DWIDTH 20 0
BBX 20 20 0 -3
BITMAP
0E3B80
0C3300
0C3300
183320
1BF3F0
303300
303300
303300
703320
B3F3F0
303300
303300
303300
30F320
3733F0
326300
306300
30C300
318300
320300
ENDCHAR
STARTCHAR 4FF5
ENCODING 20469
SWIDTH 1200 0
DWIDTH 20 0
BBX 20 20 0 -3
BITMAP
0E1C00
0C1800
0C18C0
1BFFE0
181800
181980
31FFC0
301800
201860
77FFF0
B03400
306440
30C470
31C640
36C280
30C300
30C180
30F9C0
37C0F0
330060
ENDCHAR
STARTCHAR 4FF6
ENCODING 20470
SWIDTH 1200 0
DWIDTH 20 0
BBX 20 20 0 -3
BITMAP
1DC000
198060
199FF0
198460
19F460
318460
318460
31B2C0
7FFAC0
7182C0
B18380
35C180
37A180
35B380
39B2C0
39B6C0
318460
318C60
339030
312020
ENDCHAR
STARTCHAR 4FF8
ENCODING 20472
SWIDTH 1200 0
DWIDTH 20 0
BBX 20 20 0 -3
BITMAP
0E0E00
0C0C00
0C0CC0
0DFFE0
180C00
10FFC0
381A00
381A60
5BFFF0
983100
186EC0
18CC70
1B0C20
187FC0
180C00
19FFE0
180C00
180C00
180C00
180C00
ENDCHAR
STARTCHAR 4FFA
ENCODING 20474
SWIDTH 1200 0
DWIDTH 20 0
BBX 20 20 0 -3
BITMAP
0E1C00
0C1800
0C1860
0FFFF0
183200
186100
306CC0
38CC70
59FFE0
9ECCC0
18CCC0
18FFC0
18CCC0
18CCC0
18FFC0
18CCC0
180C20
180C20
180FF0
1807E0
ENDCHAR
STARTCHAR 4FFE
ENCODING 20478
SWIDTH 1200 0
DWIDTH 20 0
BBX 20 20 0 -3
BITMAP
0E0800
0C0E00
0C9860
0CFFF0
18CC60
18CC60
30FFE0
38CC60
38CC60
58FFE0
981860
183300
182300
184320
1BFFF0
180300
180300
180300
180300
180300
ENDCHAR
STARTCHAR 5005
ENCODING 20485
SWIDTH 1200 0
DWIDTH 20 0
BBX 20 20 0 -3
BITMAP
0E0E00
0C0C00
0C0C60
1BFFF0
180000
30E1C0
38C180
78C180
59A340
993230
1A3430
180800
180000
180C60
1BFFF0
180C00
180C00
180C00
180C00
180C00
ENDCHAR
STARTCHAR 5006
ENCODING 20486
SWIDTH 1200 0
DWIDTH 20 0
BBX 20 20 0 -3
BITMAP
1C0060
1BFFF0
181800
181800
341820
37FFF0
341820
641820
749920
B7DFA0
349920
349920
355AA0
355AA0
363C60
341820
341820
341820
3419E0
341840
ENDCHAR
STARTCHAR 5009
ENCODING 20489
SWIDTH 1200 0
DWIDTH 20 0
BBX 20 20 0 -3
BITMAP
007000
006000
00D000
018800
030600
06FB00
0C01C0
3FFEF0
C60660
07FE00
060600
07FE00
0C0600
0C0000
1BFF00
1B0300
330300
630300
03FF00
030300
ENDCHAR
STARTCHAR 500B
ENCODING 20491
SWIDTH 1200 0
DWIDTH 20 0
BBX 20 20 0 -3
BITMAP
0D0060
0DFFF0
0D8060
198E60
198C60
198D60
31FFE0
398C60
598C60
998C60
19BF60
19B360
19B360
19B360
19B360
19BF60
19B360
198060
19FFE0
198060
ENDCHAR
STARTCHAR 500D
ENCODING 20493
SWIDTH 1200 0
DWIDTH 20 0
BBX 20 20 0 -3
BITMAP
0E0E00
0C0C00
0C0CC0
0DFFE0
184100
1821C0
303300
383200
580460
9BFFF0
180000
180000
1880C0
18FFE0
18C0C0
18C0C0
18C0C0
18C0C0
18FFC0
18C0C0
ENDCHAR
STARTCHAR 500F
ENCODING 20495
SWIDTH 1200 0
DWIDTH 20 0
BBX 20 20 0 -3
BITMAP
1C2000
1830C0
183FE0
1860C0
36B180
350B00
340E00
341B80
7471F0
758060
B40E80
340C40
340C60
340C00
35FFF0
341A00
343100
3461C0
30C0F0
330020
ENDCHAR
STARTCHAR 5011
ENCODING 20497
SWIDTH 1200 0
DWIDTH 20 0
BBX 20 20 0 -3
BITMAP
120060
1BF7F0
1B3660
1B3660
33F7E0
333660
233660
73F7E0
730060
730060
B30060
330060
330060
330060
330060
330060
330060
330060
3301E0
330040
ENDCHAR
STARTCHAR 5012
ENCODING 20498
SWIDTH 1200 0
DWIDTH 20 0
BBX 20 20 0 -3
BITMAP
1C1070
1BF860
18C360
188360
39A360
311360
37FB60
319B60
700360
70E360
B0C360
30D360
37FB60
30C360
30C060
30CC60
30F060
37C060
3301E0
300040
ENDCHAR
STARTCHAR 5014
ENCODING 20500
SWIDTH 1200 0
DWIDTH 20 0
BBX 20 20 0 -3
BITMAP
1D0060
19FFF0
198060
198060
31FFE0
318060
218700
718600
71B660
B1A640
31A640
31BFC0
31A640
318600
310600
337670
326660
326660
347FE0
306060
ENDCHAR
STARTCHAR 5016
ENCODING 20502
SWIDTH 1200 0
DWIDTH 20 0
BBX 20 20 0 -3
BITMAP
0E0E00
0C0CC0
0CFFE0
0C0C00
180C00
180C60
33FFF0
384100
5831C0
983100
180220
1BFFF0
180C00
180C00
180CC0
19FFE0
180C00
180C00
180C00
180C00
ENDCHAR
STARTCHAR 5019
ENCODING 20505
SWIDTH 1200 0
DWIDTH 20 0
BBX 20 20 0 -3
BITMAP
1C0180
187FC0
180180
170180
3601A0
36FFF0
362000
363000
7620C0
767FE0
B68C00
360C00
360C60
37FFF0
361A00
361900
363180
3660C0
30C070
310020
ENDCHAR
STARTCHAR 501A
ENCODING 20506
SWIDTH 1200 0
DWIDTH 20 0
BBX 20 20 0 -3
BITMAP
0E1C00
0C1800
0C1980
19FFC0
181800
103600
386180
398180
580060
9BFFF0
1800C0
188CC0
18FEC0
18CCC0
18CCC0
18FCC0
18CCC0
18C0C0
1803C0
180080
ENDCHAR
STARTCHAR 501F
ENCODING 20511
SWIDTH 1200 0
DWIDTH 20 0
BBX 20 20 0 -3
BITMAP
0E7380
0C6300
0C6340
0DFFE0
186300
186300
306300
386360
5BFFF0
980000
188180
18FFC0
18C180
18C180
18FF80
18C180
18C180
18C180
18FF80
18C180
ENDCHAR
STARTCHAR 5021
ENCODING 20513
SWIDTH 1200 0
DWIDTH 20 0
BBX 20 20 0 -3
BITMAP
0740C0
067FE0
0660C0
0C60C0
0C7FC0
1860C0
1860C0
3060C0
387FC0
5860C0
988060
18FFF0
18C060
18C060
18FFE0
18C060
18C060
18C060
18FFE0
18C060
ENDCHAR
STARTCHAR 5023
ENCODING 20515
SWIDTH 1200 0
DWIDTH 20 0
BBX 20 20 0 -3
BITMAP
10E380
18C300
18C300
30D320
37FBF0
218260
318660
71B460
71FA60
B1B240
31B2C0
3332C0
3332C0
323180
323180
3663C0
366240
346660
39EC70
305020
ENDCHAR
STARTCHAR 5024
ENCODING 20516
SWIDTH 1200 0
DWIDTH 20 0
BBX 20 20 0 -3
BITMAP
0E0E00
0C0C00
0C0C60
1FFFF0
181800
3850C0
3B7FE0
7B60C0
5B60C0
9B7FC0
1B60C0
1B60C0
1B7FC0
1B60C0
1B60C0
1B7FC0
1B60C0
1B0020
1BFFF0
1B0000
ENDCHAR
STARTCHAR 5025
ENCODING 20517
SWIDTH 1200 0
DWIDTH 20 0
BBX 20 20 0 -3
BITMAP
0E0E00
0C0C00
0D0C20
19FFF0
1B3320
333340
206320
306320
70C3F0
B181E0
320000
3000C0
31FFE0
300C00
300C00
300C00
300C00
300C60
33FFF0
300000
ENDCHAR
STARTCHAR 5026
ENCODING 20518
SWIDTH 1200 0
DWIDTH 20 0
BBX 20 20 0 -3
BITMAP
0D1D00
0C99C0
0CD980
0CDB00
181A40
19FFE0
303400
383460
5BFFF0
986300
18C180
19FFC0
1B0370
1C8320
18FF00
18C300
18C040
18C040
18FFE0
187FC0
ENDCHAR
STARTCHAR 5028
ENCODING 20520
SWIDTH 1200 0
DWIDTH 20 0
BBX 20 20 0 -3
BITMAP
0E8060
0CFFF0
0CC060
18C060
18FFE0
30C060
20C700
70C600
70C660
B0FFF0
30C600
30C600
31A6C0
31BFE0
31B0C0
3330C0
3330C0
3230C0
343FC0
3030C0
ENDCHAR
STARTCHAR 5029
ENCODING 20521
SWIDTH 1200 0
DWIDTH 20 0
BBX 20 20 0 -3
BITMAP
0E0E00
0C0C40
0DFFE0
180C00
18FFC0
300C00
380C20
7BFFF0
580000
9880C0
18FFE0
18CCC0
18CCC0
18CCC0
18FFC0
18C0C0
18C0C0
18C0C0
18C3C0
18C080
ENDCHAR
STARTCHAR 502A
ENCODING 20522
SWIDTH 1200 0
DWIDTH 20 0
BBX 20 20 0 -3
BITMAP
0E0800
0C1C00
0D3060
19C3F0
198060
318060
21FBE0
718060
718060
B1FFE0
31B360
303300
303300
303300
306300
306300
306320
30C320
3183F0
3201E0
ENDCHAR
STARTCHAR 502B
ENCODING 20523
SWIDTH 1200 0
DWIDTH 20 0
BBX 20 20 0 -3
BITMAP
041800
061800
0E3400
0C6300
18C180
1980C0
330070
3401A0
71FFC0
B00000
320060
33FFF0
333660
333660
33FFE0
333660
333660
333660
3336E0
330040
ENDCHAR
STARTCHAR 502C
ENCODING 20524
SWIDTH 1200 0
DWIDTH 20 0
BBX 20 20 0 -3
BITMAP
070E00
060C00
060CC0
0C0FE0
0C0C00
188CC0
18FFE0
30C0C0
38C0C0
58FFC0
98C0C0
18C0C0
18FFC0
18CCC0
180C00
180C60
1BFFF0
180C00
180C00
180C00
ENDCHAR
STARTCHAR 502D
ENCODING 20525
SWIDTH 1200 0
DWIDTH 20 0
BBX 20 20 0 -3
BITMAP
0E0180
0C07C0
0C1E00
0CEC00
180C60
1BFFF0
103E00
386D80
38CCF0
5B0C60
980C00
183000
183060
1BFFF0
186180
18C300
19B600
181F00
1871C0
1B80C0
ENDCHAR
STARTCHAR 5036
ENCODING 20534
SWIDTH 1200 0
DWIDTH 20 0
BBX 20 20 0 -3
BITMAP
0E8180
0CFFC0
0CC180
0CC180
18FF80
18C180
30C180
38FF80
58C180
98C180
18C180
18FF80
18C180
180060
1BFFF0
182200
183180
1860C0
18C0E0
1B0060
ENDCHAR
STARTCHAR 5039
ENCODING 20537
SWIDTH 1200 0
DWIDTH 20 0
BBX 20 20 0 -3
BITMAP
070C00
060C00
0C1A00
0C3180
1860F0
198060
300180
387FC0
580C00
988CC0
18FFE0
18CCC0
18CCC0
18FFC0
18DAC0
181A00
183100
1831C0
1860F0
198060
ENDCHAR
STARTCHAR 5043
ENCODING 20547
SWIDTH 1200 0
DWIDTH 20 0
BBX 20 20 0 -3
BITMAP
120060
1BFFF0
1B0000
1B3FC0
3330C0
333FC0
2330C0
733FC0
730600
730C40
B37FE0
331980
331D00
333300
3306C0
3318C0
336000
330060
33FFF0
330000
ENDCHAR
STARTCHAR 5047
ENCODING 20551
SWIDTH 1200 0
DWIDTH 20 0
BBX 20 20 0 -3
BITMAP
122060
1BF7F0
1B2060
1B2060
332060
332060
23E7E0
732060
730000
730060
B3EFF0
330460
330460
3302C0
3303C0
33E180
3303C0
3306E0
330C70
333020
ENDCHAR
STARTCHAR 5048
ENCODING 20552
SWIDTH 1200 0
DWIDTH 20 0
BBX 20 20 0 -3
BITMAP
1D0180
19FFC0
198180
198180
31FF80
318180
218180
71FF80
70C180
70C020
B1FFF0
330C60
35C860
319C60
319660
31A660
31FF60
3180C0
3003C0
300080
ENDCHAR
STARTCHAR 5049
ENCODING 20553
SWIDTH 1200 0
DWIDTH 20 0
BBX 20 20 0 -3
BITMAP
0E1C00
0C1980
0CFFC0
0C3180
1861A0
1BFFF0
180000
3880C0
38FFE0
78C0C0
58FFC0
98C6C0
180600
1806C0
19FFE0
18C600
18C660
1BFFF0
180600
180600
ENDCHAR
STARTCHAR 504F
ENCODING 20559
SWIDTH 1200 0
DWIDTH 20 0
BBX 20 20 0 -3
BITMAP
1C0060
1BFFF0
180000
1900C0
31FFE0
3180C0
3180C0
31FFC0
718000
718060
B1FFF0
33D260
33D260
32FFE0
32D260
34D260
34D260
30D260
30C1E0
30C040
ENDCHAR
STARTCHAR 5050
ENCODING 20560
SWIDTH 1200 0
DWIDTH 20 0
BBX 20 20 0 -3
BITMAP
0E0E00
0C0C40
0DFFE0
182100
181B80
300E00
201B80
7161A0
71FFF0
B18100
318380
318E00
31B880
3181E0
318700
311C20
336070
3303C0
320E00
34F000
ENDCHAR
STARTCHAR 5055
ENCODING 20565
SWIDTH 1200 0
DWIDTH 20 0
BBX 20 20 0 -3
BITMAP
0EE700
0CC620
0CC670
18F780
18C600
10C620
38C620
38F7F0
5FC3E0
5B0800
980E00
1918C0
19FFE0
1980C0
1980C0
19FFC0
1980C0
1980C0
19FFC0
1980C0
ENDCHAR
STARTCHAR 5056
ENCODING 20566
SWIDTH 1200 0
DWIDTH 20 0
BBX 20 20 0 -3
BITMAP
0E1C00
0C1880
0C18E0
0CFFC0
181980
181B00
301E60
39FFF0
581C00
983600
1866C0
18FFE0
1960C0
1A60C0
187FC0
1860C0
1860C0
1860C0
187FC0
1860C0
ENDCHAR
STARTCHAR 505A
ENCODING 20570
SWIDTH 1200 0
DWIDTH 20 0
BBX 20 20 0 -3
BITMAP
1DC700
198600
198600
31A620
37F7F0
318C60
718A60
719260
B182C0
35B2C0
37FAC0
363180
363180
363180
363380
37F2C0
3636C0
300C60
301870
302020
ENDCHAR
STARTCHAR 505C
ENCODING 20572
SWIDTH 1200 0
DWIDTH 20 0
BBX 20 20 0 -3
BITMAP
0E0700
0C0600
0C0660
0FFFF0
180000
187F80
306180
386180
587F80
990020
19FFF0
1B0020
1B01A0
18FFC0
180C00
180C00
180C00
180C00
183C00
180800
ENDCHAR
STARTCHAR 5065
ENCODING 20581
SWIDTH 1200 0
DWIDTH 20 0
BBX 20 20 0 -3
BITMAP
398700
37C640
31BFE0
310640
230640
627FF0
728640
77C640
B5BFC0
B58640
318600
35BFE0
358600
330620
337FF0
338600
32C600
366600
343FF0
380FE0
ENDCHAR
STARTCHAR 506C
ENCODING 20588
SWIDTH 1200 0
DWIDTH 20 0
BBX 20 20 0 -3
BITMAP
0E7000
0C6060
0CFFF0
199360
191260
326260
343C60
604E60
708AC0
B110C0
302780
300100
300800
306440
316620
316630
3360B0
366080
367FC0
303F80
ENDCHAR
STARTCHAR 5072
ENCODING 20594
SWIDTH 1200 0
DWIDTH 20 0
BBX 20 20 0 -3
BITMAP
0E80C0
0CFFE0
0CCCC0
18CCC0
18CCC0
30FFC0
30CCC0
78CCC0
58CCC0
98FFC0
18C0C0
181000
180C00
180640
18B620
18B030
19B0B0
1B3080
1B3FC0
181F80
ENDCHAR
STARTCHAR 5074
ENCODING 20596
SWIDTH 1200 0
DWIDTH 20 0
BBX 20 20 0 -3
BITMAP
1C0070
1A1860
1BFC60
1B1B60
331B60
331B60
33FB60
331B60
731B60
731B60
B3FB60
331B60
331B60
331B60
33FB60
300360
312060
319860
330DE0
340C40
ENDCHAR
STARTCHAR 5075
ENCODING 20597
SWIDTH 1200 0
DWIDTH 20 0
BBX 20 20 0 -3
BITMAP
0E0E00
0C0C60
0C0FF0
0C0C00
188CC0
18FFE0
30C0C0
38C0C0
58FFC0
98C0C0
18C0C0
18FFC0
18C0C0
18C0C0
18FFC0
18C0C0
182300
1838C0
18E070
1B8030
ENDCHAR
STARTCHAR 5076
ENCODING 20598
SWIDTH 1200 0
DWIDTH 20 0
BBX 20 20 0 -3
BITMAP
110180
1DFFC0
199980
199980
31FF80
319980
319980
61FF80
799980
B01800
341860
37FFF0
361860
361A60
361960
36FFE0
367160
360060
3601E0
360040
ENDCHAR
STARTCHAR 5078
ENCODING 20600
SWIDTH 1200 0
DWIDTH 20 0
BBX 20 20 0 -3
BITMAP
0E0800
0CFC00
0C1A00
183180
1860C0
30C070
2301A0
70FFC0
700000
B21240
33FB60
331240
3396C0
335480
331900
339480
335640
331240
337360
332360
ENDCHAR
STARTCHAR 507D
ENCODING 20605
SWIDTH 1200 0
DWIDTH 20 0
BBX 20 20 0 -3
BITMAP
1D9C00
18D800
18D800
181A00
3BFF00
306600
306600
306680
707FC0
70C180
B0C180
30C1A0
31FFF0
330060
340260
30A960
30AD60
31A4C0
3303C0
300080
ENDCHAR
STARTCHAR 5080
ENCODING 20608
SWIDTH 1200 0
DWIDTH 20 0
BBX 20 20 0 -3
BITMAP
1C0800
180E00
181800
191180
31FFC0
319980
219980
71FF80
719980
B19980
B1FF80
306D00
306D40
306D20
306DF0
30CF20
30CC00
318C20
330FF0
3407E0
ENDCHAR
STARTCHAR 5085
ENCODING 20613
SWIDTH 1200 0
DWIDTH 20 0
BBX 20 20 0 -3
BITMAP
0E0E80
0C0C60
0C0C60
1BFFF0
180C00
11FFE0
318C60
39FFE0
598C60
99FFE0
198C60
198C60
180300
180320
1BFFF0
188300
186300
186300
180F00
180200
ENDCHAR
STARTCHAR 508D
ENCODING 20621
SWIDTH 1200 0
DWIDTH 20 0
BBX 20 20 0 -3
BITMAP
0E0E00
0C0C40
0DFFE0
184100
1821C0
183180
313220
21FFF0
730060
B30E40
300C20
33FFF0
303000
3030C0
303FE0
3060C0
3060C0
30C180
318780
320100
ENDCHAR
STARTCHAR 5091
ENCODING 20625
SWIDTH 1200 0
DWIDTH 20 0
BBX 20 20 0 -3
BITMAP
08C0E0
0E80C0
0C80C0
0DF7F0
1912C0
1BB2C0
3EE2C0
386FF0
58C0C0
5980C0
9B1CC0
181800
181860
1FFFF0
183C00
187B00
18D9C0
199870
1E1820
181800
ENDCHAR
STARTCHAR 5098
ENCODING 20632
SWIDTH 1200 0
DWIDTH 20 0
BBX 20 20 0 -3
BITMAP
006000
00E000
01D000
070E00
1C07F0
E472E0
0C6200
1A6780
336CC0
617840
0C6300
0C6300
1B66C0
617860
006000
FFFFF0
006000
006000
006000
006000
ENDCHAR
STARTCHAR 5099
ENCODING 20633
SWIDTH 1200 0
DWIDTH 20 0
BBX 20 20 0 -3
BITMAP
1C7380
186320
1BFFF0
186300
306300
326360
33FFF0
330000
734060
737FF0
B36660
336660
337FE0
336660
336660
337FE0
326660
326660
3467E0
306640
ENDCHAR
STARTCHAR 509A
ENCODING 20634
SWIDTH 1200 0
DWIDTH 20 0
BBX 20 20 0 -3
BITMAP
1CE380
18C300
18C320
30D3F0
37FE60
200660
724460
73AA40
B632C0
B432C0
3842C0
327180
316180
30C180
30C3C0
316240
313640
323460
340830
301020
ENDCHAR
STARTCHAR 50AC
ENCODING 20652
SWIDTH 1200 0
DWIDTH 20 0
BBX 20 20 0 -3
BITMAP
0E0E00
0DCC70
0D8C60
1D8C60
19FFE0
198060
304200
307380
70C600
B0FFE0
318C00
318C40
33FFE0
358C00
318C40
31FFE0
318C00
318C60
31FFF0
318000
ENDCHAR
STARTCHAR 50AD
ENCODING 20653
SWIDTH 1200 0
DWIDTH 20 0
BBX 20 20 0 -3
BITMAP
1C0E00
1A0C60
1BFFF0
1B0600
330660
337FF0
230660
73FFF0
730660
737FE0
B30600
334660
337FF0
326660
367FE0
346660
347FE0
386660
3066E0
306640
ENDCHAR
STARTCHAR 50B2
ENCODING 20658
SWIDTH 1200 0
DWIDTH 20 0
BBX 20 20 0 -3
BITMAP
1CE380
18C300
18D300
1BFB20
30C3F0
30D260
27FE60
70C460
70CA40
B0C2C0
37FAC0
318280
31B180
31F980
333380
3232C0
367640
346460
39E830
305020
ENDCHAR
STARTCHAR 50B3
ENCODING 20659
SWIDTH 1200 0
DWIDTH 20 0
BBX 20 20 0 -3
BITMAP
0E0E00
0C0C60
0BFFF0
180C00
19FFE0
118C60
31FFE0
398C60
59FFE0
980C80
180C60
180FF0
1BFC30
19C180
1801A0
1BFFF0
184180
183180
183780
180100
ENDCHAR
STARTCHAR 50B4
ENCODING 20660
SWIDTH 1200 0
DWIDTH 20 0
BBX 20 20 0 -3
BITMAP
120060
1BFFF0
1B0000
332080
333FC0
332080
632080
733F80
732080
B30000
B34920
337DF0
334920
334920
3379E0
334920
330000
330060
33FFF0
330000
ENDCHAR
STARTCHAR 50B5
ENCODING 20661
SWIDTH 1200 0
DWIDTH 20 0
BBX 20 20 0 -3
BITMAP
0E0E00
0C0C40
0DFFE0
180C00
18FFC0
180C00
33FFF0
380000
58FFC0
98C0C0
18FFC0
18C0C0
18FFC0
18C0C0
18FFC0
18C0C0
182300
1878C0
18C060
1B0060
ENDCHAR
STARTCHAR 50B7
ENCODING 20663
SWIDTH 1200 0
DWIDTH 20 0
BBX 20 20 0 -3
BITMAP
10E000
1CC0C0
19FFE0
190000
32FF80
34C180
30FF80
70C180
70FF80
B00060
37FFF0
306000
30C060
31FFF0
333360
346660
30CC60
3198C0
3633C0
30C080
ENDCHAR
STARTCHAR 50BE
ENCODING 20670
SWIDTH 1200 0
DWIDTH 20 0
BBX 20 20 0 -3
BITMAP
1C0060
187FF0
180200
180300
371460
361FF0
365860
36F860
779FE0
761860
B61860
361FE0
365860
365860
37FFE0
33D860
300880
300E60
301830
306030
ENDCHAR
STARTCHAR 50C2
ENCODING 20674
SWIDTH 1200 0
DWIDTH 20 0
BBX 20 20 0 -3
BITMAP
1C1C00
191980
19FFC0
1999A0
17FFF0
319980
31FF80
319980
701800
71FF80
B19980
31FF80
31B180
303060
37FFF0
304180
31E300
301E00
3071C0
3380C0
ENDCHAR
STARTCHAR 50C5
ENCODING 20677
SWIDTH 1200 0
DWIDTH 20 0
BBX 20 20 0 -3
BITMAP
1C3B80
183320
1BFFF0
183300
303300
310060
21FFF0
718C60
718C60
B1FFE0
318C60
300C00
31FFE0
300C00
300C80
30FFC0
300C00
300C60
33FFF0
300000
ENDCHAR
STARTCHAR 50C9
ENCODING 20681
SWIDTH 1200 0
DWIDTH 20 0
BBX 20 20 0 -3
BITMAP
00E000
00C000
01A000
031800
060E00
0C0380
300CF0
CFFE60
000000
119180
1FDFC0
199980
199980
1F9F80
000000
0E0700
0C0600
1B0D80
3198E0
41A060
ENDCHAR
STARTCHAR 50CA
ENCODING 20682
SWIDTH 1200 0
DWIDTH 20 0
BBX 20 20 0 -3
BITMAP
1C0060
1BFFF0
183600
19FFC0
31B6C0
31B6C0
21FFC0
7198C0
701820
B7FFF0
306200
30C100
31FFC0
360370
308320
30FF00
30C340
30C040
30FFE0
307FC0
ENDCHAR
STARTCHAR 50CD
ENCODING 20685
SWIDTH 1200 0
DWIDTH 20 0
BBX 20 20 0 -3
BITMAP
1C3380
187B00
1BC300
18D300
37FB60
30C7F0
37FB60
36DB60
77FB60
76DB60
B6DB60
37FB60
36DB60
30C360
37FA60
30C260
30F660
37C460
3305C0
301880
ENDCHAR
STARTCHAR 50CF
ENCODING 20687
SWIDTH 1200 0
DWIDTH 20 0
BBX 20 20 0 -3
BITMAP
0E3000
0C2200
0C7F00
0CC600
1984C0
1AFFE0
30CCC0
38CCC0
58FFC0
98D8C0
183820
186C30
18CE40
1B1680
186700
1B8F80
1836C0
18C670
1B1E20
180400
ENDCHAR
STARTCHAR 50D1
ENCODING 20689
SWIDTH 1200 0
DWIDTH 20 0
BBX 20 20 0 -3
BITMAP
0E0380
0C0FC0
0CFC00
0C1860
1BFFF0
183100
3060C0
38FFF0
5B61A0
987F80
190060
19FFF0
198060
19BF60
19B360
19B360
19BF60
198060
1983E0
198040
ENDCHAR
STARTCHAR 50D5
ENCODING 20693
SWIDTH 1200 0
DWIDTH 20 0
BBX 20 20 0 -3
BITMAP
1C3BA0
1B3370
19B340
19B380
303320
33FFF0
30C100
3061C0
706300
71FFE0
B00C00
30FFC0
300C20
37FFF0
301A00
301200
303100
3061C0
30C0F0
370060
ENDCHAR
STARTCHAR 50D6
ENCODING 20694
SWIDTH 1200 0
DWIDTH 20 0
BBX 20 20 0 -3
BITMAP
1C0E00
180C60
1BFFF0
180C00
19FFE0
300000
30FFC0
30C0C0
70C0C0
70FFC0
B04200
303380
303660
33FFF0
300000
30FFC0
30C0C0
30C0C0
30FFC0
30C0C0
ENDCHAR
STARTCHAR 50DA
ENCODING 20698
SWIDTH 1200 0
DWIDTH 20 0
BBX 20 20 0 -3
BITMAP
0E1C00
0C1800
081860
1FFFF0
1A3220
196340
30C180
31FFC0
3381F0
75FFA0
B18180
318180
31FF80
319980
301800
311900
31D8C0
331860
347860
301000
ENDCHAR
STARTCHAR 50DE
ENCODING 20702
SWIDTH 1200 0
DWIDTH 20 0
BBX 20 20 0 -3
BITMAP
1C0180
190FC0
19FD00
1930C0
1318C0
321980
31FFC0
318180
718180
71FFC0
B180C0
3300C0
33FFE0
320060
360260
34A960
38AD60
31A4C0
3303C0
300080
ENDCHAR
STARTCHAR 50E3
ENCODING 20707
SWIDTH 1200 0
DWIDTH 20 0
BBX 20 20 0 -3
BITMAP
1CE1C0
18C180
18C1A0
1BF7F0
30C180
30C1A0
33F7F0
60C180
71A360
B33230
343430
3080C0
30FFE0
30C0C0
30C0C0
30FFC0
30C0C0
30C0C0
30FFC0
30C0C0
ENDCHAR
STARTCHAR 50E5
ENCODING 20709
SWIDTH 1200 0
DWIDTH 20 0
BBX 20 20 0 -3
BITMAP
0E0E00
0C0C80
0CFFC0
0C0C00
19FFE0
180000
30E1C0
20C1A0
73F7F0
B0C180
30F9A0
37C7F0
330000
300060
33FFF0
303300
303320
306320
30C3F0
3301E0
ENDCHAR
STARTCHAR 50E7
ENCODING 20711
SWIDTH 1200 0
DWIDTH 20 0
BBX 20 20 0 -3
BITMAP
044100
0631C0
0C3300
0D0260
09FFF0
198C60
19FFE0
398C60
798C60
99FFE0
180000
1880C0
18FFE0
18C0C0
18C0C0
18FFC0
18C0C0
18C0C0
18FFC0
18C0C0
ENDCHAR
STARTCHAR 50ED
ENCODING 20717
SWIDTH 1200 0
DWIDTH 20 0
BBX 20 20 0 -3
BITMAP
3860C0
304080
37E7E0
324280
344480
6FEFF0
70C180
7153A0
72E6B0
B44860
300000
3100C0
31FFE0
3180C0
3180C0
31FFC0
3180C0
3180C0
31FFC0
3180C0
ENDCHAR
STARTCHAR 50EE
ENCODING 20718
SWIDTH 1200 0
DWIDTH 20 0
BBX 20 20 0 -3
BITMAP
0E0E00
0C0C40
0DFFE0
184100
186180
186320
33FFF0
780000
5880C0
98FFE0
18CCC0
18FFC0
18CCC0
18CCC0
18FFC0
180C00
18FFC0
180C00
1BFFF0
180000
ENDCHAR
STARTCHAR 50F5
ENCODING 20725
SWIDTH 1200 0
DWIDTH 20 0
BBX 20 20 0 -3
BITMAP
1C0060
1BFFF0
180000
18FFC0
30CCC0
30FFC0
30CCC0
60FFC0
700000
B00040
31FFE0
300000
30FFC0
30CCC0
30FFC0
30CCC0
30FFC0
300020
33FFF0
300000
ENDCHAR
STARTCHAR 50F9
ENCODING 20729
SWIDTH 1200 0
DWIDTH 20 0
BBX 20 20 0 -3
BITMAP
1C0060
1BFFF0
183600
1A3660
33FFF0
333660
33FFE0
630060
7000C0
B1FFE0
3180C0
31FFC0
3180C0
31FFC0
3180C0
31FFC0
304200
30F1C0
3180E0
360060
ENDCHAR
STARTCHAR 50FB
ENCODING 20731
SWIDTH 1200 0
DWIDTH 20 0
BBX 20 20 0 -3
BITMAP
1C01C0
1A6180
1BF180
1B61A0
336FF0
336040
3B6460
73E240
736280
B31FF0
330180
376180
37F1A0
376FF0
376180
3B6180
3B6180
336180
33E180
336180
ENDCHAR
STARTCHAR 5100
ENCODING 20736
SWIDTH 1200 0
DWIDTH 20 0
BBX 20 20 0 -3
BITMAP
108200
1C6300
186440
13FFE0
301800
31FFC0
301800
77FFF0
702040
B07760
33C660
30C600
37FFF0
30C680
30F6C0
37C380
32C320
30C7A0
33CCF0
30B070
ENDCHAR
STARTCHAR 5101
ENCODING 20737
SWIDTH 1200 0
DWIDTH 20 0
BBX 20 20 0 -3
BITMAP
0E7380
0C6300
0CC460
18FFF0
19C600
32FFE0
34C600
60FFE0
70C600
B0FFF0
30C000
311260
31FBF0
319260
319260
319E60
319260
318060
3181E0
318040
ENDCHAR
STARTCHAR 5102
ENCODING 20738
SWIDTH 1200 0
DWIDTH 20 0
BBX 20 20 0 -3
BITMAP
0E1B00
0C9240
0CFFE0
189240
18FFC0
309240
30FFC0
608040
720020
B3FFF0
330000
337FE0
330000
33FFF0
326420
366470
366280
346100
39F8F0
30C060
ENDCHAR
STARTCHAR 5104
ENCODING 20740
SWIDTH 1200 0
DWIDTH 20 0
BBX 20 20 0 -3
BITMAP
081C00
0C1800
081840
1BFFE0
10C200
306380
306620
77FFF0
700000
B1FF80
318180
31FF80
318180
31FF80
310180
301800
316D60
336D30
3661B0
363F00
ENDCHAR
STARTCHAR 5109
ENCODING 20745
SWIDTH 1200 0
DWIDTH 20 0
BBX 20 20 0 -3
BITMAP
0E1C00
0C1800
0C3400
186300
18C1C0
3106F0
26FF60
700000
722440
B3F7E0
322440
322440
33E7C0
322440
308100
30E1C0
30C180
31A360
333630
342830
ENDCHAR
STARTCHAR 5112
ENCODING 20754
SWIDTH 1200 0
DWIDTH 20 0
BBX 20 20 0 -3
BITMAP
1C0180
19FFC0
181800
1A1820
13FFF0
361820
35DBA0
301800
71DB80
700060
B3FFF0
301800
321060
33FFF0
332460
332460
332460
332460
3325E0
332440
ENDCHAR
STARTCHAR 5114
ENCODING 20756
SWIDTH 1200 0
DWIDTH 20 0
BBX 20 20 0 -3
BITMAP
0E0E00
0C0C40
0DFFE0
180C00
18FFC0
300000
200020
73FFF0
700020
B0FFA0
300C00
31FFE0
300000
33FFF0
300060
33EFF0
336460
336260
33E2E0
336040
ENDCHAR
STARTCHAR 5115
ENCODING 20757
SWIDTH 1200 0
DWIDTH 20 0
BBX 20 20 0 -3
BITMAP
1C0E00
180C60
1BFFF0
182400
301660
37D5C0
214940
714960
724930
B4CBA0
300900
30E0E0
30C0C0
30FFC0
30C0C0
30C0C0
30FFC0
3180C0
3100C0
3200C0
ENDCHAR
STARTCHAR 5116
ENCODING 20758
SWIDTH 1200 0
DWIDTH 20 0
BBX 20 20 0 -3
BITMAP
123380
1BFB00
1A8320
1AA3F0
33F200
322600
222400
73E800
728040
B293E0
33F800
320000
3100C0
31FFE0
31A4C0
31A4C0
31A4C0
31A4C0
37FFF0
300000
ENDCHAR
STARTCHAR 5118
ENCODING 20760
SWIDTH 1200 0
DWIDTH 20 0
BBX 20 20 0 -3
BITMAP
0E0E00
0C0CC0
0CFFE0
0C0CC0
1BFFF0
180CC0
30FFC0
200CC0
700C00
B3FFF0
312660
33B330
343330
3100C0
31FFE0
3194C0
3194C0
3194C0
37FFF0
300000
ENDCHAR
STARTCHAR 511A
ENCODING 20762
SWIDTH 1200 0
DWIDTH 20 0
BBX 20 20 0 -3
BITMAP
1C3B80
183320
1BFFF0
303300
310060
31FFF0
21B360
71B360
71FFE0
B20020
33FFF0
362020
3631A0
307FC0
30C180
333300
301600
300C00
303000
31C000
ENDCHAR
STARTCHAR 511F
ENCODING 20767
SWIDTH 1200 0
DWIDTH 20 0
BBX 20 20 0 -3
BITMAP
088E80
0E6CC0
0D6D20
19FFF0
1B0020
3B7FA0
386180
787F80
580000
98FFC0
18C0C0
18FFC0
18C0C0
18FFC0
18C0C0
18FFC0
180000
184380
18F0E0
1B8060
ENDCHAR
STARTCHAR 5121
ENCODING 20769
SWIDTH 1200 0
DWIDTH 20 0
BBX 20 20 0 -3
BITMAP
1D0180
19FFC0
199980
319980
31FF80
219980
319980
71FF80
718180
B00000
342460
37F7F0
36A560
36A560
37E7E0
36A560
36A560
36A560
37E7E0
362460
ENDCHAR
STARTCHAR 512A
ENCODING 20778
SWIDTH 1200 0
DWIDTH 20 0
BBX 20 20 0 -3
BITMAP
13FFF0
180800
187F80
186180
307F80
306180
307F80
3261A0
73FFF0
760820
B6A4A0
31A140
31BF40
304000
306080
30FFC0
332300
301E00
3073F0
3380C0
ENDCHAR
STARTCHAR 5132
ENCODING 20786
SWIDTH 1200 0
DWIDTH 20 0
BBX 20 20 0 -3
BITMAP
388300
37C340
300370
204FE0
6FE3C0
600380
408320
67DFF0
E00300
6086C0
67CFE0
601CC0
602CC0
64CCC0
67EFC0
66CCC0
66CCC0
66CCC0
67CFC0
66CCC0
ENDCHAR
STARTCHAR 5137
ENCODING 20791
SWIDTH 1200 0
DWIDTH 20 0
BBX 20 20 0 -3
BITMAP
1C1020
1BFBF0
180000
31F3E0
311220
2152A0
3152A0
700C00
73FFF0
B32200
33FFE0
332260
33FFE0
334460
334480
3275C0
364620
344420
39F7F0
30C3E0
ENDCHAR
STARTCHAR 513A
ENCODING 20794
SWIDTH 1200 0
DWIDTH 20 0
BBX 20 20 0 -3
BITMAP
1DB240
192370
17FA60
3122C0
31E6A0
20C7F0
33F640
72D640
72D640
B3F7F0
32D640
30C640
37F640
3187F0
37FE40
314640
312640
333640
3237F0
340600
ENDCHAR
STARTCHAR 513B
ENCODING 20795
SWIDTH 1200 0
DWIDTH 20 0
BBX 20 20 0 -3
BITMAP
1C8E80
186CC0
196D20
31FFF0
330020
337FA0
206180
707F80
710060
B1FFF0
31CD60
31AE60
31FFE0
300C00
31FFE0
300C00
33FFF0
30A440
319B30
331B30
ENDCHAR
STARTCHAR 513C
ENCODING 20796
SWIDTH 1200 0
DWIDTH 20 0
BBX 20 20 0 -3
BITMAP
1264C0
1BF7E0
1B66C0
33E7C0
340020
27FFF0
760000
76F380
766320
B663F0
37FA60
369560
369560
36F1C0
3490C0
34F0C0
3491C0
38F160
339270
311420
ENDCHAR
STARTCHAR 513F
ENCODING 20799
SWIDTH 1200 0
DWIDTH 20 0
BBX 20 20 0 -3
BITMAP
038E00
030C00
030C00
030C00
030C00
030C00
030C00
030C00
030C00
030C00
030C00
030C00
060C00
060C00
060C00
0C0C00
0C0C20
180C20
300FF0
C007E0
ENDCHAR
STARTCHAR 5140
ENCODING 20800
SWIDTH 1200 0
DWIDTH 20 0
BBX 20 20 0 -3
BITMAP
000000
000060
FFFFF0
030C00
030C00
030C00
030C00
030C00
030C00
030C00
030C00
030C00
060C00
060C00
060C00
0C0C00
0C0C20
180C20
300FF0
C007E0
ENDCHAR
STARTCHAR 5141
ENCODING 20801
SWIDTH 1200 0
DWIDTH 20 0
BBX 20 20 0 -3
BITMAP
038000
030000
030400
060300
040180
0C00C0
087FC0
7FECE0
3B0C60
030C00
030C00
030C00
030C00
060C00
060C00
0C0C00
0C0C20
180C20
300FF0
C007E0
ENDCHAR
STARTCHAR 5143
ENCODING 20803
SWIDTH 1200 0
DWIDTH 20 0
BBX 20 20 0 -3
BITMAP
000180
1FFFC0
000000
000000
000000
000000
000000
000060
FFFFF0
030C00
030C00
030C00
030C00
030C00
060C00
060C00
060C20
0C0C20
180FF0
6007E0
ENDCHAR
STARTCHAR 5144
ENCODING 20804
SWIDTH 1200 0
DWIDTH 20 0
BBX 20 20 0 -3
BITMAP
100300
1FFF80
180300
180300
180300
180300
180300
180300
180300
1FFF00
1B1B00
031800
031800
031800
061800
061800
0C1820
181820
301FF0
C00FE0
ENDCHAR
STARTCHAR 5145
ENCODING 20805
SWIDTH 1200 0
DWIDTH 20 0
BBX 20 20 0 -3
BITMAP
007000
006000
006060
FFFFF0
00C000
018400
010300
023F80
1FD980
0B1980
031800
031800
031800
031800
061800
061800
061820
0C1820
181FF0
E00FE0
ENDCHAR
STARTCHAR 5146
ENCODING 20806
SWIDTH 1200 0
DWIDTH 20 0
BBX 20 20 0 -3
BITMAP
039C00
031800
031800
031800
431840
3318E0
1B1B80
1B1E00
031800
031800
071A00
3B1980
E318C0
4318C0
061800
061820
0C1820
181820
301FF0
C00FE0
ENDCHAR
STARTCHAR 5147
ENCODING 20807
SWIDTH 1200 0
DWIDTH 20 0
BBX 20 20 0 -3
BITMAP
000400
3806E0
300CC0
330CC0
30D8C0
3070C0
3038C0
30CCC0
318CC0
3600C0
3000C0
3FFFC0
330CC0
030C00
030C00
060C00
060C20
0C0C20
180FF0
E007E0
ENDCHAR
STARTCHAR 5148
ENCODING 20808
SWIDTH 1200 0
DWIDTH 20 0
BBX 20 20 0 -3
BITMAP
007000
0E6000
0C6000
0C6180
1FFFC0
186000
306000
406000
006060
FFFFF0
031800
031800
031800
031800
061800
061800
0C1820
181820
301FF0
C00FE0
ENDCHAR
STARTCHAR 5149
ENCODING 20809
SWIDTH 1200 0
DWIDTH 20 0
BBX 20 20 0 -3
BITMAP
007000
406080
3060E0
1860C0
0C6180
0C6300
066200
066400
006060
FFFFF0
031800
031800
031800
061800
061800
0C1800
0C1820
181820
301FF0
C00FE0
ENDCHAR
STARTCHAR 514B
ENCODING 20811
SWIDTH 1200 0
DWIDTH 20 0
BBX 20 20 0 -3
BITMAP
007000
006000
006060
FFFFF0
006000
106180
1FFFC0
180180
180180
180180
180180
1FFF80
199980
019800
031800
031800
061820
0C1820
181FF0
E00FE0
ENDCHAR
STARTCHAR 514C
ENCODING 20812
SWIDTH 1200 0
DWIDTH 20 0
BBX 20 20 0 -3
BITMAP
040800
06FC00
060800
0C0400
0C0600
180300
3FFFC0
6C03F0
8C0360
0C0300
0C0300
0FFF00
0D9B00
019800
031800
031800
061820
0C1820
181FF0
600FE0
ENDCHAR
STARTCHAR 514D
ENCODING 20813
SWIDTH 1200 0
DWIDTH 20 0
BBX 20 20 0 -3
BITMAP
038000
030600
07FF00
060C00
0C1800
182000
304180
5FFFC0
186180
186180
186180
1FFF80
1B1980
031800
031800
061800
061820
0C1820
181FF0
600FE0
ENDCHAR
STARTCHAR 514E
ENCODING 20814
SWIDTH 1200 0
DWIDTH 20 0
BBX 20 20 0 -3
BITMAP
000380
001FC0
00FE00
1FE000
006000
2060C0
3FFFE0
3060C0
3060C0
3060C0
3060C0
3FFFC0
3318C0
031A00
031900
061980
0619A0
0C1820
181FF0
E00FE0
ENDCHAR
STARTCHAR 5150
ENCODING 20816
SWIDTH 1200 0
DWIDTH 20 0
BBX 20 20 0 -3
BITMAP
1C8180
18FFC0
18C180
18C180
18C180
18FF80
18C180
18C180
18C180
18FF80
18C180
000000
039C00
031800
031800
061800
061820
0C1820
381FF0
E00FE0
ENDCHAR
STARTCHAR 5152
ENCODING 20818
SWIDTH 1200 0
DWIDTH 20 0
BBX 20 20 0 -3
BITMAP
00C000
11E000
1E0180
181FC0
180180
180180
180180
1F9F80
180180
180180
180180
1FFF80
1B0D80
030C00
030C00
060C00
060C20
0C0C20
180FF0
E007E0
ENDCHAR
STARTCHAR 5154
ENCODING 20820
SWIDTH 1200 0
DWIDTH 20 0
BBX 20 20 0 -3
BITMAP
038000
030600
07FF00
060C00
0C1800
182000
304180
5FFFC0
186180
186180
18C180
1FFF80
199980
019A00
031900
031980
0619A0
0C1820
181FF0
E00FE0
ENDCHAR
STARTCHAR 515A
ENCODING 20826
SWIDTH 1200 0
DWIDTH 20 0
BBX 20 20 0 -3
BITMAP
107100
0861C0
0C6180
4C6220
7FFFF0
C00060
C80640
0FFF40
0C0600
0C0600
0C0600
0FFE00
0DB600
01B000
033000
033000
063020
0C3020
183FF0
E01FE0
ENDCHAR
STARTCHAR 515C
ENCODING 20828
SWIDTH 1200 0
DWIDTH 20 0
BBX 20 20 0 -3
BITMAP
082000
0E3860
5861F0
63FC60
630C60
630C60
63FC60
630C60
630C60
63FC60
7B0DE0
600060
039C00
031800
031800
061800
061820
0C1820
381FF0
E00FE0
ENDCHAR
STARTCHAR 5162
ENCODING 20834
SWIDTH 1200 0
DWIDTH 20 0
BBX 20 20 0 -3
BITMAP
0E0380
0C0300
0C8320
FFDFF0
0C0300
0C0300
4D9360
7FDFF0
619860
619860
619860
7F9FE0
5B0D80
1B0D80
1B2D80
334D80
3399A0
6719A0
4231F0
8040E0
ENDCHAR
STARTCHAR 5165
ENCODING 20837
SWIDTH 1200 0
DWIDTH 20 0
BBX 20 20 0 -3
BITMAP
006000
1FF000
006000
006000
006000
006000
00E000
00A000
00B000
019000
019000
031800
030800
060C00
040600
0C0700
180380
3001C0
6000F0
C00060
ENDCHAR
STARTCHAR 5168
ENCODING 20840
SWIDTH 1200 0
DWIDTH 20 0
BBX 20 20 0 -3
BITMAP
006000
006000
00D000
019000
030800
060600
0C0380
3800F0
E00360
1FFF80
006000
006000
006300
1FFF80
006000
006000
006000
0060C0
7FFFE0
000000
ENDCHAR
ENDFONT
